<svg width="66" height="13" viewBox="0 0 66 13" fill="none" xmlns="http://www.w3.org/2000/svg">
<path d="M1.58245 0.899999H5.93745C6.16279 0.899999 6.34912 0.973666 6.49645 1.121C6.65245 1.25967 6.73045 1.44167 6.73045 1.667C6.73045 1.88367 6.65245 2.06133 6.49645 2.2C6.34912 2.33 6.16279 2.395 5.93745 2.395H2.29745L2.41445 2.174V4.709L2.31045 4.605H5.35245C5.57779 4.605 5.76412 4.67867 5.91145 4.826C6.06745 4.96467 6.14545 5.14667 6.14545 5.372C6.14545 5.58867 6.06745 5.76633 5.91145 5.905C5.76412 6.035 5.57779 6.1 5.35245 6.1H2.34945L2.41445 5.996V8.622L2.31045 8.505H5.93745C6.16279 8.505 6.34912 8.583 6.49645 8.739C6.65245 8.88633 6.73045 9.05967 6.73045 9.259C6.73045 9.47567 6.65245 9.65333 6.49645 9.792C6.34912 9.93067 6.16279 10 5.93745 10H1.58245C1.35712 10 1.16645 9.92633 1.01045 9.779C0.86312 9.623 0.789453 9.43233 0.789453 9.207V1.693C0.789453 1.46767 0.86312 1.28133 1.01045 1.134C1.16645 0.977999 1.35712 0.899999 1.58245 0.899999ZM8.22048 3.045C8.38514 3.045 8.53681 3.08833 8.67548 3.175C8.81414 3.253 8.91814 3.37433 8.98748 3.539L10.8985 7.907L10.6125 8.037L12.5625 3.552C12.7098 3.20533 12.9395 3.04067 13.2515 3.058C13.4681 3.058 13.6415 3.12733 13.7715 3.266C13.9101 3.396 13.9795 3.56067 13.9795 3.76C13.9795 3.82067 13.9665 3.88567 13.9405 3.955C13.9231 4.02433 13.9015 4.08933 13.8755 4.15L11.4445 9.506C11.3058 9.818 11.0848 9.98267 10.7815 10C10.6168 10.026 10.4565 9.99567 10.3005 9.909C10.1531 9.82233 10.0405 9.688 9.96248 9.506L7.54448 4.15C7.52714 4.10667 7.50548 4.05033 7.47948 3.981C7.46214 3.91167 7.45348 3.82933 7.45348 3.734C7.45348 3.578 7.52281 3.42633 7.66148 3.279C7.80014 3.123 7.98648 3.045 8.22048 3.045ZM18.4208 10.13C17.6841 10.13 17.0428 9.97833 16.4968 9.675C15.9595 9.363 15.5435 8.94267 15.2488 8.414C14.9628 7.88533 14.8198 7.28733 14.8198 6.62C14.8198 5.84 14.9758 5.177 15.2878 4.631C15.6085 4.07633 16.0245 3.65167 16.5358 3.357C17.0471 3.06233 17.5888 2.915 18.1608 2.915C18.6028 2.915 19.0188 3.006 19.4088 3.188C19.8075 3.37 20.1585 3.62133 20.4618 3.942C20.7651 4.254 21.0035 4.618 21.1768 5.034C21.3588 5.45 21.4498 5.892 21.4498 6.36C21.4411 6.568 21.3588 6.737 21.2028 6.867C21.0468 6.997 20.8648 7.062 20.6568 7.062H15.6908L15.3008 5.762H20.0718L19.7858 6.022V5.671C19.7685 5.41967 19.6775 5.19433 19.5128 4.995C19.3568 4.79567 19.1575 4.63967 18.9148 4.527C18.6808 4.40567 18.4295 4.345 18.1608 4.345C17.9008 4.345 17.6581 4.37967 17.4328 4.449C17.2075 4.51833 17.0125 4.63533 16.8478 4.8C16.6831 4.96467 16.5531 5.18567 16.4578 5.463C16.3625 5.74033 16.3148 6.09133 16.3148 6.516C16.3148 6.984 16.4101 7.38267 16.6008 7.712C16.8001 8.03267 17.0515 8.27967 17.3548 8.453C17.6668 8.61767 17.9961 8.7 18.3428 8.7C18.6635 8.7 18.9191 8.674 19.1098 8.622C19.3005 8.57 19.4521 8.50933 19.5648 8.44C19.6861 8.362 19.7945 8.297 19.8898 8.245C20.0458 8.167 20.1931 8.128 20.3318 8.128C20.5225 8.128 20.6785 8.193 20.7998 8.323C20.9298 8.453 20.9948 8.60467 20.9948 8.778C20.9948 9.012 20.8735 9.22433 20.6308 9.415C20.4055 9.60567 20.0891 9.77467 19.6818 9.922C19.2745 10.0607 18.8541 10.13 18.4208 10.13ZM26.5308 2.915C27.1721 2.915 27.6574 3.04933 27.9868 3.318C28.3248 3.58667 28.5544 3.94633 28.6758 4.397C28.8058 4.839 28.8708 5.333 28.8708 5.879V9.207C28.8708 9.43233 28.7971 9.623 28.6498 9.779C28.5024 9.92633 28.3161 10 28.0908 10C27.8654 10 27.6791 9.92633 27.5318 9.779C27.3844 9.623 27.3108 9.43233 27.3108 9.207V5.879C27.3108 5.593 27.2718 5.33733 27.1938 5.112C27.1244 4.878 26.9944 4.69167 26.8038 4.553C26.6131 4.41433 26.3401 4.345 25.9848 4.345C25.6381 4.345 25.3434 4.41433 25.1008 4.553C24.8668 4.69167 24.6848 4.878 24.5548 5.112C24.4334 5.33733 24.3728 5.593 24.3728 5.879V9.207C24.3728 9.43233 24.2991 9.623 24.1518 9.779C24.0044 9.92633 23.8181 10 23.5928 10C23.3674 10 23.1811 9.92633 23.0338 9.779C22.8864 9.623 22.8128 9.43233 22.8128 9.207V3.838C22.8128 3.61267 22.8864 3.42633 23.0338 3.279C23.1811 3.123 23.3674 3.045 23.5928 3.045C23.8181 3.045 24.0044 3.123 24.1518 3.279C24.2991 3.42633 24.3728 3.61267 24.3728 3.838V4.397L24.1778 4.358C24.2558 4.21067 24.3684 4.05467 24.5158 3.89C24.6631 3.71667 24.8364 3.55633 25.0358 3.409C25.2351 3.26167 25.4604 3.14467 25.7118 3.058C25.9631 2.96267 26.2361 2.915 26.5308 2.915ZM30.6349 3.175H33.7159C33.9239 3.175 34.0972 3.24433 34.2359 3.383C34.3746 3.52167 34.4439 3.695 34.4439 3.903C34.4439 4.10233 34.3746 4.27133 34.2359 4.41C34.0972 4.54 33.9239 4.605 33.7159 4.605H30.6349C30.4269 4.605 30.2536 4.53567 30.1149 4.397C29.9762 4.25833 29.9069 4.085 29.9069 3.877C29.9069 3.67767 29.9762 3.513 30.1149 3.383C30.2536 3.24433 30.4269 3.175 30.6349 3.175ZM32.0259 1.55C32.2512 1.55 32.4332 1.628 32.5719 1.784C32.7192 1.93133 32.7929 2.11767 32.7929 2.343V8.128C32.7929 8.24933 32.8146 8.349 32.8579 8.427C32.9099 8.505 32.9749 8.56133 33.0529 8.596C33.1396 8.63067 33.2306 8.648 33.3259 8.648C33.4299 8.648 33.5252 8.63067 33.6119 8.596C33.6986 8.55267 33.7982 8.531 33.9109 8.531C34.0322 8.531 34.1406 8.58733 34.2359 8.7C34.3399 8.81267 34.3919 8.96867 34.3919 9.168C34.3919 9.41067 34.2576 9.61 33.9889 9.766C33.7289 9.922 33.4472 10 33.1439 10C32.9619 10 32.7582 9.987 32.5329 9.961C32.3162 9.92633 32.1082 9.85267 31.9089 9.74C31.7182 9.61867 31.5579 9.43667 31.4279 9.194C31.2979 8.95133 31.2329 8.61767 31.2329 8.193V2.343C31.2329 2.11767 31.3066 1.93133 31.4539 1.784C31.6099 1.628 31.8006 1.55 32.0259 1.55ZM35.7272 8.921C35.6405 8.79967 35.6015 8.64367 35.6102 8.453C35.6188 8.26233 35.7315 8.09767 35.9482 7.959C36.0868 7.87233 36.2342 7.83767 36.3902 7.855C36.5462 7.86367 36.6978 7.94167 36.8452 8.089C37.0965 8.34033 37.3608 8.53533 37.6382 8.674C37.9155 8.81267 38.2622 8.882 38.6782 8.882C38.8082 8.87333 38.9512 8.856 39.1072 8.83C39.2632 8.79533 39.3975 8.726 39.5102 8.622C39.6315 8.50933 39.6922 8.34033 39.6922 8.115C39.6922 7.92433 39.6272 7.77267 39.4972 7.66C39.3672 7.54733 39.1938 7.452 38.9772 7.374C38.7692 7.296 38.5352 7.22233 38.2752 7.153C38.0065 7.075 37.7292 6.98833 37.4432 6.893C37.1658 6.79767 36.9102 6.67633 36.6762 6.529C36.4422 6.373 36.2515 6.16933 36.1042 5.918C35.9568 5.66667 35.8832 5.35033 35.8832 4.969C35.8832 4.53567 36.0045 4.16733 36.2472 3.864C36.4898 3.56067 36.8018 3.32667 37.1832 3.162C37.5732 2.99733 37.9805 2.915 38.4052 2.915C38.6738 2.915 38.9555 2.94967 39.2502 3.019C39.5448 3.07967 39.8265 3.18367 40.0952 3.331C40.3638 3.46967 40.5892 3.656 40.7712 3.89C40.8665 4.02 40.9228 4.176 40.9402 4.358C40.9575 4.54 40.8752 4.70467 40.6932 4.852C40.5632 4.956 40.4115 5.00367 40.2382 4.995C40.0648 4.97767 39.9218 4.917 39.8092 4.813C39.6618 4.62233 39.4625 4.47067 39.2112 4.358C38.9685 4.24533 38.6868 4.189 38.3662 4.189C38.2362 4.189 38.0932 4.20633 37.9372 4.241C37.7898 4.267 37.6598 4.332 37.5472 4.436C37.4345 4.53133 37.3782 4.68733 37.3782 4.904C37.3782 5.10333 37.4432 5.26367 37.5732 5.385C37.7032 5.49767 37.8765 5.593 38.0932 5.671C38.3185 5.74033 38.5568 5.80967 38.8082 5.879C39.0682 5.94833 39.3325 6.03067 39.6012 6.126C39.8698 6.22133 40.1168 6.347 40.3422 6.503C40.5675 6.659 40.7495 6.86267 40.8882 7.114C41.0268 7.35667 41.0962 7.66867 41.0962 8.05C41.0962 8.492 40.9662 8.869 40.7062 9.181C40.4462 9.493 40.1212 9.73133 39.7312 9.896C39.3412 10.052 38.9425 10.13 38.5352 10.13C38.0238 10.13 37.5125 10.0433 37.0012 9.87C36.4898 9.688 36.0652 9.37167 35.7272 8.921Z" fill="#2A6794"/>
<path d="M45.8726 2.941L43.0646 9.545C43.004 9.70967 42.9086 9.83967 42.7786 9.935C42.6573 10.0217 42.523 10.065 42.3756 10.065C42.1416 10.065 41.9683 10 41.8556 9.87C41.743 9.74 41.6866 9.57967 41.6866 9.389C41.6866 9.311 41.6996 9.22867 41.7256 9.142L44.9626 1.368C45.032 1.19467 45.136 1.06033 45.2746 0.964999C45.422 0.869666 45.578 0.830666 45.7426 0.847999C45.8986 0.847999 46.0416 0.895666 46.1716 0.991C46.3103 1.07767 46.41 1.20333 46.4706 1.368L49.6686 8.986C49.712 9.09867 49.7336 9.20267 49.7336 9.298C49.7336 9.532 49.6556 9.71833 49.4996 9.857C49.3523 9.99567 49.1876 10.065 49.0056 10.065C48.8496 10.065 48.7066 10.0173 48.5766 9.922C48.4553 9.82667 48.36 9.69667 48.2906 9.532L45.4956 3.019L45.8726 2.941ZM43.4676 7.959L44.1826 6.464H47.6926L47.9396 7.959H43.4676ZM54.3054 2.915C54.912 2.915 55.4537 3.071 55.9304 3.383C56.4157 3.68633 56.797 4.10667 57.0744 4.644C57.3604 5.18133 57.5034 5.80533 57.5034 6.516C57.5034 7.22667 57.3604 7.855 57.0744 8.401C56.797 8.93833 56.42 9.363 55.9434 9.675C55.4754 9.97833 54.9467 10.13 54.3574 10.13C54.0107 10.13 53.6857 10.0737 53.3824 9.961C53.079 9.84833 52.8104 9.70533 52.5764 9.532C52.351 9.35867 52.1734 9.18533 52.0434 9.012C51.922 8.83 51.8614 8.67833 51.8614 8.557L52.2644 8.388V11.807C52.2644 12.0323 52.1907 12.2187 52.0434 12.366C51.896 12.522 51.7097 12.6 51.4844 12.6C51.259 12.6 51.0727 12.5263 50.9254 12.379C50.778 12.2317 50.7044 12.041 50.7044 11.807V3.838C50.7044 3.61267 50.778 3.42633 50.9254 3.279C51.0727 3.123 51.259 3.045 51.4844 3.045C51.7097 3.045 51.896 3.123 52.0434 3.279C52.1907 3.42633 52.2644 3.61267 52.2644 3.838V4.475L52.0434 4.358C52.0434 4.24533 52.104 4.111 52.2254 3.955C52.3467 3.79033 52.5114 3.63 52.7194 3.474C52.9274 3.30933 53.1657 3.175 53.4344 3.071C53.7117 2.967 54.002 2.915 54.3054 2.915ZM54.1104 4.345C53.729 4.345 53.3954 4.44033 53.1094 4.631C52.8234 4.82167 52.598 5.08167 52.4334 5.411C52.2774 5.73167 52.1994 6.1 52.1994 6.516C52.1994 6.92333 52.2774 7.296 52.4334 7.634C52.598 7.96333 52.8234 8.22333 53.1094 8.414C53.3954 8.60467 53.729 8.7 54.1104 8.7C54.4917 8.7 54.821 8.60467 55.0984 8.414C55.3844 8.22333 55.6054 7.96333 55.7614 7.634C55.926 7.296 56.0084 6.92333 56.0084 6.516C56.0084 6.1 55.926 5.73167 55.7614 5.411C55.6054 5.08167 55.3844 4.82167 55.0984 4.631C54.821 4.44033 54.4917 4.345 54.1104 4.345ZM62.4685 2.915C63.0751 2.915 63.6168 3.071 64.0935 3.383C64.5788 3.68633 64.9601 4.10667 65.2375 4.644C65.5235 5.18133 65.6665 5.80533 65.6665 6.516C65.6665 7.22667 65.5235 7.855 65.2375 8.401C64.9601 8.93833 64.5831 9.363 64.1065 9.675C63.6385 9.97833 63.1098 10.13 62.5205 10.13C62.1738 10.13 61.8488 10.0737 61.5455 9.961C61.2421 9.84833 60.9735 9.70533 60.7395 9.532C60.5141 9.35867 60.3365 9.18533 60.2065 9.012C60.0851 8.83 60.0245 8.67833 60.0245 8.557L60.4275 8.388V11.807C60.4275 12.0323 60.3538 12.2187 60.2065 12.366C60.0591 12.522 59.8728 12.6 59.6475 12.6C59.4221 12.6 59.2358 12.5263 59.0885 12.379C58.9411 12.2317 58.8675 12.041 58.8675 11.807V3.838C58.8675 3.61267 58.9411 3.42633 59.0885 3.279C59.2358 3.123 59.4221 3.045 59.6475 3.045C59.8728 3.045 60.0591 3.123 60.2065 3.279C60.3538 3.42633 60.4275 3.61267 60.4275 3.838V4.475L60.2065 4.358C60.2065 4.24533 60.2671 4.111 60.3885 3.955C60.5098 3.79033 60.6745 3.63 60.8825 3.474C61.0905 3.30933 61.3288 3.175 61.5975 3.071C61.8748 2.967 62.1651 2.915 62.4685 2.915ZM62.2735 4.345C61.8921 4.345 61.5585 4.44033 61.2725 4.631C60.9865 4.82167 60.7611 5.08167 60.5965 5.411C60.4405 5.73167 60.3625 6.1 60.3625 6.516C60.3625 6.92333 60.4405 7.296 60.5965 7.634C60.7611 7.96333 60.9865 8.22333 61.2725 8.414C61.5585 8.60467 61.8921 8.7 62.2735 8.7C62.6548 8.7 62.9841 8.60467 63.2615 8.414C63.5475 8.22333 63.7685 7.96333 63.9245 7.634C64.0891 7.296 64.1715 6.92333 64.1715 6.516C64.1715 6.1 64.0891 5.73167 63.9245 5.411C63.7685 5.08167 63.5475 4.82167 63.2615 4.631C62.9841 4.44033 62.6548 4.345 62.2735 4.345Z" fill="#63A5D6"/>
</svg>

