<svg width="20" height="22" viewBox="0 0 20 22" fill="none" xmlns="http://www.w3.org/2000/svg">
<path d="M19.5387 8.55712L10.6731 0.400829C10.3849 0.135674 10.0054 -0.00782393 9.61384 0.000329346C9.2223 0.00848263 8.84906 0.167656 8.57214 0.444579L0.418438 8.59833L0 9.01672V21.037H7.85714V13.537H12.1429V21.037H20V8.98159L19.5387 8.55712ZM9.64455 1.4286C9.65714 1.4286 9.64937 1.43132 9.64397 1.43663C9.63839 1.43132 9.63196 1.4286 9.64455 1.4286ZM18.5714 19.6085H13.5714V13.537C13.5714 13.1582 13.4209 12.7948 13.153 12.5269C12.8851 12.259 12.5217 12.1085 12.1429 12.1085H7.85714C7.47826 12.1085 7.1149 12.259 6.84699 12.5269C6.57908 12.7948 6.42857 13.1582 6.42857 13.537V19.6085H1.42857V9.60846L9.64455 1.45471C9.64513 1.45418 9.64518 1.45369 9.64563 1.45315L18.5714 9.60846V19.6085Z" fill="#2A6794"/>
</svg>

