<svg width="15" height="15" viewBox="0 0 15 15" fill="none" xmlns="http://www.w3.org/2000/svg">
<path d="M15 5.15628C15 8.00399 12.6915 10.3125 9.84375 10.3125C9.51504 10.3125 9.19365 10.2814 8.88202 10.2226L8.17854 11.014C8.11258 11.0882 8.03164 11.1476 7.94106 11.1883C7.85048 11.229 7.75231 11.25 7.65302 11.25H6.5625V12.4219C6.5625 12.8102 6.2477 13.125 5.85938 13.125H4.6875V14.2969C4.6875 14.6852 4.3727 15 3.98438 15H0.703125C0.314795 15 0 14.6852 0 14.2969V12.01C0 11.8235 0.0740918 11.6447 0.205928 11.5128L4.94622 6.7725C4.77855 6.26408 4.6875 5.72083 4.6875 5.15625C4.6875 2.30854 6.99601 2.92972e-05 9.84372 2.79861e-10C12.6998 -2.92966e-05 15 2.30013 15 5.15628ZM9.84375 3.75C9.84375 4.52666 10.4733 5.15625 11.25 5.15625C12.0267 5.15625 12.6562 4.52666 12.6562 3.75C12.6562 2.97334 12.0267 2.34375 11.25 2.34375C10.4733 2.34375 9.84375 2.97334 9.84375 3.75Z" fill="#5C6ED1" fill-opacity="0.5"/>
</svg>

