<svg width="20" height="21" viewBox="0 0 20 21" fill="none" xmlns="http://www.w3.org/2000/svg">
<path d="M19.9999 2.22223H7.77771V3.70371H19.9999V2.22223Z" fill="black"/>
<path d="M0 2.96296C0 3.54898 0.173775 4.12184 0.499349 4.6091C0.824924 5.09635 1.28768 5.47612 1.82909 5.70038C2.3705 5.92464 2.96625 5.98332 3.54101 5.86899C4.11577 5.75467 4.64372 5.47247 5.05809 5.05809C5.47247 4.64372 5.75467 4.11577 5.86899 3.54101C5.98332 2.96625 5.92464 2.3705 5.70038 1.82909C5.47612 1.28768 5.09635 0.824924 4.6091 0.499349C4.12184 0.173775 3.54898 0 2.96296 0C2.17741 0.000882262 1.42428 0.313334 0.868806 0.868806C0.313334 1.42428 0.000882262 2.17741 0 2.96296ZM2.96296 1.48148C3.25597 1.48148 3.5424 1.56837 3.78603 1.73116C4.02966 1.89394 4.21954 2.12532 4.33167 2.39602C4.4438 2.66673 4.47314 2.96461 4.41598 3.25199C4.35882 3.53937 4.21772 3.80334 4.01053 4.01053C3.80334 4.21772 3.53937 4.35882 3.25199 4.41598C2.96461 4.47314 2.66673 4.4438 2.39602 4.33167C2.12532 4.21954 1.89394 4.02966 1.73116 3.78603C1.56837 3.5424 1.48148 3.25597 1.48148 2.96296C1.48192 2.57019 1.63815 2.19362 1.91588 1.91588C2.19362 1.63815 2.57019 1.48192 2.96296 1.48148Z" fill="black"/>
<path d="M19.9999 9.62964H7.77771V11.1111H19.9999V9.62964Z" fill="black"/>
<path d="M2.96296 13.3333C3.54898 13.3333 4.12184 13.1596 4.6091 12.834C5.09635 12.5084 5.47612 12.0457 5.70038 11.5043C5.92464 10.9628 5.98332 10.3671 5.86899 9.79233C5.75467 9.21757 5.47247 8.68962 5.05809 8.27524C4.64372 7.86087 4.11577 7.57867 3.54101 7.46434C2.96625 7.35002 2.3705 7.40869 1.82909 7.63295C1.28768 7.85721 0.824924 8.23698 0.499349 8.72424C0.173775 9.2115 0 9.78436 0 10.3704C0.000882262 11.1559 0.313334 11.9091 0.868806 12.4645C1.42428 13.02 2.17741 13.3325 2.96296 13.3333ZM2.96296 8.88889C3.25597 8.88889 3.5424 8.97578 3.78603 9.13857C4.02966 9.30135 4.21954 9.53273 4.33167 9.80344C4.4438 10.0741 4.47314 10.372 4.41598 10.6594C4.35882 10.9468 4.21772 11.2108 4.01053 11.4179C3.80334 11.6251 3.53937 11.7662 3.25199 11.8234C2.96461 11.8806 2.66673 11.8512 2.39602 11.7391C2.12532 11.627 1.89394 11.4371 1.73116 11.1934C1.56837 10.9498 1.48148 10.6634 1.48148 10.3704C1.48192 9.9776 1.63815 9.60103 1.91588 9.3233C2.19362 9.04556 2.57019 8.88933 2.96296 8.88889Z" fill="black"/>
<path d="M19.9999 17.037H7.77771V18.5185H19.9999V17.037Z" fill="black"/>
<path d="M2.96296 20.7407C3.54898 20.7407 4.12184 20.5669 4.6091 20.2413C5.09635 19.9158 5.47612 19.453 5.70038 18.9116C5.92464 18.3702 5.98332 17.7744 5.86899 17.1997C5.75467 16.6249 5.47247 16.097 5.05809 15.6826C4.64372 15.2682 4.11577 14.986 3.54101 14.8717C2.96625 14.7574 2.3705 14.816 1.82909 15.0403C1.28768 15.2646 0.824924 15.6443 0.499349 16.1316C0.173775 16.6188 0 17.1917 0 17.7777C0.000882262 18.5633 0.313334 19.3164 0.868806 19.8719C1.42428 20.4274 2.17741 20.7398 2.96296 20.7407ZM2.96296 16.2962C3.25597 16.2962 3.5424 16.3831 3.78603 16.5459C4.02966 16.7087 4.21954 16.9401 4.33167 17.2108C4.4438 17.4815 4.47314 17.7794 4.41598 18.0667C4.35882 18.3541 4.21772 18.6181 4.01053 18.8253C3.80334 19.0325 3.53937 19.1736 3.25199 19.2307C2.96461 19.2879 2.66673 19.2586 2.39602 19.1464C2.12532 19.0343 1.89394 18.8444 1.73116 18.6008C1.56837 18.3572 1.48148 18.0707 1.48148 17.7777C1.48192 17.3849 1.63815 17.0084 1.91588 16.7306C2.19362 16.4529 2.57019 16.2967 2.96296 16.2962Z" fill="black"/>
</svg>

