<svg width="35" height="23" viewBox="0 0 35 23" fill="none" xmlns="http://www.w3.org/2000/svg">
<path d="M10.7836 0.289C10.8863 0.289 10.9926 0.318333 11.1026 0.377C11.22 0.428333 11.308 0.498 11.3666 0.586L14.0396 4.7L13.4896 4.678L16.2286 0.586C16.368 0.388 16.5476 0.289 16.7676 0.289C16.9436 0.289 17.1013 0.351333 17.2406 0.476C17.38 0.600666 17.4496 0.761999 17.4496 0.96V7.329C17.4496 7.51967 17.3873 7.681 17.2626 7.813C17.138 7.93767 16.973 8 16.7676 8C16.5623 8 16.3936 7.93767 16.2616 7.813C16.137 7.681 16.0746 7.51967 16.0746 7.329V2.148L16.5036 2.247L14.2596 5.668C14.1936 5.74867 14.1093 5.81833 14.0066 5.877C13.9113 5.93567 13.8123 5.96133 13.7096 5.954C13.6143 5.96133 13.5153 5.93567 13.4126 5.877C13.3173 5.81833 13.2366 5.74867 13.1706 5.668L11.0696 2.346L11.3556 1.763V7.329C11.3556 7.51967 11.297 7.681 11.1796 7.813C11.0623 7.93767 10.9083 8 10.7176 8C10.5343 8 10.384 7.93767 10.2666 7.813C10.1493 7.681 10.0906 7.51967 10.0906 7.329V0.96C10.0906 0.776666 10.1566 0.619 10.2886 0.487C10.428 0.355 10.593 0.289 10.7836 0.289ZM23.3603 2.115C23.551 2.115 23.7087 2.181 23.8333 2.313C23.958 2.43767 24.0203 2.59533 24.0203 2.786V7.461C24.0203 8.13567 23.892 8.671 23.6353 9.067C23.386 9.47033 23.0487 9.76 22.6233 9.936C22.198 10.112 21.7213 10.2 21.1933 10.2C20.9587 10.2 20.7093 10.1817 20.4453 10.145C20.1813 10.1083 19.965 10.0533 19.7963 9.98C19.5763 9.88467 19.4223 9.76367 19.3343 9.617C19.2537 9.47767 19.239 9.32733 19.2903 9.166C19.3563 8.95333 19.4627 8.80667 19.6093 8.726C19.756 8.65267 19.91 8.64533 20.0713 8.704C20.1887 8.74067 20.3427 8.79567 20.5333 8.869C20.724 8.94967 20.944 8.99 21.1933 8.99C21.5307 8.99 21.8093 8.94233 22.0293 8.847C22.2567 8.759 22.4253 8.605 22.5353 8.385C22.6527 8.17233 22.7113 7.879 22.7113 7.505V6.768L22.9423 7.032C22.8177 7.274 22.66 7.47567 22.4693 7.637C22.286 7.791 22.066 7.90833 21.8093 7.989C21.5527 8.06967 21.2593 8.11 20.9293 8.11C20.5407 8.11 20.1997 8.022 19.9063 7.846C19.6203 7.66267 19.3967 7.41333 19.2353 7.098C19.074 6.77533 18.9933 6.40867 18.9933 5.998V2.786C18.9933 2.59533 19.0557 2.43767 19.1803 2.313C19.305 2.181 19.4627 2.115 19.6533 2.115C19.844 2.115 20.0017 2.181 20.1263 2.313C20.251 2.43767 20.3133 2.59533 20.3133 2.786V5.602C20.3133 6.07867 20.416 6.416 20.6213 6.614C20.834 6.80467 21.1273 6.9 21.5013 6.9C21.758 6.9 21.9743 6.85233 22.1503 6.757C22.3263 6.65433 22.462 6.50767 22.5573 6.317C22.6527 6.119 22.7003 5.88067 22.7003 5.602V2.786C22.7003 2.59533 22.7627 2.43767 22.8873 2.313C23.012 2.181 23.1697 2.115 23.3603 2.115ZM0.835844 14.3H4.52084C4.71151 14.3 4.86918 14.3623 4.99384 14.487C5.12584 14.6043 5.19184 14.7583 5.19184 14.949C5.19184 15.1323 5.12584 15.2827 4.99384 15.4C4.86918 15.51 4.71151 15.565 4.52084 15.565H1.44084L1.53984 15.378V17.523L1.45184 17.435H4.02584C4.21651 17.435 4.37418 17.4973 4.49884 17.622C4.63084 17.7393 4.69684 17.8933 4.69684 18.084C4.69684 18.2673 4.63084 18.4177 4.49884 18.535C4.37418 18.645 4.21651 18.7 4.02584 18.7H1.48484L1.53984 18.612V20.834L1.45184 20.735H4.52084C4.71151 20.735 4.86918 20.801 4.99384 20.933C5.12584 21.0577 5.19184 21.2043 5.19184 21.373C5.19184 21.5563 5.12584 21.7067 4.99384 21.824C4.86918 21.9413 4.71151 22 4.52084 22H0.835844C0.645177 22 0.483844 21.9377 0.351844 21.813C0.227177 21.681 0.164844 21.5197 0.164844 21.329V14.971C0.164844 14.7803 0.227177 14.6227 0.351844 14.498C0.483844 14.366 0.645177 14.3 0.835844 14.3ZM6.45263 16.115C6.59197 16.115 6.7203 16.1517 6.83763 16.225C6.95497 16.291 7.04297 16.3937 7.10163 16.533L8.71863 20.229L8.47663 20.339L10.1266 16.544C10.2513 16.2507 10.4456 16.1113 10.7096 16.126C10.893 16.126 11.0396 16.1847 11.1496 16.302C11.267 16.412 11.3256 16.5513 11.3256 16.72C11.3256 16.7713 11.3146 16.8263 11.2926 16.885C11.278 16.9437 11.2596 16.9987 11.2376 17.05L9.18063 21.582C9.0633 21.846 8.8763 21.9853 8.61963 22C8.4803 22.022 8.34463 21.9963 8.21263 21.923C8.08797 21.8497 7.99263 21.736 7.92663 21.582L5.88063 17.05C5.86597 17.0133 5.84763 16.9657 5.82563 16.907C5.81097 16.8483 5.80363 16.7787 5.80363 16.698C5.80363 16.566 5.8623 16.4377 5.97963 16.313C6.09697 16.181 6.25463 16.115 6.45263 16.115ZM15.0837 22.11C14.4603 22.11 13.9177 21.9817 13.4557 21.725C13.001 21.461 12.649 21.1053 12.3997 20.658C12.1577 20.2107 12.0367 19.7047 12.0367 19.14C12.0367 18.48 12.1687 17.919 12.4327 17.457C12.704 16.9877 13.056 16.6283 13.4887 16.379C13.9213 16.1297 14.3797 16.005 14.8637 16.005C15.2377 16.005 15.5897 16.082 15.9197 16.236C16.257 16.39 16.554 16.6027 16.8107 16.874C17.0673 17.138 17.269 17.446 17.4157 17.798C17.5697 18.15 17.6467 18.524 17.6467 18.92C17.6393 19.096 17.5697 19.239 17.4377 19.349C17.3057 19.459 17.1517 19.514 16.9757 19.514H12.7737L12.4437 18.414H16.4807L16.2387 18.634V18.337C16.224 18.1243 16.147 17.9337 16.0077 17.765C15.8757 17.5963 15.707 17.4643 15.5017 17.369C15.3037 17.2663 15.091 17.215 14.8637 17.215C14.6437 17.215 14.4383 17.2443 14.2477 17.303C14.057 17.3617 13.892 17.4607 13.7527 17.6C13.6133 17.7393 13.5033 17.9263 13.4227 18.161C13.342 18.3957 13.3017 18.6927 13.3017 19.052C13.3017 19.448 13.3823 19.7853 13.5437 20.064C13.7123 20.3353 13.925 20.5443 14.1817 20.691C14.4457 20.8303 14.7243 20.9 15.0177 20.9C15.289 20.9 15.5053 20.878 15.6667 20.834C15.828 20.79 15.9563 20.7387 16.0517 20.68C16.1543 20.614 16.246 20.559 16.3267 20.515C16.4587 20.449 16.5833 20.416 16.7007 20.416C16.862 20.416 16.994 20.471 17.0967 20.581C17.2067 20.691 17.2617 20.8193 17.2617 20.966C17.2617 21.164 17.159 21.3437 16.9537 21.505C16.763 21.6663 16.4953 21.8093 16.1507 21.934C15.806 22.0513 15.4503 22.11 15.0837 22.11ZM21.946 16.005C22.4886 16.005 22.8993 16.1187 23.178 16.346C23.464 16.5733 23.6583 16.8777 23.761 17.259C23.871 17.633 23.926 18.051 23.926 18.513V21.329C23.926 21.5197 23.8636 21.681 23.739 21.813C23.6143 21.9377 23.4566 22 23.266 22C23.0753 22 22.9176 21.9377 22.793 21.813C22.6683 21.681 22.606 21.5197 22.606 21.329V18.513C22.606 18.271 22.573 18.0547 22.507 17.864C22.4483 17.666 22.3383 17.5083 22.177 17.391C22.0156 17.2737 21.7846 17.215 21.484 17.215C21.1906 17.215 20.9413 17.2737 20.736 17.391C20.538 17.5083 20.384 17.666 20.274 17.864C20.1713 18.0547 20.12 18.271 20.12 18.513V21.329C20.12 21.5197 20.0576 21.681 19.933 21.813C19.8083 21.9377 19.6506 22 19.46 22C19.2693 22 19.1116 21.9377 18.987 21.813C18.8623 21.681 18.8 21.5197 18.8 21.329V16.786C18.8 16.5953 18.8623 16.4377 18.987 16.313C19.1116 16.181 19.2693 16.115 19.46 16.115C19.6506 16.115 19.8083 16.181 19.933 16.313C20.0576 16.4377 20.12 16.5953 20.12 16.786V17.259L19.955 17.226C20.021 17.1013 20.1163 16.9693 20.241 16.83C20.3656 16.6833 20.5123 16.5477 20.681 16.423C20.8496 16.2983 21.0403 16.1993 21.253 16.126C21.4656 16.0453 21.6966 16.005 21.946 16.005ZM25.4187 16.225H28.0257C28.2017 16.225 28.3484 16.2837 28.4657 16.401C28.583 16.5183 28.6417 16.665 28.6417 16.841C28.6417 17.0097 28.583 17.1527 28.4657 17.27C28.3484 17.38 28.2017 17.435 28.0257 17.435H25.4187C25.2427 17.435 25.096 17.3763 24.9787 17.259C24.8614 17.1417 24.8027 16.995 24.8027 16.819C24.8027 16.6503 24.8614 16.511 24.9787 16.401C25.096 16.2837 25.2427 16.225 25.4187 16.225ZM26.5957 14.85C26.7864 14.85 26.9404 14.916 27.0577 15.048C27.1824 15.1727 27.2447 15.3303 27.2447 15.521V20.416C27.2447 20.5187 27.263 20.603 27.2997 20.669C27.3437 20.735 27.3987 20.7827 27.4647 20.812C27.538 20.8413 27.615 20.856 27.6957 20.856C27.7837 20.856 27.8644 20.8413 27.9377 20.812C28.011 20.7753 28.0954 20.757 28.1907 20.757C28.2934 20.757 28.385 20.8047 28.4657 20.9C28.5537 20.9953 28.5977 21.1273 28.5977 21.296C28.5977 21.5013 28.484 21.67 28.2567 21.802C28.0367 21.934 27.7984 22 27.5417 22C27.3877 22 27.2154 21.989 27.0247 21.967C26.8414 21.9377 26.6654 21.8753 26.4967 21.78C26.3354 21.6773 26.1997 21.5233 26.0897 21.318C25.9797 21.1127 25.9247 20.8303 25.9247 20.471V15.521C25.9247 15.3303 25.987 15.1727 26.1117 15.048C26.2437 14.916 26.405 14.85 26.5957 14.85ZM29.7275 21.087C29.6542 20.9843 29.6212 20.8523 29.6285 20.691C29.6358 20.5297 29.7312 20.3903 29.9145 20.273C30.0318 20.1997 30.1565 20.1703 30.2885 20.185C30.4205 20.1923 30.5488 20.2583 30.6735 20.383C30.8862 20.5957 31.1098 20.7607 31.3445 20.878C31.5792 20.9953 31.8725 21.054 32.2245 21.054C32.3345 21.0467 32.4555 21.032 32.5875 21.01C32.7195 20.9807 32.8332 20.922 32.9285 20.834C33.0312 20.7387 33.0825 20.5957 33.0825 20.405C33.0825 20.2437 33.0275 20.1153 32.9175 20.02C32.8075 19.9247 32.6608 19.844 32.4775 19.778C32.3015 19.712 32.1035 19.6497 31.8835 19.591C31.6562 19.525 31.4215 19.4517 31.1795 19.371C30.9448 19.2903 30.7285 19.1877 30.5305 19.063C30.3325 18.931 30.1712 18.7587 30.0465 18.546C29.9218 18.3333 29.8595 18.0657 29.8595 17.743C29.8595 17.3763 29.9622 17.0647 30.1675 16.808C30.3728 16.5513 30.6368 16.3533 30.9595 16.214C31.2895 16.0747 31.6342 16.005 31.9935 16.005C32.2208 16.005 32.4592 16.0343 32.7085 16.093C32.9578 16.1443 33.1962 16.2323 33.4235 16.357C33.6508 16.4743 33.8415 16.632 33.9955 16.83C34.0762 16.94 34.1238 17.072 34.1385 17.226C34.1532 17.38 34.0835 17.5193 33.9295 17.644C33.8195 17.732 33.6912 17.7723 33.5445 17.765C33.3978 17.7503 33.2768 17.699 33.1815 17.611C33.0568 17.4497 32.8882 17.3213 32.6755 17.226C32.4702 17.1307 32.2318 17.083 31.9605 17.083C31.8505 17.083 31.7295 17.0977 31.5975 17.127C31.4728 17.149 31.3628 17.204 31.2675 17.292C31.1722 17.3727 31.1245 17.5047 31.1245 17.688C31.1245 17.8567 31.1795 17.9923 31.2895 18.095C31.3995 18.1903 31.5462 18.271 31.7295 18.337C31.9202 18.3957 32.1218 18.4543 32.3345 18.513C32.5545 18.5717 32.7782 18.6413 33.0055 18.722C33.2328 18.8027 33.4418 18.909 33.6325 19.041C33.8232 19.173 33.9772 19.3453 34.0945 19.558C34.2118 19.7633 34.2705 20.0273 34.2705 20.35C34.2705 20.724 34.1605 21.043 33.9405 21.307C33.7205 21.571 33.4455 21.7727 33.1155 21.912C32.7855 22.044 32.4482 22.11 32.1035 22.11C31.6708 22.11 31.2382 22.0367 30.8055 21.89C30.3728 21.736 30.0135 21.4683 29.7275 21.087Z" fill="black"/>
</svg>
