<svg width="40" height="40" viewBox="0 0 40 40" fill="none" xmlns="http://www.w3.org/2000/svg">
<rect width="40" height="40" rx="15" fill="#212832"/>
<path d="M15.5961 10C15.7561 10 15.8861 10.0533 15.9861 10.16C16.0861 10.2667 16.1361 10.4 16.1361 10.56V16.39C16.1361 16.5633 16.0761 16.71 15.9561 16.83C15.8428 16.9433 15.6995 17 15.5261 17C15.4395 17 15.3495 16.9867 15.2561 16.96C15.1695 16.9267 15.1028 16.8833 15.0561 16.83L11.1261 11.84L11.3861 11.68V16.44C11.3861 16.6 11.3328 16.7333 11.2261 16.84C11.1261 16.9467 10.9928 17 10.8261 17C10.6661 17 10.5361 16.9467 10.4361 16.84C10.3361 16.7333 10.2861 16.6 10.2861 16.44V10.61C10.2861 10.4367 10.3428 10.2933 10.4561 10.18C10.5761 10.06 10.7228 10 10.8961 10C10.9895 10 11.0861 10.02 11.1861 10.06C11.2861 10.0933 11.3595 10.1467 11.4061 10.22L15.2161 15.08L15.0461 15.2V10.56C15.0461 10.4 15.0961 10.2667 15.1961 10.16C15.2961 10.0533 15.4295 10 15.5961 10ZM20.0596 17.1C19.493 17.1 18.9996 16.9833 18.5796 16.75C18.1663 16.51 17.8463 16.1867 17.6196 15.78C17.3996 15.3733 17.2896 14.9133 17.2896 14.4C17.2896 13.8 17.4096 13.29 17.6496 12.87C17.8963 12.4433 18.2163 12.1167 18.6096 11.89C19.003 11.6633 19.4196 11.55 19.8596 11.55C20.1996 11.55 20.5196 11.62 20.8196 11.76C21.1263 11.9 21.3963 12.0933 21.6296 12.34C21.863 12.58 22.0463 12.86 22.1796 13.18C22.3196 13.5 22.3896 13.84 22.3896 14.2C22.383 14.36 22.3196 14.49 22.1996 14.59C22.0796 14.69 21.9396 14.74 21.7796 14.74H17.9596L17.6596 13.74H21.3296L21.1096 13.94V13.67C21.0963 13.4767 21.0263 13.3033 20.8996 13.15C20.7796 12.9967 20.6263 12.8767 20.4396 12.79C20.2596 12.6967 20.0663 12.65 19.8596 12.65C19.6596 12.65 19.473 12.6767 19.2996 12.73C19.1263 12.7833 18.9763 12.8733 18.8496 13C18.723 13.1267 18.623 13.2967 18.5496 13.51C18.4763 13.7233 18.4396 13.9933 18.4396 14.32C18.4396 14.68 18.513 14.9867 18.6596 15.24C18.813 15.4867 19.0063 15.6767 19.2396 15.81C19.4796 15.9367 19.733 16 19.9996 16C20.2463 16 20.443 15.98 20.5896 15.94C20.7363 15.9 20.853 15.8533 20.9396 15.8C21.033 15.74 21.1163 15.69 21.1896 15.65C21.3096 15.59 21.423 15.56 21.5296 15.56C21.6763 15.56 21.7963 15.61 21.8896 15.71C21.9896 15.81 22.0396 15.9267 22.0396 16.06C22.0396 16.24 21.9463 16.4033 21.7596 16.55C21.5863 16.6967 21.343 16.8267 21.0296 16.94C20.7163 17.0467 20.393 17.1 20.0596 17.1ZM29.5981 11.65C29.7514 11.65 29.8848 11.71 29.9981 11.83C30.1114 11.9433 30.1681 12.09 30.1681 12.27C30.1681 12.3167 30.1648 12.36 30.1581 12.4C30.1514 12.4333 30.1414 12.4667 30.1281 12.5L28.5981 16.62C28.5514 16.7533 28.4681 16.8567 28.3481 16.93C28.2281 16.9967 28.1014 17.02 27.9681 17C27.7414 16.9867 27.5714 16.86 27.4581 16.62L26.4681 13.77L26.7281 13.78L25.7981 16.62C25.6848 16.86 25.5148 16.9867 25.2881 17C25.1614 17.02 25.0348 16.9967 24.9081 16.93C24.7881 16.8567 24.7048 16.7533 24.6581 16.62L23.1281 12.5C23.1014 12.4267 23.0881 12.35 23.0881 12.27C23.0881 12.11 23.1414 11.9667 23.2481 11.84C23.3548 11.7133 23.5014 11.65 23.6881 11.65C23.8148 11.65 23.9281 11.68 24.0281 11.74C24.1281 11.8 24.1981 11.8967 24.2381 12.03L25.4481 15.31L25.1981 15.29L26.1081 12.82C26.2148 12.5733 26.3981 12.45 26.6581 12.45C26.8048 12.45 26.9148 12.4833 26.9881 12.55C27.0681 12.61 27.1314 12.7 27.1781 12.82L28.0881 15.29L27.7881 15.33L29.0181 12.03C29.0981 11.7767 29.2914 11.65 29.5981 11.65ZM7.81508 23H11.1651C11.3384 23 11.4817 23.0567 11.5951 23.17C11.7151 23.2767 11.7751 23.4167 11.7751 23.59C11.7751 23.7567 11.7151 23.8933 11.5951 24C11.4817 24.1 11.3384 24.15 11.1651 24.15H8.36508L8.45508 23.98V25.93L8.37508 25.85H10.7151C10.8884 25.85 11.0317 25.9067 11.1451 26.02C11.2651 26.1267 11.3251 26.2667 11.3251 26.44C11.3251 26.6067 11.2651 26.7433 11.1451 26.85C11.0317 26.95 10.8884 27 10.7151 27H8.40508L8.45508 26.92V28.94L8.37508 28.85H11.1651C11.3384 28.85 11.4817 28.91 11.5951 29.03C11.7151 29.1433 11.7751 29.2767 11.7751 29.43C11.7751 29.5967 11.7151 29.7333 11.5951 29.84C11.4817 29.9467 11.3384 30 11.1651 30H7.81508C7.64174 30 7.49508 29.9433 7.37508 29.83C7.26174 29.71 7.20508 29.5633 7.20508 29.39V23.61C7.20508 23.4367 7.26174 23.2933 7.37508 23.18C7.49508 23.06 7.64174 23 7.81508 23ZM12.9213 24.65C13.0479 24.65 13.1646 24.6833 13.2713 24.75C13.3779 24.81 13.4579 24.9033 13.5113 25.03L14.9813 28.39L14.7613 28.49L16.2613 25.04C16.3746 24.7733 16.5513 24.6467 16.7913 24.66C16.9579 24.66 17.0913 24.7133 17.1913 24.82C17.2979 24.92 17.3513 25.0467 17.3513 25.2C17.3513 25.2467 17.3413 25.2967 17.3213 25.35C17.3079 25.4033 17.2913 25.4533 17.2713 25.5L15.4013 29.62C15.2946 29.86 15.1246 29.9867 14.8913 30C14.7646 30.02 14.6413 29.9967 14.5213 29.93C14.4079 29.8633 14.3213 29.76 14.2613 29.62L12.4013 25.5C12.3879 25.4667 12.3713 25.4233 12.3513 25.37C12.3379 25.3167 12.3313 25.2533 12.3313 25.18C12.3313 25.06 12.3846 24.9433 12.4913 24.83C12.5979 24.71 12.7413 24.65 12.9213 24.65ZM20.7677 30.1C20.201 30.1 19.7077 29.9833 19.2877 29.75C18.8743 29.51 18.5543 29.1867 18.3277 28.78C18.1077 28.3733 17.9977 27.9133 17.9977 27.4C17.9977 26.8 18.1177 26.29 18.3577 25.87C18.6043 25.4433 18.9243 25.1167 19.3177 24.89C19.711 24.6633 20.1277 24.55 20.5677 24.55C20.9077 24.55 21.2277 24.62 21.5277 24.76C21.8343 24.9 22.1043 25.0933 22.3377 25.34C22.571 25.58 22.7543 25.86 22.8877 26.18C23.0277 26.5 23.0977 26.84 23.0977 27.2C23.091 27.36 23.0277 27.49 22.9077 27.59C22.7877 27.69 22.6477 27.74 22.4877 27.74H18.6677L18.3677 26.74H22.0377L21.8177 26.94V26.67C21.8043 26.4767 21.7343 26.3033 21.6077 26.15C21.4877 25.9967 21.3343 25.8767 21.1477 25.79C20.9677 25.6967 20.7743 25.65 20.5677 25.65C20.3677 25.65 20.181 25.6767 20.0077 25.73C19.8343 25.7833 19.6843 25.8733 19.5577 26C19.431 26.1267 19.331 26.2967 19.2577 26.51C19.1843 26.7233 19.1477 26.9933 19.1477 27.32C19.1477 27.68 19.221 27.9867 19.3677 28.24C19.521 28.4867 19.7143 28.6767 19.9477 28.81C20.1877 28.9367 20.441 29 20.7077 29C20.9543 29 21.151 28.98 21.2977 28.94C21.4443 28.9 21.561 28.8533 21.6477 28.8C21.741 28.74 21.8243 28.69 21.8977 28.65C22.0177 28.59 22.131 28.56 22.2377 28.56C22.3843 28.56 22.5043 28.61 22.5977 28.71C22.6977 28.81 22.7477 28.9267 22.7477 29.06C22.7477 29.24 22.6543 29.4033 22.4677 29.55C22.2943 29.6967 22.051 29.8267 21.7377 29.94C21.4243 30.0467 21.101 30.1 20.7677 30.1ZM27.0061 24.55C27.4994 24.55 27.8728 24.6533 28.1261 24.86C28.3861 25.0667 28.5628 25.3433 28.6561 25.69C28.7561 26.03 28.8061 26.41 28.8061 26.83V29.39C28.8061 29.5633 28.7494 29.71 28.6361 29.83C28.5228 29.9433 28.3794 30 28.2061 30C28.0328 30 27.8894 29.9433 27.7761 29.83C27.6628 29.71 27.6061 29.5633 27.6061 29.39V26.83C27.6061 26.61 27.5761 26.4133 27.5161 26.24C27.4628 26.06 27.3628 25.9167 27.2161 25.81C27.0694 25.7033 26.8594 25.65 26.5861 25.65C26.3194 25.65 26.0928 25.7033 25.9061 25.81C25.7261 25.9167 25.5861 26.06 25.4861 26.24C25.3928 26.4133 25.3461 26.61 25.3461 26.83V29.39C25.3461 29.5633 25.2894 29.71 25.1761 29.83C25.0628 29.9433 24.9194 30 24.7461 30C24.5728 30 24.4294 29.9433 24.3161 29.83C24.2028 29.71 24.1461 29.5633 24.1461 29.39V25.26C24.1461 25.0867 24.2028 24.9433 24.3161 24.83C24.4294 24.71 24.5728 24.65 24.7461 24.65C24.9194 24.65 25.0628 24.71 25.1761 24.83C25.2894 24.9433 25.3461 25.0867 25.3461 25.26V25.69L25.1961 25.66C25.2561 25.5467 25.3428 25.4267 25.4561 25.3C25.5694 25.1667 25.7028 25.0433 25.8561 24.93C26.0094 24.8167 26.1828 24.7267 26.3761 24.66C26.5694 24.5867 26.7794 24.55 27.0061 24.55ZM30.1631 24.75H32.5331C32.6931 24.75 32.8265 24.8033 32.9331 24.91C33.0398 25.0167 33.0931 25.15 33.0931 25.31C33.0931 25.4633 33.0398 25.5933 32.9331 25.7C32.8265 25.8 32.6931 25.85 32.5331 25.85H30.1631C30.0031 25.85 29.8698 25.7967 29.7631 25.69C29.6565 25.5833 29.6031 25.45 29.6031 25.29C29.6031 25.1367 29.6565 25.01 29.7631 24.91C29.8698 24.8033 30.0031 24.75 30.1631 24.75ZM31.2331 23.5C31.4065 23.5 31.5465 23.56 31.6531 23.68C31.7665 23.7933 31.8231 23.9367 31.8231 24.11V28.56C31.8231 28.6533 31.8398 28.73 31.8731 28.79C31.9131 28.85 31.9631 28.8933 32.0231 28.92C32.0898 28.9467 32.1598 28.96 32.2331 28.96C32.3131 28.96 32.3865 28.9467 32.4531 28.92C32.5198 28.8867 32.5965 28.87 32.6831 28.87C32.7765 28.87 32.8598 28.9133 32.9331 29C33.0131 29.0867 33.0531 29.2067 33.0531 29.36C33.0531 29.5467 32.9498 29.7 32.7431 29.82C32.5431 29.94 32.3265 30 32.0931 30C31.9531 30 31.7965 29.99 31.6231 29.97C31.4565 29.9433 31.2965 29.8867 31.1431 29.8C30.9965 29.7067 30.8731 29.5667 30.7731 29.38C30.6731 29.1933 30.6231 28.9367 30.6231 28.61V24.11C30.6231 23.9367 30.6798 23.7933 30.7931 23.68C30.9131 23.56 31.0598 23.5 31.2331 23.5Z" fill="white"/>
</svg>
