<svg width="35" height="35" viewBox="0 0 35 35" fill="none" xmlns="http://www.w3.org/2000/svg">
<rect width="35" height="35" rx="3" fill="#212832"/>
<rect x="9.33325" width="17.5" height="35" fill="white"/>
<rect y="26.8333" width="17.5" height="35" transform="rotate(-90 0 26.8333)" fill="white"/>
<rect x="3.5" y="31.5" width="28" height="28" transform="rotate(-90 3.5 31.5)" fill="white"/>
<path d="M5.83325 15.8333H15.8333V5.83333H5.83325V15.8333ZM9.16659 9.16666H12.4999V12.5H9.16659V9.16666ZM19.1666 5.83333V15.8333H29.1666V5.83333H19.1666ZM25.8333 12.5H22.4999V9.16666H25.8333V12.5ZM5.83325 29.1667H15.8333V19.1667H5.83325V29.1667ZM9.16659 22.5H12.4999V25.8333H9.16659V22.5ZM27.4999 19.1667H29.1666V25.8333H24.1666V24.1667H22.4999V29.1667H19.1666V19.1667H24.1666V20.8333H27.4999V19.1667ZM27.4999 27.5H29.1666V29.1667H27.4999V27.5ZM24.1666 27.5H25.8333V29.1667H24.1666V27.5Z" fill="#212832"/>
</svg>

