<svg width="224" height="111" viewBox="0 0 224 111" fill="none" xmlns="http://www.w3.org/2000/svg">
<path d="M16.6509 13L30.0509 13C30.7443 13 31.3176 13.2267 31.7709 13.68C32.2509 14.1067 32.4909 14.6667 32.4909 15.36C32.4909 16.0267 32.2509 16.5733 31.7709 17C31.3176 17.4 30.7443 17.6 30.0509 17.6L18.8509 17.6L19.2109 16.92V24.72L18.8909 24.4H28.2509C28.9443 24.4 29.5176 24.6267 29.9709 25.08C30.4509 25.5067 30.6909 26.0667 30.6909 26.76C30.6909 27.4267 30.4509 27.9733 29.9709 28.4C29.5176 28.8 28.9443 29 28.2509 29H19.0109L19.2109 28.68V36.76L18.8909 36.4H30.0509C30.7443 36.4 31.3176 36.64 31.7709 37.12C32.2509 37.5733 32.4909 38.1067 32.4909 38.72C32.4909 39.3867 32.2509 39.9333 31.7709 40.36C31.3176 40.7867 30.7443 41 30.0509 41H16.6509C15.9576 41 15.3709 40.7733 14.8909 40.32C14.4376 39.84 14.2109 39.2533 14.2109 38.56L14.2109 15.44C14.2109 14.7467 14.4376 14.1733 14.8909 13.72C15.3709 13.24 15.9576 13 16.6509 13ZM37.0756 19.6C37.5823 19.6 38.049 19.7333 38.4756 20C38.9023 20.24 39.2223 20.6133 39.4356 21.12L45.3156 34.56L44.4356 34.96L50.4356 21.16C50.889 20.0933 51.5956 19.5867 52.5556 19.64C53.2223 19.64 53.7556 19.8533 54.1556 20.28C54.5823 20.68 54.7956 21.1867 54.7956 21.8C54.7956 21.9867 54.7556 22.1867 54.6756 22.4C54.6223 22.6133 54.5556 22.8133 54.4756 23L46.9956 39.48C46.569 40.44 45.889 40.9467 44.9556 41C44.449 41.08 43.9556 40.9867 43.4756 40.72C43.0223 40.4533 42.6756 40.04 42.4356 39.48L34.9956 23C34.9423 22.8667 34.8756 22.6933 34.7956 22.48C34.7423 22.2667 34.7156 22.0133 34.7156 21.72C34.7156 21.24 34.929 20.7733 35.3556 20.32C35.7823 19.84 36.3556 19.6 37.0756 19.6ZM68.4613 41.4C66.1946 41.4 64.2213 40.9333 62.5413 40C60.8879 39.04 59.6079 37.7467 58.7013 36.12C57.8213 34.4933 57.3813 32.6533 57.3813 30.6C57.3813 28.2 57.8613 26.16 58.8213 24.48C59.8079 22.7733 61.0879 21.4667 62.6613 20.56C64.2346 19.6533 65.9013 19.2 67.6613 19.2C69.0213 19.2 70.3013 19.48 71.5013 20.04C72.7279 20.6 73.8079 21.3733 74.7413 22.36C75.6746 23.32 76.4079 24.44 76.9413 25.72C77.5013 27 77.7813 28.36 77.7813 29.8C77.7546 30.44 77.5013 30.96 77.0213 31.36C76.5413 31.76 75.9813 31.96 75.3413 31.96L60.0613 31.96L58.8613 27.96L73.5413 27.96L72.6613 28.76V27.68C72.6079 26.9067 72.3279 26.2133 71.8213 25.6C71.3413 24.9867 70.7279 24.5067 69.9813 24.16C69.2613 23.7867 68.4879 23.6 67.6613 23.6C66.8613 23.6 66.1146 23.7067 65.4213 23.92C64.7279 24.1333 64.1279 24.4933 63.6213 25C63.1146 25.5067 62.7146 26.1867 62.4213 27.04C62.1279 27.8933 61.9813 28.9733 61.9813 30.28C61.9813 31.72 62.2746 32.9467 62.8613 33.96C63.4746 34.9467 64.2479 35.7067 65.1813 36.24C66.1413 36.7467 67.1546 37 68.2213 37C69.2079 37 69.9946 36.92 70.5813 36.76C71.1679 36.6 71.6346 36.4133 71.9813 36.2C72.3546 35.96 72.6879 35.76 72.9813 35.6C73.4613 35.36 73.9146 35.24 74.3413 35.24C74.9279 35.24 75.4079 35.44 75.7812 35.84C76.1813 36.24 76.3813 36.7067 76.3813 37.24C76.3813 37.96 76.0079 38.6133 75.2613 39.2C74.5679 39.7867 73.5946 40.3067 72.3413 40.76C71.0879 41.1867 69.7946 41.4 68.4613 41.4ZM93.415 19.2C95.3883 19.2 96.8817 19.6133 97.895 20.44C98.935 21.2667 99.6417 22.3733 100.015 23.76C100.415 25.12 100.615 26.64 100.615 28.32V38.56C100.615 39.2533 100.388 39.84 99.935 40.32C99.4817 40.7733 98.9083 41 98.215 41C97.5217 41 96.9483 40.7733 96.495 40.32C96.0417 39.84 95.815 39.2533 95.815 38.56V28.32C95.815 27.44 95.695 26.6533 95.455 25.96C95.2417 25.24 94.8417 24.6667 94.255 24.24C93.6683 23.8133 92.8283 23.6 91.735 23.6C90.6683 23.6 89.7617 23.8133 89.015 24.24C88.295 24.6667 87.735 25.24 87.335 25.96C86.9617 26.6533 86.775 27.44 86.775 28.32V38.56C86.775 39.2533 86.5483 39.84 86.095 40.32C85.6417 40.7733 85.0683 41 84.375 41C83.6817 41 83.1083 40.7733 82.655 40.32C82.2017 39.84 81.975 39.2533 81.975 38.56V22.04C81.975 21.3467 82.2017 20.7733 82.655 20.32C83.1083 19.84 83.6817 19.6 84.375 19.6C85.0683 19.6 85.6417 19.84 86.095 20.32C86.5483 20.7733 86.775 21.3467 86.775 22.04V23.76L86.175 23.64C86.415 23.1867 86.7617 22.7067 87.215 22.2C87.6683 21.6667 88.2017 21.1733 88.815 20.72C89.4283 20.2667 90.1217 19.9067 90.895 19.64C91.6683 19.3467 92.5083 19.2 93.415 19.2ZM106.043 20H115.523C116.163 20 116.696 20.2133 117.123 20.64C117.55 21.0667 117.763 21.6 117.763 22.24C117.763 22.8533 117.55 23.3733 117.123 23.8C116.696 24.2 116.163 24.4 115.523 24.4H106.043C105.403 24.4 104.87 24.1867 104.443 23.76C104.016 23.3333 103.803 22.8 103.803 22.16C103.803 21.5467 104.016 21.04 104.443 20.64C104.87 20.2133 105.403 20 106.043 20ZM110.323 15C111.016 15 111.576 15.24 112.003 15.72C112.456 16.1733 112.683 16.7467 112.683 17.44V35.24C112.683 35.6133 112.75 35.92 112.883 36.16C113.043 36.4 113.243 36.5733 113.483 36.68C113.75 36.7867 114.03 36.84 114.323 36.84C114.643 36.84 114.936 36.7867 115.203 36.68C115.47 36.5467 115.776 36.48 116.123 36.48C116.496 36.48 116.83 36.6533 117.123 37C117.443 37.3467 117.603 37.8267 117.603 38.44C117.603 39.1867 117.19 39.8 116.363 40.28C115.563 40.76 114.696 41 113.763 41C113.203 41 112.576 40.96 111.883 40.88C111.216 40.7733 110.576 40.5467 109.963 40.2C109.376 39.8267 108.883 39.2667 108.483 38.52C108.083 37.7733 107.883 36.7467 107.883 35.44V17.44C107.883 16.7467 108.11 16.1733 108.563 15.72C109.043 15.24 109.63 15 110.323 15ZM121.712 37.68C121.445 37.3067 121.325 36.8267 121.352 36.24C121.378 35.6533 121.725 35.1467 122.392 34.72C122.818 34.4533 123.272 34.3467 123.752 34.4C124.232 34.4267 124.698 34.6667 125.152 35.12C125.925 35.8933 126.738 36.4933 127.592 36.92C128.445 37.3467 129.512 37.56 130.792 37.56C131.192 37.5333 131.632 37.48 132.112 37.4C132.592 37.2933 133.005 37.08 133.352 36.76C133.725 36.4133 133.912 35.8933 133.912 35.2C133.912 34.6133 133.712 34.1467 133.312 33.8C132.912 33.4533 132.378 33.16 131.712 32.92C131.072 32.68 130.352 32.4533 129.552 32.24C128.725 32 127.872 31.7333 126.992 31.44C126.138 31.1467 125.352 30.7733 124.632 30.32C123.912 29.84 123.325 29.2133 122.872 28.44C122.418 27.6667 122.192 26.6933 122.192 25.52C122.192 24.1867 122.565 23.0533 123.312 22.12C124.058 21.1867 125.018 20.4667 126.192 19.96C127.392 19.4533 128.645 19.2 129.952 19.2C130.778 19.2 131.645 19.3067 132.552 19.52C133.458 19.7067 134.325 20.0267 135.152 20.48C135.978 20.9067 136.672 21.48 137.232 22.2C137.525 22.6 137.698 23.08 137.752 23.64C137.805 24.2 137.552 24.7067 136.992 25.16C136.592 25.48 136.125 25.6267 135.592 25.6C135.058 25.5467 134.618 25.36 134.272 25.04C133.818 24.4533 133.205 23.9867 132.432 23.64C131.685 23.2933 130.818 23.12 129.832 23.12C129.432 23.12 128.992 23.1733 128.512 23.28C128.058 23.36 127.658 23.56 127.312 23.88C126.965 24.1733 126.792 24.6533 126.792 25.32C126.792 25.9333 126.992 26.4267 127.392 26.8C127.792 27.1467 128.325 27.44 128.992 27.68C129.685 27.8933 130.418 28.1067 131.192 28.32C131.992 28.5333 132.805 28.7867 133.632 29.08C134.458 29.3733 135.218 29.76 135.912 30.24C136.605 30.72 137.165 31.3467 137.592 32.12C138.018 32.8667 138.232 33.8267 138.232 35C138.232 36.36 137.832 37.52 137.032 38.48C136.232 39.44 135.232 40.1733 134.032 40.68C132.832 41.16 131.605 41.4 130.352 41.4C128.778 41.4 127.205 41.1333 125.632 40.6C124.058 40.04 122.752 39.0667 121.712 37.68Z" fill="#63A5D6"/>
<path d="M32 47C32 48.1046 32.8954 49 34 49H183C184.105 49 185 48.1046 185 47V47C185 45.8954 184.105 45 183 45H34C32.8954 45 32 45.8954 32 47V47Z" fill="#2A6794"/>
<path d="M67.7707 75.04L65.4207 80.76C65.394 80.84 65.3474 80.9033 65.2807 80.95C65.214 80.9967 65.144 81.02 65.0707 81.02C64.944 81.02 64.8507 80.9867 64.7907 80.92C64.7307 80.8533 64.7007 80.7733 64.7007 80.68C64.694 80.6333 64.7007 80.5833 64.7207 80.53L67.3107 74.23C67.344 74.1367 67.394 74.07 67.4607 74.03C67.534 73.9833 67.614 73.9633 67.7007 73.97C67.7874 73.97 67.864 73.9933 67.9307 74.04C68.004 74.0867 68.054 74.15 68.0807 74.23L70.6607 80.47C70.6807 80.5233 70.6907 80.5767 70.6907 80.63C70.6907 80.75 70.6507 80.8467 70.5707 80.92C70.4907 80.9867 70.4007 81.02 70.3007 81.02C70.2207 81.02 70.1474 80.9967 70.0807 80.95C70.014 80.9033 69.964 80.8367 69.9307 80.75L67.5507 75.03L67.7707 75.04ZM65.9207 79.13L66.2607 78.35H69.2307L69.3807 79.13H65.9207ZM74.2163 75.7C74.6696 75.7 75.0263 75.7933 75.2863 75.98C75.5463 76.1667 75.7296 76.4167 75.8363 76.73C75.9496 77.0433 76.0063 77.3933 76.0063 77.78V80.59C76.0063 80.7033 75.9663 80.8 75.8863 80.88C75.8129 80.96 75.7196 81 75.6063 81C75.4929 81 75.3963 80.96 75.3163 80.88C75.2429 80.8 75.2063 80.7033 75.2063 80.59V77.8C75.2063 77.5467 75.1663 77.32 75.0863 77.12C75.0129 76.9133 74.8863 76.75 74.7063 76.63C74.5329 76.5033 74.2929 76.44 73.9863 76.44C73.7063 76.44 73.4496 76.5033 73.2163 76.63C72.9829 76.75 72.7963 76.9133 72.6563 77.12C72.5163 77.32 72.4463 77.5467 72.4463 77.8V80.59C72.4463 80.7033 72.4063 80.8 72.3263 80.88C72.2529 80.96 72.1596 81 72.0463 81C71.9329 81 71.8363 80.96 71.7563 80.88C71.6829 80.8 71.6463 80.7033 71.6463 80.59V76.23C71.6463 76.1167 71.6829 76.0233 71.7563 75.95C71.8363 75.87 71.9329 75.83 72.0463 75.83C72.1663 75.83 72.2629 75.87 72.3363 75.95C72.4096 76.0233 72.4463 76.1167 72.4463 76.23V76.94L72.2463 77.16C72.2796 76.9867 72.3563 76.8133 72.4763 76.64C72.5963 76.46 72.7463 76.3 72.9263 76.16C73.1063 76.02 73.3063 75.91 73.5263 75.83C73.7463 75.7433 73.9763 75.7 74.2163 75.7ZM84.5 75.78C84.6133 75.78 84.7067 75.82 84.78 75.9C84.86 75.9733 84.9 76.0667 84.9 76.18V80.59C84.9 80.7033 84.86 80.8 84.78 80.88C84.7067 80.96 84.6133 81 84.5 81C84.38 81 84.2833 80.96 84.21 80.88C84.1367 80.8 84.1 80.7033 84.1 80.59V79.64L84.29 79.62C84.29 79.7667 84.24 79.9267 84.14 80.1C84.04 80.2733 83.9033 80.4367 83.73 80.59C83.5567 80.7367 83.35 80.86 83.11 80.96C82.8767 81.0533 82.6233 81.1 82.35 81.1C81.8967 81.1 81.49 80.9833 81.13 80.75C80.77 80.51 80.4833 80.1867 80.27 79.78C80.0633 79.3733 79.96 78.91 79.96 78.39C79.96 77.8633 80.0633 77.4 80.27 77C80.4833 76.5933 80.77 76.2767 81.13 76.05C81.49 75.8167 81.89 75.7 82.33 75.7C82.6167 75.7 82.8833 75.7467 83.13 75.84C83.3767 75.9333 83.59 76.06 83.77 76.22C83.9567 76.38 84.1 76.5567 84.2 76.75C84.3067 76.9433 84.36 77.1367 84.36 77.33L84.1 77.27V76.18C84.1 76.0667 84.1367 75.9733 84.21 75.9C84.2833 75.82 84.38 75.78 84.5 75.78ZM82.44 80.36C82.7733 80.36 83.0667 80.2733 83.32 80.1C83.58 79.9267 83.78 79.6933 83.92 79.4C84.0667 79.1 84.14 78.7633 84.14 78.39C84.14 78.0233 84.0667 77.6933 83.92 77.4C83.78 77.1 83.58 76.8667 83.32 76.7C83.0667 76.5267 82.7733 76.44 82.44 76.44C82.1133 76.44 81.82 76.5233 81.56 76.69C81.3067 76.8567 81.1067 77.0867 80.96 77.38C80.8133 77.6733 80.74 78.01 80.74 78.39C80.74 78.7633 80.81 79.1 80.95 79.4C81.0967 79.6933 81.2967 79.9267 81.55 80.1C81.81 80.2733 82.1067 80.36 82.44 80.36ZM88.9326 75.75C89.3859 75.75 89.7926 75.8633 90.1526 76.09C90.5126 76.3167 90.7959 76.63 91.0026 77.03C91.2159 77.43 91.3226 77.89 91.3226 78.41C91.3226 78.9233 91.2159 79.3833 91.0026 79.79C90.7959 80.19 90.5126 80.5067 90.1526 80.74C89.7992 80.9667 89.3992 81.08 88.9526 81.08C88.7059 81.08 88.4726 81.0433 88.2526 80.97C88.0392 80.89 87.8426 80.79 87.6626 80.67C87.4892 80.5433 87.3426 80.4033 87.2226 80.25C87.1026 80.09 87.0159 79.9333 86.9626 79.78L87.1826 79.64V82.59C87.1826 82.7033 87.1459 82.8 87.0726 82.88C86.9992 82.96 86.9026 83 86.7826 83C86.6692 83 86.5726 82.96 86.4926 82.88C86.4192 82.8067 86.3826 82.71 86.3826 82.59V76.2C86.3826 76.0867 86.4192 75.9933 86.4926 75.92C86.5726 75.84 86.6692 75.8 86.7826 75.8C86.9026 75.8 86.9992 75.84 87.0726 75.92C87.1459 75.9933 87.1826 76.0867 87.1826 76.2V77.09L87.0326 77.01C87.0792 76.8433 87.1592 76.6833 87.2726 76.53C87.3926 76.3767 87.5359 76.2433 87.7026 76.13C87.8759 76.01 88.0659 75.9167 88.2726 75.85C88.4859 75.7833 88.7059 75.75 88.9326 75.75ZM88.8426 76.49C88.5092 76.49 88.2126 76.5733 87.9526 76.74C87.6992 76.9067 87.4992 77.1333 87.3526 77.42C87.2126 77.7067 87.1426 78.0367 87.1426 78.41C87.1426 78.7767 87.2126 79.1067 87.3526 79.4C87.4992 79.6933 87.6992 79.9233 87.9526 80.09C88.2126 80.2567 88.5092 80.34 88.8426 80.34C89.1759 80.34 89.4692 80.2567 89.7226 80.09C89.9759 79.9233 90.1759 79.6933 90.3226 79.4C90.4692 79.1067 90.5426 78.7767 90.5426 78.41C90.5426 78.0367 90.4692 77.7067 90.3226 77.42C90.1759 77.1333 89.9759 76.9067 89.7226 76.74C89.4692 76.5733 89.1759 76.49 88.8426 76.49ZM95.0752 75.75C95.5285 75.75 95.9352 75.8633 96.2952 76.09C96.6552 76.3167 96.9385 76.63 97.1452 77.03C97.3585 77.43 97.4652 77.89 97.4652 78.41C97.4652 78.9233 97.3585 79.3833 97.1452 79.79C96.9385 80.19 96.6552 80.5067 96.2952 80.74C95.9418 80.9667 95.5418 81.08 95.0952 81.08C94.8485 81.08 94.6152 81.0433 94.3952 80.97C94.1818 80.89 93.9852 80.79 93.8052 80.67C93.6318 80.5433 93.4852 80.4033 93.3652 80.25C93.2452 80.09 93.1585 79.9333 93.1052 79.78L93.3252 79.64V82.59C93.3252 82.7033 93.2885 82.8 93.2152 82.88C93.1418 82.96 93.0452 83 92.9252 83C92.8118 83 92.7152 82.96 92.6352 82.88C92.5618 82.8067 92.5252 82.71 92.5252 82.59V76.2C92.5252 76.0867 92.5618 75.9933 92.6352 75.92C92.7152 75.84 92.8118 75.8 92.9252 75.8C93.0452 75.8 93.1418 75.84 93.2152 75.92C93.2885 75.9933 93.3252 76.0867 93.3252 76.2V77.09L93.1752 77.01C93.2218 76.8433 93.3018 76.6833 93.4152 76.53C93.5352 76.3767 93.6785 76.2433 93.8452 76.13C94.0185 76.01 94.2085 75.9167 94.4152 75.85C94.6285 75.7833 94.8485 75.75 95.0752 75.75ZM94.9852 76.49C94.6518 76.49 94.3552 76.5733 94.0952 76.74C93.8418 76.9067 93.6418 77.1333 93.4952 77.42C93.3552 77.7067 93.2852 78.0367 93.2852 78.41C93.2852 78.7767 93.3552 79.1067 93.4952 79.4C93.6418 79.6933 93.8418 79.9233 94.0952 80.09C94.3552 80.2567 94.6518 80.34 94.9852 80.34C95.3185 80.34 95.6118 80.2567 95.8652 80.09C96.1185 79.9233 96.3185 79.6933 96.4652 79.4C96.6118 79.1067 96.6852 78.7767 96.6852 78.41C96.6852 78.0367 96.6118 77.7067 96.4652 77.42C96.3185 77.1333 96.1185 76.9067 95.8652 76.74C95.6118 76.5733 95.3185 76.49 94.9852 76.49ZM99.5477 80.59C99.5477 80.7033 99.5077 80.8 99.4277 80.88C99.3477 80.96 99.2511 81 99.1377 81C99.0244 81 98.9311 80.96 98.8577 80.88C98.7844 80.8 98.7477 80.7033 98.7477 80.59V74C98.7477 73.8867 98.7844 73.7933 98.8577 73.72C98.9377 73.64 99.0344 73.6 99.1477 73.6C99.2677 73.6 99.3644 73.64 99.4377 73.72C99.5111 73.7933 99.5477 73.8867 99.5477 74V80.59ZM101.869 80.59C101.869 80.7033 101.829 80.8 101.749 80.88C101.676 80.96 101.583 81 101.469 81C101.349 81 101.253 80.96 101.179 80.88C101.106 80.8 101.069 80.7033 101.069 80.59V76.15C101.069 76.0367 101.106 75.9433 101.179 75.87C101.259 75.79 101.356 75.75 101.469 75.75C101.583 75.75 101.676 75.79 101.749 75.87C101.829 75.9433 101.869 76.0367 101.869 76.15V80.59ZM101.469 75.08C101.303 75.08 101.179 75.0467 101.099 74.98C101.019 74.9133 100.979 74.81 100.979 74.67V74.53C100.979 74.39 101.023 74.2867 101.109 74.22C101.196 74.1533 101.319 74.12 101.479 74.12C101.639 74.12 101.759 74.1533 101.839 74.22C101.919 74.2867 101.959 74.39 101.959 74.53V74.67C101.959 74.81 101.916 74.9133 101.829 74.98C101.749 75.0467 101.629 75.08 101.469 75.08ZM105.606 75.7C105.946 75.7 106.253 75.7367 106.526 75.81C106.8 75.8833 107.016 75.9833 107.176 76.11C107.336 76.2367 107.416 76.38 107.416 76.54C107.416 76.6267 107.386 76.71 107.326 76.79C107.266 76.87 107.186 76.91 107.086 76.91C106.993 76.91 106.916 76.8933 106.856 76.86C106.803 76.8267 106.75 76.7833 106.696 76.73C106.65 76.6767 106.583 76.63 106.496 76.59C106.416 76.5433 106.3 76.5067 106.146 76.48C105.993 76.4533 105.84 76.44 105.686 76.44C105.32 76.44 104.996 76.5267 104.716 76.7C104.443 76.8733 104.226 77.1067 104.066 77.4C103.906 77.6933 103.826 78.0267 103.826 78.4C103.826 78.7733 103.903 79.1067 104.056 79.4C104.21 79.6933 104.423 79.9267 104.696 80.1C104.97 80.2733 105.286 80.36 105.646 80.36C105.88 80.36 106.066 80.34 106.206 80.3C106.346 80.26 106.463 80.2133 106.556 80.16C106.676 80.0933 106.766 80.0267 106.826 79.96C106.893 79.8933 106.98 79.86 107.086 79.86C107.2 79.86 107.286 79.8967 107.346 79.97C107.413 80.0433 107.446 80.1333 107.446 80.24C107.446 80.36 107.363 80.4867 107.196 80.62C107.03 80.7533 106.803 80.8667 106.516 80.96C106.236 81.0533 105.916 81.1 105.556 81.1C105.05 81.1 104.606 80.9833 104.226 80.75C103.846 80.51 103.55 80.1867 103.336 79.78C103.13 79.3667 103.026 78.9067 103.026 78.4C103.026 77.8933 103.133 77.4367 103.346 77.03C103.566 76.6233 103.87 76.3 104.256 76.06C104.643 75.82 105.093 75.7 105.606 75.7ZM112.752 75.78C112.865 75.78 112.959 75.82 113.032 75.9C113.112 75.9733 113.152 76.0667 113.152 76.18V80.59C113.152 80.7033 113.112 80.8 113.032 80.88C112.959 80.96 112.865 81 112.752 81C112.632 81 112.535 80.96 112.462 80.88C112.389 80.8 112.352 80.7033 112.352 80.59V79.64L112.542 79.62C112.542 79.7667 112.492 79.9267 112.392 80.1C112.292 80.2733 112.155 80.4367 111.982 80.59C111.809 80.7367 111.602 80.86 111.362 80.96C111.129 81.0533 110.875 81.1 110.602 81.1C110.149 81.1 109.742 80.9833 109.382 80.75C109.022 80.51 108.735 80.1867 108.522 79.78C108.315 79.3733 108.212 78.91 108.212 78.39C108.212 77.8633 108.315 77.4 108.522 77C108.735 76.5933 109.022 76.2767 109.382 76.05C109.742 75.8167 110.142 75.7 110.582 75.7C110.869 75.7 111.135 75.7467 111.382 75.84C111.629 75.9333 111.842 76.06 112.022 76.22C112.209 76.38 112.352 76.5567 112.452 76.75C112.559 76.9433 112.612 77.1367 112.612 77.33L112.352 77.27V76.18C112.352 76.0667 112.389 75.9733 112.462 75.9C112.535 75.82 112.632 75.78 112.752 75.78ZM110.692 80.36C111.025 80.36 111.319 80.2733 111.572 80.1C111.832 79.9267 112.032 79.6933 112.172 79.4C112.319 79.1 112.392 78.7633 112.392 78.39C112.392 78.0233 112.319 77.6933 112.172 77.4C112.032 77.1 111.832 76.8667 111.572 76.7C111.319 76.5267 111.025 76.44 110.692 76.44C110.365 76.44 110.072 76.5233 109.812 76.69C109.559 76.8567 109.359 77.0867 109.212 77.38C109.065 77.6733 108.992 78.01 108.992 78.39C108.992 78.7633 109.062 79.1 109.202 79.4C109.349 79.6933 109.549 79.9267 109.802 80.1C110.062 80.2733 110.359 80.36 110.692 80.36ZM114.435 75.86H116.785C116.891 75.86 116.978 75.8967 117.045 75.97C117.118 76.0433 117.155 76.13 117.155 76.23C117.155 76.3367 117.118 76.4267 117.045 76.5C116.978 76.5667 116.891 76.6 116.785 76.6H114.435C114.335 76.6 114.248 76.5633 114.175 76.49C114.101 76.4167 114.065 76.3267 114.065 76.22C114.065 76.12 114.101 76.0367 114.175 75.97C114.248 75.8967 114.335 75.86 114.435 75.86ZM115.485 74.5C115.598 74.5 115.691 74.54 115.765 74.62C115.838 74.6933 115.875 74.7867 115.875 74.9V79.73C115.875 79.89 115.898 80.01 115.945 80.09C115.991 80.17 116.051 80.2267 116.125 80.26C116.205 80.2867 116.281 80.3 116.355 80.3C116.421 80.3 116.478 80.29 116.525 80.27C116.578 80.2433 116.638 80.23 116.705 80.23C116.771 80.23 116.831 80.2633 116.885 80.33C116.945 80.39 116.975 80.47 116.975 80.57C116.975 80.69 116.905 80.7933 116.765 80.88C116.625 80.96 116.468 81 116.295 81C116.201 81 116.085 80.9933 115.945 80.98C115.811 80.9667 115.678 80.9233 115.545 80.85C115.411 80.7767 115.298 80.6567 115.205 80.49C115.118 80.3167 115.075 80.0767 115.075 79.77V74.9C115.075 74.7867 115.115 74.6933 115.195 74.62C115.275 74.54 115.371 74.5 115.485 74.5ZM119.037 80.59C119.037 80.7033 118.997 80.8 118.917 80.88C118.844 80.96 118.751 81 118.637 81C118.517 81 118.421 80.96 118.347 80.88C118.274 80.8 118.237 80.7033 118.237 80.59V76.15C118.237 76.0367 118.274 75.9433 118.347 75.87C118.427 75.79 118.524 75.75 118.637 75.75C118.751 75.75 118.844 75.79 118.917 75.87C118.997 75.9433 119.037 76.0367 119.037 76.15V80.59ZM118.637 75.08C118.471 75.08 118.347 75.0467 118.267 74.98C118.187 74.9133 118.147 74.81 118.147 74.67V74.53C118.147 74.39 118.191 74.2867 118.277 74.22C118.364 74.1533 118.487 74.12 118.647 74.12C118.807 74.12 118.927 74.1533 119.007 74.22C119.087 74.2867 119.127 74.39 119.127 74.53V74.67C119.127 74.81 119.084 74.9133 118.997 74.98C118.917 75.0467 118.797 75.08 118.637 75.08ZM125.384 78.4C125.384 78.92 125.268 79.3833 125.034 79.79C124.808 80.1967 124.498 80.5167 124.104 80.75C123.718 80.9833 123.281 81.1 122.794 81.1C122.308 81.1 121.868 80.9833 121.474 80.75C121.081 80.5167 120.768 80.1967 120.534 79.79C120.308 79.3833 120.194 78.92 120.194 78.4C120.194 77.88 120.308 77.4167 120.534 77.01C120.768 76.6033 121.081 76.2833 121.474 76.05C121.868 75.8167 122.308 75.7 122.794 75.7C123.281 75.7 123.718 75.8167 124.104 76.05C124.498 76.2833 124.808 76.6033 125.034 77.01C125.268 77.4167 125.384 77.88 125.384 78.4ZM124.584 78.4C124.584 78.0133 124.504 77.6733 124.344 77.38C124.191 77.0867 123.978 76.8567 123.704 76.69C123.438 76.5233 123.134 76.44 122.794 76.44C122.454 76.44 122.148 76.5233 121.874 76.69C121.608 76.8567 121.394 77.0867 121.234 77.38C121.074 77.6733 120.994 78.0133 120.994 78.4C120.994 78.78 121.074 79.1167 121.234 79.41C121.394 79.7033 121.608 79.9367 121.874 80.11C122.148 80.2767 122.454 80.36 122.794 80.36C123.134 80.36 123.438 80.2767 123.704 80.11C123.978 79.9367 124.191 79.7033 124.344 79.41C124.504 79.1167 124.584 78.78 124.584 78.4ZM129.158 75.7C129.611 75.7 129.968 75.7933 130.228 75.98C130.488 76.1667 130.671 76.4167 130.778 76.73C130.891 77.0433 130.948 77.3933 130.948 77.78V80.59C130.948 80.7033 130.908 80.8 130.828 80.88C130.754 80.96 130.661 81 130.548 81C130.434 81 130.338 80.96 130.258 80.88C130.184 80.8 130.148 80.7033 130.148 80.59V77.8C130.148 77.5467 130.108 77.32 130.028 77.12C129.954 76.9133 129.828 76.75 129.648 76.63C129.474 76.5033 129.234 76.44 128.928 76.44C128.648 76.44 128.391 76.5033 128.158 76.63C127.924 76.75 127.738 76.9133 127.598 77.12C127.458 77.32 127.388 77.5467 127.388 77.8V80.59C127.388 80.7033 127.348 80.8 127.268 80.88C127.194 80.96 127.101 81 126.988 81C126.874 81 126.778 80.96 126.698 80.88C126.624 80.8 126.588 80.7033 126.588 80.59V76.23C126.588 76.1167 126.624 76.0233 126.698 75.95C126.778 75.87 126.874 75.83 126.988 75.83C127.108 75.83 127.204 75.87 127.278 75.95C127.351 76.0233 127.388 76.1167 127.388 76.23V76.94L127.188 77.16C127.221 76.9867 127.298 76.8133 127.418 76.64C127.538 76.46 127.688 76.3 127.868 76.16C128.048 76.02 128.248 75.91 128.468 75.83C128.688 75.7433 128.918 75.7 129.158 75.7ZM137.341 73.62C137.455 73.62 137.571 73.6333 137.691 73.66C137.818 73.6867 137.925 73.7333 138.011 73.8C138.105 73.8667 138.151 73.9567 138.151 74.07C138.151 74.1767 138.118 74.2667 138.051 74.34C137.985 74.4067 137.905 74.44 137.811 74.44C137.751 74.44 137.668 74.4233 137.561 74.39C137.455 74.35 137.345 74.33 137.231 74.33C137.078 74.33 136.951 74.3633 136.851 74.43C136.758 74.4967 136.688 74.5867 136.641 74.7C136.601 74.8067 136.581 74.9267 136.581 75.06V80.59C136.581 80.7033 136.541 80.8 136.461 80.88C136.388 80.96 136.295 81 136.181 81C136.061 81 135.965 80.96 135.891 80.88C135.818 80.8 135.781 80.7033 135.781 80.59V75.07C135.781 74.6233 135.918 74.27 136.191 74.01C136.471 73.75 136.855 73.62 137.341 73.62ZM137.621 75.91C137.728 75.91 137.818 75.9467 137.891 76.02C137.965 76.0867 138.001 76.1733 138.001 76.28C138.001 76.3867 137.965 76.4767 137.891 76.55C137.818 76.6167 137.728 76.65 137.621 76.65H135.111C135.005 76.65 134.915 76.6133 134.841 76.54C134.768 76.4667 134.731 76.38 134.731 76.28C134.731 76.1667 134.768 76.0767 134.841 76.01C134.915 75.9433 135.005 75.91 135.111 75.91H137.621ZM143.597 78.4C143.597 78.92 143.481 79.3833 143.247 79.79C143.021 80.1967 142.711 80.5167 142.317 80.75C141.931 80.9833 141.494 81.1 141.007 81.1C140.521 81.1 140.081 80.9833 139.687 80.75C139.294 80.5167 138.981 80.1967 138.747 79.79C138.521 79.3833 138.407 78.92 138.407 78.4C138.407 77.88 138.521 77.4167 138.747 77.01C138.981 76.6033 139.294 76.2833 139.687 76.05C140.081 75.8167 140.521 75.7 141.007 75.7C141.494 75.7 141.931 75.8167 142.317 76.05C142.711 76.2833 143.021 76.6033 143.247 77.01C143.481 77.4167 143.597 77.88 143.597 78.4ZM142.797 78.4C142.797 78.0133 142.717 77.6733 142.557 77.38C142.404 77.0867 142.191 76.8567 141.917 76.69C141.651 76.5233 141.347 76.44 141.007 76.44C140.667 76.44 140.361 76.5233 140.087 76.69C139.821 76.8567 139.607 77.0867 139.447 77.38C139.287 77.6733 139.207 78.0133 139.207 78.4C139.207 78.78 139.287 79.1167 139.447 79.41C139.607 79.7033 139.821 79.9367 140.087 80.11C140.361 80.2767 140.667 80.36 141.007 80.36C141.347 80.36 141.651 80.2767 141.917 80.11C142.191 79.9367 142.404 79.7033 142.557 79.41C142.717 79.1167 142.797 78.78 142.797 78.4ZM145.201 81C145.087 81 144.991 80.96 144.911 80.88C144.837 80.8 144.801 80.7033 144.801 80.59V76.23C144.801 76.1167 144.837 76.0233 144.911 75.95C144.991 75.87 145.087 75.83 145.201 75.83C145.321 75.83 145.417 75.87 145.491 75.95C145.564 76.0233 145.601 76.1167 145.601 76.23V77.55L145.481 77.34C145.521 77.1333 145.591 76.9333 145.691 76.74C145.797 76.54 145.931 76.3633 146.091 76.21C146.251 76.05 146.434 75.9267 146.641 75.84C146.847 75.7467 147.074 75.7 147.321 75.7C147.467 75.7 147.601 75.7367 147.721 75.81C147.847 75.8767 147.911 75.9733 147.911 76.1C147.911 76.24 147.874 76.3433 147.801 76.41C147.727 76.4767 147.644 76.51 147.551 76.51C147.464 76.51 147.381 76.4933 147.301 76.46C147.221 76.42 147.121 76.4 147.001 76.4C146.834 76.4 146.667 76.4467 146.501 76.54C146.341 76.6267 146.191 76.7533 146.051 76.92C145.917 77.0867 145.807 77.2767 145.721 77.49C145.641 77.6967 145.601 77.92 145.601 78.16V80.59C145.601 80.7033 145.561 80.8 145.481 80.88C145.407 80.96 145.314 81 145.201 81ZM153.958 81.1C153.425 81.1 152.958 80.9867 152.558 80.76C152.158 80.5333 151.845 80.2233 151.618 79.83C151.398 79.43 151.288 78.97 151.288 78.45C151.288 77.87 151.401 77.3767 151.628 76.97C151.861 76.5567 152.161 76.2433 152.528 76.03C152.901 75.81 153.295 75.7 153.708 75.7C154.015 75.7 154.311 75.7567 154.598 75.87C154.885 75.9833 155.138 76.15 155.358 76.37C155.578 76.5833 155.755 76.8433 155.888 77.15C156.021 77.45 156.091 77.7867 156.098 78.16C156.098 78.2667 156.058 78.3567 155.978 78.43C155.898 78.5033 155.805 78.54 155.698 78.54H151.748L151.568 77.85H155.418L155.258 77.99V77.77C155.231 77.4967 155.138 77.2633 154.978 77.07C154.825 76.87 154.635 76.7167 154.408 76.61C154.188 76.5033 153.955 76.45 153.708 76.45C153.508 76.45 153.308 76.4867 153.108 76.56C152.915 76.6267 152.738 76.74 152.578 76.9C152.425 77.0533 152.298 77.2533 152.198 77.5C152.105 77.7467 152.058 78.0433 152.058 78.39C152.058 78.7767 152.135 79.1167 152.288 79.41C152.448 79.7033 152.668 79.9367 152.948 80.11C153.228 80.2767 153.555 80.36 153.928 80.36C154.161 80.36 154.365 80.33 154.538 80.27C154.711 80.21 154.861 80.1367 154.988 80.05C155.115 79.9567 155.221 79.8633 155.308 79.77C155.395 79.71 155.478 79.68 155.558 79.68C155.658 79.68 155.738 79.7133 155.798 79.78C155.865 79.8467 155.898 79.9267 155.898 80.02C155.898 80.1333 155.845 80.2333 155.738 80.32C155.551 80.5267 155.298 80.71 154.978 80.87C154.658 81.0233 154.318 81.1 153.958 81.1ZM157.252 75.74C157.332 75.74 157.408 75.7633 157.482 75.81C157.555 75.85 157.608 75.91 157.642 75.99L159.302 79.89L159.142 79.97L160.832 76C160.905 75.82 161.028 75.7333 161.202 75.74C161.302 75.74 161.388 75.7733 161.462 75.84C161.535 75.9067 161.572 75.99 161.572 76.09C161.572 76.13 161.565 76.17 161.552 76.21C161.545 76.2433 161.535 76.2733 161.522 76.3L159.592 80.74C159.518 80.9067 159.402 80.9933 159.242 81C159.155 81.0067 159.072 80.99 158.992 80.95C158.918 80.9033 158.865 80.8333 158.832 80.74L156.902 76.31C156.888 76.2833 156.875 76.2533 156.862 76.22C156.855 76.1867 156.852 76.1467 156.852 76.1C156.852 76.0133 156.885 75.9333 156.952 75.86C157.025 75.78 157.125 75.74 157.252 75.74ZM164.993 81.1C164.46 81.1 163.993 80.9867 163.593 80.76C163.193 80.5333 162.88 80.2233 162.653 79.83C162.433 79.43 162.323 78.97 162.323 78.45C162.323 77.87 162.437 77.3767 162.663 76.97C162.897 76.5567 163.197 76.2433 163.563 76.03C163.937 75.81 164.33 75.7 164.743 75.7C165.05 75.7 165.347 75.7567 165.633 75.87C165.92 75.9833 166.173 76.15 166.393 76.37C166.613 76.5833 166.79 76.8433 166.923 77.15C167.057 77.45 167.127 77.7867 167.133 78.16C167.133 78.2667 167.093 78.3567 167.013 78.43C166.933 78.5033 166.84 78.54 166.733 78.54H162.783L162.603 77.85H166.453L166.293 77.99V77.77C166.267 77.4967 166.173 77.2633 166.013 77.07C165.86 76.87 165.67 76.7167 165.443 76.61C165.223 76.5033 164.99 76.45 164.743 76.45C164.543 76.45 164.343 76.4867 164.143 76.56C163.95 76.6267 163.773 76.74 163.613 76.9C163.46 77.0533 163.333 77.2533 163.233 77.5C163.14 77.7467 163.093 78.0433 163.093 78.39C163.093 78.7767 163.17 79.1167 163.323 79.41C163.483 79.7033 163.703 79.9367 163.983 80.11C164.263 80.2767 164.59 80.36 164.963 80.36C165.197 80.36 165.4 80.33 165.573 80.27C165.747 80.21 165.897 80.1367 166.023 80.05C166.15 79.9567 166.257 79.8633 166.343 79.77C166.43 79.71 166.513 79.68 166.593 79.68C166.693 79.68 166.773 79.7133 166.833 79.78C166.9 79.8467 166.933 79.9267 166.933 80.02C166.933 80.1333 166.88 80.2333 166.773 80.32C166.587 80.5267 166.333 80.71 166.013 80.87C165.693 81.0233 165.353 81.1 164.993 81.1ZM170.906 75.7C171.359 75.7 171.716 75.7933 171.976 75.98C172.236 76.1667 172.419 76.4167 172.526 76.73C172.639 77.0433 172.696 77.3933 172.696 77.78V80.59C172.696 80.7033 172.656 80.8 172.576 80.88C172.502 80.96 172.409 81 172.296 81C172.182 81 172.086 80.96 172.006 80.88C171.932 80.8 171.896 80.7033 171.896 80.59V77.8C171.896 77.5467 171.856 77.32 171.776 77.12C171.702 76.9133 171.576 76.75 171.396 76.63C171.222 76.5033 170.982 76.44 170.676 76.44C170.396 76.44 170.139 76.5033 169.906 76.63C169.672 76.75 169.486 76.9133 169.346 77.12C169.206 77.32 169.136 77.5467 169.136 77.8V80.59C169.136 80.7033 169.096 80.8 169.016 80.88C168.942 80.96 168.849 81 168.736 81C168.622 81 168.526 80.96 168.446 80.88C168.372 80.8 168.336 80.7033 168.336 80.59V76.23C168.336 76.1167 168.372 76.0233 168.446 75.95C168.526 75.87 168.622 75.83 168.736 75.83C168.856 75.83 168.952 75.87 169.026 75.95C169.099 76.0233 169.136 76.1167 169.136 76.23V76.94L168.936 77.16C168.969 76.9867 169.046 76.8133 169.166 76.64C169.286 76.46 169.436 76.3 169.616 76.16C169.796 76.02 169.996 75.91 170.216 75.83C170.436 75.7433 170.666 75.7 170.906 75.7ZM173.976 75.86H176.326C176.432 75.86 176.519 75.8967 176.586 75.97C176.659 76.0433 176.696 76.13 176.696 76.23C176.696 76.3367 176.659 76.4267 176.586 76.5C176.519 76.5667 176.432 76.6 176.326 76.6H173.976C173.876 76.6 173.789 76.5633 173.716 76.49C173.642 76.4167 173.606 76.3267 173.606 76.22C173.606 76.12 173.642 76.0367 173.716 75.97C173.789 75.8967 173.876 75.86 173.976 75.86ZM175.026 74.5C175.139 74.5 175.232 74.54 175.306 74.62C175.379 74.6933 175.416 74.7867 175.416 74.9V79.73C175.416 79.89 175.439 80.01 175.486 80.09C175.532 80.17 175.592 80.2267 175.666 80.26C175.746 80.2867 175.822 80.3 175.896 80.3C175.962 80.3 176.019 80.29 176.066 80.27C176.119 80.2433 176.179 80.23 176.246 80.23C176.312 80.23 176.372 80.2633 176.426 80.33C176.486 80.39 176.516 80.47 176.516 80.57C176.516 80.69 176.446 80.7933 176.306 80.88C176.166 80.96 176.009 81 175.836 81C175.742 81 175.626 80.9933 175.486 80.98C175.352 80.9667 175.219 80.9233 175.086 80.85C174.952 80.7767 174.839 80.6567 174.746 80.49C174.659 80.3167 174.616 80.0767 174.616 79.77V74.9C174.616 74.7867 174.656 74.6933 174.736 74.62C174.816 74.54 174.912 74.5 175.026 74.5ZM177.714 80.18C177.654 80.0933 177.627 80.0033 177.634 79.91C177.64 79.81 177.697 79.7233 177.804 79.65C177.87 79.6033 177.947 79.5833 178.034 79.59C178.127 79.5967 178.21 79.64 178.284 79.72C178.47 79.94 178.684 80.1167 178.924 80.25C179.164 80.3767 179.457 80.44 179.804 80.44C179.964 80.4333 180.124 80.4067 180.284 80.36C180.444 80.3133 180.577 80.2333 180.684 80.12C180.797 80 180.854 79.8433 180.854 79.65C180.854 79.4633 180.797 79.3167 180.684 79.21C180.57 79.0967 180.424 79.0067 180.244 78.94C180.064 78.8667 179.867 78.8033 179.654 78.75C179.434 78.69 179.217 78.6233 179.004 78.55C178.79 78.47 178.597 78.3733 178.424 78.26C178.257 78.14 178.12 77.9933 178.014 77.82C177.914 77.64 177.864 77.4233 177.864 77.17C177.864 76.87 177.944 76.61 178.104 76.39C178.27 76.17 178.49 76 178.764 75.88C179.044 75.76 179.347 75.7 179.674 75.7C179.86 75.7 180.054 75.7233 180.254 75.77C180.46 75.81 180.66 75.8833 180.854 75.99C181.047 76.09 181.217 76.23 181.364 76.41C181.424 76.4767 181.457 76.56 181.464 76.66C181.47 76.76 181.427 76.85 181.334 76.93C181.26 76.9833 181.177 77.0067 181.084 77C180.997 76.9933 180.924 76.96 180.864 76.9C180.724 76.7333 180.547 76.6067 180.334 76.52C180.127 76.4267 179.897 76.38 179.644 76.38C179.484 76.38 179.327 76.4033 179.174 76.45C179.02 76.4967 178.89 76.5767 178.784 76.69C178.684 76.7967 178.634 76.9467 178.634 77.14C178.64 77.32 178.7 77.4667 178.814 77.58C178.927 77.6933 179.08 77.7867 179.274 77.86C179.467 77.9267 179.68 77.9933 179.914 78.06C180.127 78.1133 180.33 78.1767 180.524 78.25C180.724 78.3167 180.904 78.4067 181.064 78.52C181.224 78.6333 181.35 78.78 181.444 78.96C181.537 79.1333 181.584 79.3533 181.584 79.62C181.584 79.9267 181.497 80.1933 181.324 80.42C181.15 80.64 180.92 80.81 180.634 80.93C180.354 81.0433 180.05 81.1 179.724 81.1C179.357 81.1 178.994 81.03 178.634 80.89C178.28 80.75 177.974 80.5133 177.714 80.18ZM119.692 88.75C120.146 88.75 120.512 88.8667 120.792 89.1C121.079 89.3267 121.269 89.65 121.362 90.07H121.212L121.282 89.89C121.362 89.7033 121.499 89.5233 121.692 89.35C121.886 89.1767 122.109 89.0333 122.362 88.92C122.616 88.8067 122.879 88.75 123.152 88.75C123.592 88.75 123.939 88.8467 124.192 89.04C124.446 89.2267 124.626 89.48 124.732 89.8C124.846 90.1133 124.902 90.4667 124.902 90.86V93.59C124.902 93.7033 124.862 93.8 124.782 93.88C124.709 93.96 124.616 94 124.502 94C124.382 94 124.286 93.96 124.212 93.88C124.139 93.8 124.102 93.7033 124.102 93.59V90.88C124.102 90.62 124.062 90.3867 123.982 90.18C123.909 89.9667 123.786 89.8 123.612 89.68C123.446 89.5533 123.216 89.49 122.922 89.49C122.649 89.49 122.399 89.5533 122.172 89.68C121.946 89.8 121.766 89.9667 121.632 90.18C121.499 90.3867 121.432 90.62 121.432 90.88V93.59C121.432 93.7033 121.396 93.8 121.322 93.88C121.249 93.96 121.152 94 121.032 94C120.919 94 120.822 93.96 120.742 93.88C120.669 93.8 120.632 93.7033 120.632 93.59V90.85C120.632 90.5967 120.596 90.37 120.522 90.17C120.456 89.9633 120.339 89.8 120.172 89.68C120.006 89.5533 119.776 89.49 119.482 89.49C119.216 89.49 118.972 89.5533 118.752 89.68C118.532 89.8 118.356 89.9633 118.222 90.17C118.089 90.37 118.022 90.5967 118.022 90.85V93.59C118.022 93.7033 117.982 93.8 117.902 93.88C117.829 93.96 117.736 94 117.622 94C117.509 94 117.412 93.96 117.332 93.88C117.259 93.8 117.222 93.7033 117.222 93.59V89.23C117.222 89.1167 117.259 89.0233 117.332 88.95C117.412 88.87 117.509 88.83 117.622 88.83C117.742 88.83 117.839 88.87 117.912 88.95C117.986 89.0233 118.022 89.1167 118.022 89.23V89.99L117.802 90.23C117.829 90.0567 117.896 89.8833 118.002 89.71C118.116 89.5367 118.259 89.3767 118.432 89.23C118.606 89.0833 118.799 88.9667 119.012 88.88C119.226 88.7933 119.452 88.75 119.692 88.75ZM130.643 88.78C130.756 88.78 130.849 88.82 130.923 88.9C131.003 88.9733 131.043 89.0667 131.043 89.18V93.59C131.043 93.7033 131.003 93.8 130.923 93.88C130.849 93.96 130.756 94 130.643 94C130.523 94 130.426 93.96 130.353 93.88C130.279 93.8 130.243 93.7033 130.243 93.59V92.64L130.433 92.62C130.433 92.7667 130.383 92.9267 130.283 93.1C130.183 93.2733 130.046 93.4367 129.873 93.59C129.699 93.7367 129.493 93.86 129.253 93.96C129.019 94.0533 128.766 94.1 128.493 94.1C128.039 94.1 127.633 93.9833 127.273 93.75C126.913 93.51 126.626 93.1867 126.413 92.78C126.206 92.3733 126.103 91.91 126.103 91.39C126.103 90.8633 126.206 90.4 126.413 90C126.626 89.5933 126.913 89.2767 127.273 89.05C127.633 88.8167 128.033 88.7 128.473 88.7C128.759 88.7 129.026 88.7467 129.273 88.84C129.519 88.9333 129.733 89.06 129.913 89.22C130.099 89.38 130.243 89.5567 130.343 89.75C130.449 89.9433 130.503 90.1367 130.503 90.33L130.243 90.27V89.18C130.243 89.0667 130.279 88.9733 130.353 88.9C130.426 88.82 130.523 88.78 130.643 88.78ZM128.583 93.36C128.916 93.36 129.209 93.2733 129.463 93.1C129.723 92.9267 129.923 92.6933 130.063 92.4C130.209 92.1 130.283 91.7633 130.283 91.39C130.283 91.0233 130.209 90.6933 130.063 90.4C129.923 90.1 129.723 89.8667 129.463 89.7C129.209 89.5267 128.916 89.44 128.583 89.44C128.256 89.44 127.963 89.5233 127.703 89.69C127.449 89.8567 127.249 90.0867 127.103 90.38C126.956 90.6733 126.883 91.01 126.883 91.39C126.883 91.7633 126.953 92.1 127.093 92.4C127.239 92.6933 127.439 92.9267 127.693 93.1C127.953 93.2733 128.249 93.36 128.583 93.36ZM135.095 88.7C135.548 88.7 135.905 88.7933 136.165 88.98C136.425 89.1667 136.608 89.4167 136.715 89.73C136.828 90.0433 136.885 90.3933 136.885 90.78V93.59C136.885 93.7033 136.845 93.8 136.765 93.88C136.692 93.96 136.598 94 136.485 94C136.372 94 136.275 93.96 136.195 93.88C136.122 93.8 136.085 93.7033 136.085 93.59V90.8C136.085 90.5467 136.045 90.32 135.965 90.12C135.892 89.9133 135.765 89.75 135.585 89.63C135.412 89.5033 135.172 89.44 134.865 89.44C134.585 89.44 134.328 89.5033 134.095 89.63C133.862 89.75 133.675 89.9133 133.535 90.12C133.395 90.32 133.325 90.5467 133.325 90.8V93.59C133.325 93.7033 133.285 93.8 133.205 93.88C133.132 93.96 133.038 94 132.925 94C132.812 94 132.715 93.96 132.635 93.88C132.562 93.8 132.525 93.7033 132.525 93.59V89.23C132.525 89.1167 132.562 89.0233 132.635 88.95C132.715 88.87 132.812 88.83 132.925 88.83C133.045 88.83 133.142 88.87 133.215 88.95C133.288 89.0233 133.325 89.1167 133.325 89.23V89.94L133.125 90.16C133.158 89.9867 133.235 89.8133 133.355 89.64C133.475 89.46 133.625 89.3 133.805 89.16C133.985 89.02 134.185 88.91 134.405 88.83C134.625 88.7433 134.855 88.7 135.095 88.7ZM142.625 88.78C142.738 88.78 142.832 88.82 142.905 88.9C142.985 88.9733 143.025 89.0667 143.025 89.18V93.59C143.025 93.7033 142.985 93.8 142.905 93.88C142.832 93.96 142.738 94 142.625 94C142.505 94 142.408 93.96 142.335 93.88C142.262 93.8 142.225 93.7033 142.225 93.59V92.64L142.415 92.62C142.415 92.7667 142.365 92.9267 142.265 93.1C142.165 93.2733 142.028 93.4367 141.855 93.59C141.682 93.7367 141.475 93.86 141.235 93.96C141.002 94.0533 140.748 94.1 140.475 94.1C140.022 94.1 139.615 93.9833 139.255 93.75C138.895 93.51 138.608 93.1867 138.395 92.78C138.188 92.3733 138.085 91.91 138.085 91.39C138.085 90.8633 138.188 90.4 138.395 90C138.608 89.5933 138.895 89.2767 139.255 89.05C139.615 88.8167 140.015 88.7 140.455 88.7C140.742 88.7 141.008 88.7467 141.255 88.84C141.502 88.9333 141.715 89.06 141.895 89.22C142.082 89.38 142.225 89.5567 142.325 89.75C142.432 89.9433 142.485 90.1367 142.485 90.33L142.225 90.27V89.18C142.225 89.0667 142.262 88.9733 142.335 88.9C142.408 88.82 142.505 88.78 142.625 88.78ZM140.565 93.36C140.898 93.36 141.192 93.2733 141.445 93.1C141.705 92.9267 141.905 92.6933 142.045 92.4C142.192 92.1 142.265 91.7633 142.265 91.39C142.265 91.0233 142.192 90.6933 142.045 90.4C141.905 90.1 141.705 89.8667 141.445 89.7C141.192 89.5267 140.898 89.44 140.565 89.44C140.238 89.44 139.945 89.5233 139.685 89.69C139.432 89.8567 139.232 90.0867 139.085 90.38C138.938 90.6733 138.865 91.01 138.865 91.39C138.865 91.7633 138.935 92.1 139.075 92.4C139.222 92.6933 139.422 92.9267 139.675 93.1C139.935 93.2733 140.232 93.36 140.565 93.36ZM146.678 88.7C146.964 88.7 147.231 88.75 147.478 88.85C147.724 88.9433 147.938 89.0667 148.118 89.22C148.304 89.3733 148.448 89.5333 148.548 89.7C148.654 89.8667 148.708 90.0233 148.708 90.17L148.518 90.05V89.18C148.518 89.0667 148.554 88.9733 148.628 88.9C148.701 88.82 148.798 88.78 148.918 88.78C149.031 88.78 149.124 88.82 149.198 88.9C149.278 88.9733 149.318 89.0667 149.318 89.18V93.56C149.318 94.1067 149.201 94.56 148.968 94.92C148.741 95.28 148.434 95.55 148.048 95.73C147.661 95.91 147.228 96 146.748 96C146.548 96 146.328 95.9733 146.088 95.92C145.848 95.8667 145.634 95.8 145.448 95.72C145.261 95.6467 145.141 95.57 145.088 95.49C144.988 95.4233 144.924 95.3467 144.898 95.26C144.878 95.18 144.894 95.1033 144.948 95.03C145.008 94.9367 145.084 94.89 145.178 94.89C145.278 94.89 145.401 94.92 145.548 94.98C145.608 95 145.701 95.0333 145.828 95.08C145.961 95.1267 146.108 95.1667 146.268 95.2C146.434 95.24 146.598 95.26 146.758 95.26C147.324 95.26 147.758 95.11 148.058 94.81C148.364 94.5167 148.518 94.1267 148.518 93.64V92.71L148.628 92.76C148.588 92.9467 148.504 93.12 148.378 93.28C148.258 93.44 148.108 93.5833 147.928 93.71C147.754 93.83 147.561 93.9267 147.348 94C147.134 94.0667 146.918 94.1 146.698 94.1C146.231 94.1 145.811 93.9833 145.438 93.75C145.064 93.5167 144.768 93.1967 144.548 92.79C144.334 92.3833 144.228 91.92 144.228 91.4C144.228 90.8733 144.334 90.4067 144.548 90C144.768 89.5933 145.061 89.2767 145.428 89.05C145.801 88.8167 146.218 88.7 146.678 88.7ZM146.778 89.44C146.438 89.44 146.131 89.5267 145.858 89.7C145.591 89.8667 145.381 90.0967 145.228 90.39C145.081 90.6833 145.008 91.02 145.008 91.4C145.008 91.7667 145.081 92.1 145.228 92.4C145.381 92.6933 145.591 92.9267 145.858 93.1C146.131 93.2733 146.438 93.36 146.778 93.36C147.124 93.36 147.431 93.2767 147.698 93.11C147.964 92.9367 148.174 92.7033 148.328 92.41C148.481 92.1167 148.558 91.78 148.558 91.4C148.558 91.0133 148.481 90.6733 148.328 90.38C148.174 90.0867 147.964 89.8567 147.698 89.69C147.431 89.5233 147.124 89.44 146.778 89.44ZM152.991 94.1C152.458 94.1 151.991 93.9867 151.591 93.76C151.191 93.5333 150.878 93.2233 150.651 92.83C150.431 92.43 150.321 91.97 150.321 91.45C150.321 90.87 150.435 90.3767 150.661 89.97C150.895 89.5567 151.195 89.2433 151.561 89.03C151.935 88.81 152.328 88.7 152.741 88.7C153.048 88.7 153.345 88.7567 153.631 88.87C153.918 88.9833 154.171 89.15 154.391 89.37C154.611 89.5833 154.788 89.8433 154.921 90.15C155.055 90.45 155.125 90.7867 155.131 91.16C155.131 91.2667 155.091 91.3567 155.011 91.43C154.931 91.5033 154.838 91.54 154.731 91.54H150.781L150.601 90.85H154.451L154.291 90.99V90.77C154.265 90.4967 154.171 90.2633 154.011 90.07C153.858 89.87 153.668 89.7167 153.441 89.61C153.221 89.5033 152.988 89.45 152.741 89.45C152.541 89.45 152.341 89.4867 152.141 89.56C151.948 89.6267 151.771 89.74 151.611 89.9C151.458 90.0533 151.331 90.2533 151.231 90.5C151.138 90.7467 151.091 91.0433 151.091 91.39C151.091 91.7767 151.168 92.1167 151.321 92.41C151.481 92.7033 151.701 92.9367 151.981 93.11C152.261 93.2767 152.588 93.36 152.961 93.36C153.195 93.36 153.398 93.33 153.571 93.27C153.745 93.21 153.895 93.1367 154.021 93.05C154.148 92.9567 154.255 92.8633 154.341 92.77C154.428 92.71 154.511 92.68 154.591 92.68C154.691 92.68 154.771 92.7133 154.831 92.78C154.898 92.8467 154.931 92.9267 154.931 93.02C154.931 93.1333 154.878 93.2333 154.771 93.32C154.585 93.5267 154.331 93.71 154.011 93.87C153.691 94.0233 153.351 94.1 152.991 94.1ZM158.804 88.75C159.257 88.75 159.624 88.8667 159.904 89.1C160.19 89.3267 160.38 89.65 160.474 90.07H160.324L160.394 89.89C160.474 89.7033 160.61 89.5233 160.804 89.35C160.997 89.1767 161.22 89.0333 161.474 88.92C161.727 88.8067 161.99 88.75 162.264 88.75C162.704 88.75 163.05 88.8467 163.304 89.04C163.557 89.2267 163.737 89.48 163.844 89.8C163.957 90.1133 164.014 90.4667 164.014 90.86V93.59C164.014 93.7033 163.974 93.8 163.894 93.88C163.82 93.96 163.727 94 163.614 94C163.494 94 163.397 93.96 163.324 93.88C163.25 93.8 163.214 93.7033 163.214 93.59V90.88C163.214 90.62 163.174 90.3867 163.094 90.18C163.02 89.9667 162.897 89.8 162.724 89.68C162.557 89.5533 162.327 89.49 162.034 89.49C161.76 89.49 161.51 89.5533 161.284 89.68C161.057 89.8 160.877 89.9667 160.744 90.18C160.61 90.3867 160.544 90.62 160.544 90.88V93.59C160.544 93.7033 160.507 93.8 160.434 93.88C160.36 93.96 160.264 94 160.144 94C160.03 94 159.934 93.96 159.854 93.88C159.78 93.8 159.744 93.7033 159.744 93.59V90.85C159.744 90.5967 159.707 90.37 159.634 90.17C159.567 89.9633 159.45 89.8 159.284 89.68C159.117 89.5533 158.887 89.49 158.594 89.49C158.327 89.49 158.084 89.5533 157.864 89.68C157.644 89.8 157.467 89.9633 157.334 90.17C157.2 90.37 157.134 90.5967 157.134 90.85V93.59C157.134 93.7033 157.094 93.8 157.014 93.88C156.94 93.96 156.847 94 156.734 94C156.62 94 156.524 93.96 156.444 93.88C156.37 93.8 156.334 93.7033 156.334 93.59V89.23C156.334 89.1167 156.37 89.0233 156.444 88.95C156.524 88.87 156.62 88.83 156.734 88.83C156.854 88.83 156.95 88.87 157.024 88.95C157.097 89.0233 157.134 89.1167 157.134 89.23V89.99L156.914 90.23C156.94 90.0567 157.007 89.8833 157.114 89.71C157.227 89.5367 157.37 89.3767 157.544 89.23C157.717 89.0833 157.91 88.9667 158.124 88.88C158.337 88.7933 158.564 88.75 158.804 88.75ZM167.884 94.1C167.351 94.1 166.884 93.9867 166.484 93.76C166.084 93.5333 165.771 93.2233 165.544 92.83C165.324 92.43 165.214 91.97 165.214 91.45C165.214 90.87 165.327 90.3767 165.554 89.97C165.787 89.5567 166.087 89.2433 166.454 89.03C166.827 88.81 167.221 88.7 167.634 88.7C167.941 88.7 168.237 88.7567 168.524 88.87C168.811 88.9833 169.064 89.15 169.284 89.37C169.504 89.5833 169.681 89.8433 169.814 90.15C169.947 90.45 170.017 90.7867 170.024 91.16C170.024 91.2667 169.984 91.3567 169.904 91.43C169.824 91.5033 169.731 91.54 169.624 91.54H165.674L165.494 90.85H169.344L169.184 90.99V90.77C169.157 90.4967 169.064 90.2633 168.904 90.07C168.751 89.87 168.561 89.7167 168.334 89.61C168.114 89.5033 167.881 89.45 167.634 89.45C167.434 89.45 167.234 89.4867 167.034 89.56C166.841 89.6267 166.664 89.74 166.504 89.9C166.351 90.0533 166.224 90.2533 166.124 90.5C166.031 90.7467 165.984 91.0433 165.984 91.39C165.984 91.7767 166.061 92.1167 166.214 92.41C166.374 92.7033 166.594 92.9367 166.874 93.11C167.154 93.2767 167.481 93.36 167.854 93.36C168.087 93.36 168.291 93.33 168.464 93.27C168.637 93.21 168.787 93.1367 168.914 93.05C169.041 92.9567 169.147 92.8633 169.234 92.77C169.321 92.71 169.404 92.68 169.484 92.68C169.584 92.68 169.664 92.7133 169.724 92.78C169.791 92.8467 169.824 92.9267 169.824 93.02C169.824 93.1333 169.771 93.2333 169.664 93.32C169.477 93.5267 169.224 93.71 168.904 93.87C168.584 94.0233 168.244 94.1 167.884 94.1ZM173.796 88.7C174.25 88.7 174.606 88.7933 174.866 88.98C175.126 89.1667 175.31 89.4167 175.416 89.73C175.53 90.0433 175.586 90.3933 175.586 90.78V93.59C175.586 93.7033 175.546 93.8 175.466 93.88C175.393 93.96 175.3 94 175.186 94C175.073 94 174.976 93.96 174.896 93.88C174.823 93.8 174.786 93.7033 174.786 93.59V90.8C174.786 90.5467 174.746 90.32 174.666 90.12C174.593 89.9133 174.466 89.75 174.286 89.63C174.113 89.5033 173.873 89.44 173.566 89.44C173.286 89.44 173.03 89.5033 172.796 89.63C172.563 89.75 172.376 89.9133 172.236 90.12C172.096 90.32 172.026 90.5467 172.026 90.8V93.59C172.026 93.7033 171.986 93.8 171.906 93.88C171.833 93.96 171.74 94 171.626 94C171.513 94 171.416 93.96 171.336 93.88C171.263 93.8 171.226 93.7033 171.226 93.59V89.23C171.226 89.1167 171.263 89.0233 171.336 88.95C171.416 88.87 171.513 88.83 171.626 88.83C171.746 88.83 171.843 88.87 171.916 88.95C171.99 89.0233 172.026 89.1167 172.026 89.23V89.94L171.826 90.16C171.86 89.9867 171.936 89.8133 172.056 89.64C172.176 89.46 172.326 89.3 172.506 89.16C172.686 89.02 172.886 88.91 173.106 88.83C173.326 88.7433 173.556 88.7 173.796 88.7ZM176.866 88.86H179.216C179.323 88.86 179.41 88.8967 179.476 88.97C179.55 89.0433 179.586 89.13 179.586 89.23C179.586 89.3367 179.55 89.4267 179.476 89.5C179.41 89.5667 179.323 89.6 179.216 89.6H176.866C176.766 89.6 176.68 89.5633 176.606 89.49C176.533 89.4167 176.496 89.3267 176.496 89.22C176.496 89.12 176.533 89.0367 176.606 88.97C176.68 88.8967 176.766 88.86 176.866 88.86ZM177.916 87.5C178.03 87.5 178.123 87.54 178.196 87.62C178.27 87.6933 178.306 87.7867 178.306 87.9V92.73C178.306 92.89 178.33 93.01 178.376 93.09C178.423 93.17 178.483 93.2267 178.556 93.26C178.636 93.2867 178.713 93.3 178.786 93.3C178.853 93.3 178.91 93.29 178.956 93.27C179.01 93.2433 179.07 93.23 179.136 93.23C179.203 93.23 179.263 93.2633 179.316 93.33C179.376 93.39 179.406 93.47 179.406 93.57C179.406 93.69 179.336 93.7933 179.196 93.88C179.056 93.96 178.9 94 178.726 94C178.633 94 178.516 93.9933 178.376 93.98C178.243 93.9667 178.11 93.9233 177.976 93.85C177.843 93.7767 177.73 93.6567 177.636 93.49C177.55 93.3167 177.506 93.0767 177.506 92.77V87.9C177.506 87.7867 177.546 87.6933 177.626 87.62C177.706 87.54 177.803 87.5 177.916 87.5ZM180.939 93.99C180.799 93.99 180.689 93.95 180.609 93.87C180.536 93.79 180.499 93.68 180.499 93.54V93.34C180.499 93.1933 180.536 93.08 180.609 93C180.689 92.92 180.799 92.88 180.939 92.88H181.019C181.166 92.88 181.276 92.92 181.349 93C181.422 93.08 181.459 93.1933 181.459 93.34V93.54C181.459 93.68 181.422 93.79 181.349 93.87C181.276 93.95 181.166 93.99 181.019 93.99H180.939Z" fill="#212832"/>
<circle cx="178.5" cy="63.5" r="3.5" fill="#D96868"/>
<circle cx="169.5" cy="63.5" r="3.5" fill="#4BAC9B"/>
<circle cx="160.5" cy="63.5" r="3.5" fill="#2A6794"/>
</svg>
