<svg width="224" height="111" viewBox="0 0 224 111" fill="none" xmlns="http://www.w3.org/2000/svg">
<path d="M5.88 41.3739C5.13333 41.3739 4.46667 41.1472 3.88 40.6939C3.29333 40.2139 3 39.6272 3 38.9339L3 15.8139C3 15.1206 3.22667 14.5472 3.68 14.0939C4.16 13.6139 4.74667 13.3739 5.44 13.3739H16.96C18.3467 13.3739 19.64 13.7472 20.84 14.4939C22.0667 15.2139 23.0533 16.2272 23.8 17.5339C24.5467 18.8139 24.92 20.2939 24.92 21.9739C24.92 22.9872 24.7067 23.9739 24.28 24.9339C23.88 25.8939 23.32 26.7606 22.6 27.5339C21.9067 28.3072 21.12 28.9072 20.24 29.3339L20.28 28.4139C21.0267 28.8139 21.64 29.2939 22.12 29.8539C22.6267 30.3872 23.0133 30.9739 23.28 31.6139C23.5733 32.2272 23.7467 32.8939 23.8 33.6139C23.9067 34.2806 23.9733 34.8672 24 35.3739C24.0533 35.8806 24.1333 36.3072 24.24 36.6539C24.3733 37.0006 24.6133 37.2672 24.96 37.4539C25.5467 37.8006 25.9067 38.3072 26.04 38.9739C26.2 39.6139 26.0533 40.1872 25.6 40.6939C25.3067 41.0406 24.9333 41.2672 24.48 41.3739C24.0267 41.4539 23.5733 41.4539 23.12 41.3739C22.6667 41.2672 22.2933 41.1339 22 40.9739C21.5467 40.7072 21.0933 40.3206 20.64 39.8139C20.1867 39.2806 19.8133 38.5739 19.52 37.6939C19.2533 36.8139 19.12 35.6806 19.12 34.2939C19.12 33.8406 19.04 33.4272 18.88 33.0539C18.72 32.6539 18.4933 32.3206 18.2 32.0539C17.9067 31.7606 17.5333 31.5472 17.08 31.4139C16.6267 31.2539 16.0933 31.1739 15.48 31.1739H7.4L8 30.2539L8 38.9339C8 39.6272 7.81333 40.2139 7.44 40.6939C7.06667 41.1472 6.54667 41.3739 5.88 41.3739ZM7.44 27.0539H16.76C17.24 27.0539 17.7067 26.8406 18.16 26.4139C18.6133 25.9606 18.9867 25.3606 19.28 24.6139C19.5733 23.8406 19.72 23.0006 19.72 22.0939C19.72 20.9206 19.4 19.9472 18.76 19.1739C18.1467 18.3739 17.48 17.9739 16.76 17.9739H7.52L8 16.6939V28.0139L7.44 27.0539ZM39.9456 41.7739C37.679 41.7739 35.7056 41.3072 34.0256 40.3739C32.3723 39.4139 31.0923 38.1206 30.1856 36.4939C29.3056 34.8672 28.8656 33.0272 28.8656 30.9739C28.8656 28.5739 29.3456 26.5339 30.3056 24.8539C31.2923 23.1472 32.5723 21.8406 34.1456 20.9339C35.719 20.0272 37.3856 19.5739 39.1456 19.5739C40.5056 19.5739 41.7856 19.8539 42.9856 20.4139C44.2123 20.9739 45.2923 21.7472 46.2256 22.7339C47.159 23.6939 47.8923 24.8139 48.4256 26.0939C48.9856 27.3739 49.2656 28.7339 49.2656 30.1739C49.239 30.8139 48.9856 31.3339 48.5056 31.7339C48.0256 32.1339 47.4656 32.3339 46.8256 32.3339H31.5456L30.3456 28.3339L45.0256 28.3339L44.1456 29.1339V28.0539C44.0923 27.2806 43.8123 26.5872 43.3056 25.9739C42.8256 25.3606 42.2123 24.8806 41.4656 24.5339C40.7456 24.1606 39.9723 23.9739 39.1456 23.9739C38.3456 23.9739 37.599 24.0806 36.9056 24.2939C36.2123 24.5072 35.6123 24.8672 35.1056 25.3739C34.599 25.8806 34.199 26.5606 33.9056 27.4139C33.6123 28.2672 33.4656 29.3472 33.4656 30.6539C33.4656 32.0939 33.759 33.3206 34.3456 34.3339C34.959 35.3206 35.7323 36.0806 36.6656 36.6139C37.6256 37.1206 38.639 37.3739 39.7056 37.3739C40.6923 37.3739 41.479 37.2939 42.0656 37.1339C42.6523 36.9739 43.119 36.7872 43.4656 36.5739C43.839 36.3339 44.1723 36.1339 44.4656 35.9739C44.9456 35.7339 45.399 35.6139 45.8256 35.6139C46.4123 35.6139 46.8923 35.8139 47.2656 36.2139C47.6656 36.6139 47.8656 37.0806 47.8656 37.6139C47.8656 38.3339 47.4923 38.9872 46.7456 39.5739C46.0523 40.1606 45.079 40.6806 43.8256 41.1339C42.5723 41.5606 41.279 41.7739 39.9456 41.7739ZM62.1441 19.5739C63.2641 19.5739 64.2907 19.7472 65.2241 20.0939C66.1574 20.4406 66.9574 20.8806 67.6241 21.4139C68.3174 21.9472 68.8507 22.4939 69.2241 23.0539C69.6241 23.5872 69.8241 24.0406 69.8241 24.4139L68.7841 24.9339V22.0139C68.7841 21.3206 69.0107 20.7472 69.4641 20.2939C69.9174 19.8139 70.4907 19.5739 71.1841 19.5739C71.8774 19.5739 72.4507 19.8006 72.9041 20.2539C73.3574 20.7072 73.5841 21.2939 73.5841 22.0139V39.8139C73.5841 42.1339 73.0774 43.9872 72.0641 45.3739C71.0774 46.7873 69.7707 47.8006 68.1441 48.4139C66.5174 49.0539 64.7707 49.3739 62.9041 49.3739C62.3707 49.3739 61.6774 49.3073 60.8241 49.1739C59.9707 49.0406 59.1574 48.8806 58.3841 48.6939C57.6107 48.5073 57.0241 48.3339 56.6241 48.1739C55.8241 47.8273 55.2641 47.3873 54.9441 46.8539C54.6507 46.3473 54.5974 45.8006 54.7841 45.2139C55.0241 44.4406 55.4107 43.9073 55.9441 43.6139C56.4774 43.3473 57.0374 43.3206 57.6241 43.5339C57.8907 43.6139 58.3307 43.7739 58.9441 44.0139C59.5574 44.2539 60.2241 44.4673 60.9441 44.6539C61.6907 44.8673 62.3441 44.9739 62.9041 44.9739C64.9041 44.9739 66.3841 44.5739 67.3441 43.7739C68.3041 42.9739 68.7841 41.8672 68.7841 40.4539V36.9739L69.2641 37.3339C69.2641 37.6806 69.0774 38.1072 68.7041 38.6139C68.3574 39.0939 67.8641 39.5739 67.2241 40.0539C66.6107 40.5339 65.8774 40.9472 65.0241 41.2939C64.1707 41.6139 63.2641 41.7739 62.3041 41.7739C60.4107 41.7739 58.7041 41.3072 57.1841 40.3739C55.6641 39.4139 54.4641 38.1072 53.5841 36.4539C52.7041 34.7739 52.2641 32.8539 52.2641 30.6939C52.2641 28.5072 52.7041 26.5872 53.5841 24.9339C54.4641 23.2539 55.6507 21.9472 57.1441 21.0139C58.6374 20.0539 60.3041 19.5739 62.1441 19.5739ZM62.9041 23.9739C61.7041 23.9739 60.6507 24.2672 59.7441 24.8539C58.8374 25.4406 58.1307 26.2406 57.6241 27.2539C57.1174 28.2672 56.8641 29.4139 56.8641 30.6939C56.8641 31.9472 57.1174 33.0806 57.6241 34.0939C58.1307 35.1072 58.8374 35.9072 59.7441 36.4939C60.6507 37.0806 61.7041 37.3739 62.9041 37.3739C64.1307 37.3739 65.1974 37.0806 66.1041 36.4939C67.0107 35.9072 67.7174 35.1072 68.2241 34.0939C68.7307 33.0806 68.9841 31.9472 68.9841 30.6939C68.9841 29.4139 68.7307 28.2672 68.2241 27.2539C67.7174 26.2406 67.0107 25.4406 66.1041 24.8539C65.1974 24.2672 64.1307 23.9739 62.9041 23.9739ZM83.2919 38.9339C83.2919 39.6272 83.0652 40.2139 82.6119 40.6939C82.1585 41.1472 81.5852 41.3739 80.8919 41.3739C80.1985 41.3739 79.6252 41.1472 79.1719 40.6939C78.7185 40.2139 78.4919 39.6272 78.4919 38.9339V22.4139C78.4919 21.7206 78.7185 21.1472 79.1719 20.6939C79.6252 20.2139 80.1985 19.9739 80.8919 19.9739C81.5852 19.9739 82.1585 20.2139 82.6119 20.6939C83.0652 21.1472 83.2919 21.7206 83.2919 22.4139V38.9339ZM80.8519 17.3739C79.9452 17.3739 79.3052 17.2272 78.9319 16.9339C78.5585 16.6406 78.3719 16.1206 78.3719 15.3739V14.6139C78.3719 13.8406 78.5719 13.3206 78.9719 13.0539C79.3985 12.7606 80.0385 12.6139 80.8919 12.6139C81.8252 12.6139 82.4785 12.7606 82.8519 13.0539C83.2252 13.3472 83.4119 13.8672 83.4119 14.6139V15.3739C83.4119 16.1472 83.2119 16.6806 82.8119 16.9739C82.4119 17.2406 81.7585 17.3739 80.8519 17.3739ZM86.985 38.0539C86.7183 37.6806 86.5983 37.2006 86.625 36.6139C86.6517 36.0272 86.9983 35.5206 87.665 35.0939C88.0917 34.8272 88.545 34.7206 89.025 34.7739C89.505 34.8006 89.9717 35.0406 90.425 35.4939C91.1983 36.2672 92.0117 36.8672 92.865 37.2939C93.7183 37.7206 94.785 37.9339 96.065 37.9339C96.465 37.9072 96.905 37.8539 97.385 37.7739C97.865 37.6672 98.2783 37.4539 98.625 37.1339C98.9983 36.7872 99.185 36.2672 99.185 35.5739C99.185 34.9872 98.985 34.5206 98.585 34.1739C98.185 33.8272 97.6517 33.5339 96.985 33.2939C96.345 33.0539 95.625 32.8272 94.825 32.6139C93.9983 32.3739 93.145 32.1072 92.265 31.8139C91.4117 31.5206 90.625 31.1472 89.905 30.6939C89.185 30.2139 88.5983 29.5872 88.145 28.8139C87.6917 28.0406 87.465 27.0672 87.465 25.8939C87.465 24.5606 87.8383 23.4272 88.585 22.4939C89.3317 21.5606 90.2917 20.8406 91.465 20.3339C92.665 19.8272 93.9183 19.5739 95.225 19.5739C96.0517 19.5739 96.9183 19.6806 97.825 19.8939C98.7317 20.0806 99.5983 20.4006 100.425 20.8539C101.252 21.2806 101.945 21.8539 102.505 22.5739C102.798 22.9739 102.972 23.4539 103.025 24.0139C103.078 24.5739 102.825 25.0806 102.265 25.5339C101.865 25.8539 101.398 26.0006 100.865 25.9739C100.332 25.9206 99.8917 25.7339 99.545 25.4139C99.0917 24.8272 98.4783 24.3606 97.705 24.0139C96.9583 23.6672 96.0917 23.4939 95.105 23.4939C94.705 23.4939 94.265 23.5472 93.785 23.6539C93.3317 23.7339 92.9317 23.9339 92.585 24.2539C92.2383 24.5472 92.065 25.0272 92.065 25.6939C92.065 26.3072 92.265 26.8006 92.665 27.1739C93.065 27.5206 93.5983 27.8139 94.265 28.0539C94.9583 28.2672 95.6917 28.4806 96.465 28.6939C97.265 28.9072 98.0783 29.1606 98.905 29.4539C99.7317 29.7472 100.492 30.1339 101.185 30.6139C101.878 31.0939 102.438 31.7206 102.865 32.4939C103.292 33.2406 103.505 34.2006 103.505 35.3739C103.505 36.7339 103.105 37.8939 102.305 38.8539C101.505 39.8139 100.505 40.5472 99.305 41.0539C98.105 41.5339 96.8783 41.7739 95.625 41.7739C94.0517 41.7739 92.4783 41.5072 90.905 40.9739C89.3317 40.4139 88.025 39.4406 86.985 38.0539ZM107.762 20.3739H117.242C117.882 20.3739 118.415 20.5872 118.842 21.0139C119.269 21.4406 119.482 21.9739 119.482 22.6139C119.482 23.2272 119.269 23.7472 118.842 24.1739C118.415 24.5739 117.882 24.7739 117.242 24.7739H107.762C107.122 24.7739 106.589 24.5606 106.162 24.1339C105.735 23.7072 105.522 23.1739 105.522 22.5339C105.522 21.9206 105.735 21.4139 106.162 21.0139C106.589 20.5872 107.122 20.3739 107.762 20.3739ZM112.042 15.3739C112.735 15.3739 113.295 15.6139 113.722 16.0939C114.175 16.5472 114.402 17.1206 114.402 17.8139V35.6139C114.402 35.9872 114.469 36.2939 114.602 36.5339C114.762 36.7739 114.962 36.9472 115.202 37.0539C115.469 37.1606 115.749 37.2139 116.042 37.2139C116.362 37.2139 116.655 37.1606 116.922 37.0539C117.189 36.9206 117.495 36.8539 117.842 36.8539C118.215 36.8539 118.549 37.0272 118.842 37.3739C119.162 37.7206 119.322 38.2006 119.322 38.8139C119.322 39.5606 118.909 40.1739 118.082 40.6539C117.282 41.1339 116.415 41.3739 115.482 41.3739C114.922 41.3739 114.295 41.3339 113.602 41.2539C112.935 41.1472 112.295 40.9206 111.682 40.5739C111.095 40.2006 110.602 39.6406 110.202 38.8939C109.802 38.1472 109.602 37.1206 109.602 35.8139V17.8139C109.602 17.1206 109.829 16.5472 110.282 16.0939C110.762 15.6139 111.349 15.3739 112.042 15.3739ZM126.289 41.3739C125.596 41.3739 125.022 41.1472 124.569 40.6939C124.116 40.2139 123.889 39.6272 123.889 38.9339V22.4139C123.889 21.7206 124.116 21.1472 124.569 20.6939C125.022 20.2139 125.596 19.9739 126.289 19.9739C126.982 19.9739 127.556 20.2139 128.009 20.6939C128.462 21.1472 128.689 21.7206 128.689 22.4139V26.1739L128.409 23.4939C128.702 22.8539 129.076 22.2939 129.529 21.8139C130.009 21.3072 130.542 20.8939 131.129 20.5739C131.716 20.2272 132.342 19.9739 133.009 19.8139C133.676 19.6539 134.342 19.5739 135.009 19.5739C135.809 19.5739 136.476 19.8006 137.009 20.2539C137.569 20.7072 137.849 21.2406 137.849 21.8539C137.849 22.7339 137.622 23.3739 137.169 23.7739C136.716 24.1472 136.222 24.3339 135.689 24.3339C135.182 24.3339 134.716 24.2406 134.289 24.0539C133.889 23.8672 133.422 23.7739 132.889 23.7739C132.409 23.7739 131.916 23.8939 131.409 24.1339C130.929 24.3472 130.476 24.6939 130.049 25.1739C129.649 25.6539 129.316 26.2539 129.049 26.9739C128.809 27.6672 128.689 28.4939 128.689 29.4539V38.9339C128.689 39.6272 128.462 40.2139 128.009 40.6939C127.556 41.1472 126.982 41.3739 126.289 41.3739Z" fill="#2A6794"/>
<path d="M136.6 37.6539L127.96 57.9739C127.774 58.4806 127.48 58.8806 127.08 59.1739C126.707 59.4406 126.294 59.5739 125.84 59.5739C125.12 59.5739 124.587 59.3739 124.24 58.9739C123.894 58.5739 123.72 58.0806 123.72 57.4939C123.72 57.2539 123.76 57.0006 123.84 56.7339L133.8 32.8139C134.014 32.2806 134.334 31.8672 134.76 31.5739C135.214 31.2806 135.694 31.1606 136.2 31.2139C136.68 31.2139 137.12 31.3606 137.52 31.6539C137.947 31.9206 138.254 32.3072 138.44 32.8139L148.28 56.2539C148.414 56.6006 148.48 56.9206 148.48 57.2139C148.48 57.9339 148.24 58.5072 147.76 58.9339C147.307 59.3606 146.8 59.5739 146.24 59.5739C145.76 59.5739 145.32 59.4272 144.92 59.1339C144.547 58.8406 144.254 58.4406 144.04 57.9339L135.44 37.8939L136.6 37.6539ZM129.2 53.0939L131.4 48.4939H142.2L142.96 53.0939H129.2ZM162.547 37.5739C164.414 37.5739 166.081 38.0539 167.547 39.0139C169.041 39.9472 170.214 41.2406 171.067 42.8939C171.947 44.5472 172.387 46.4672 172.387 48.6539C172.387 50.8406 171.947 52.7739 171.067 54.4539C170.214 56.1072 169.054 57.4139 167.587 58.3739C166.147 59.3072 164.521 59.7739 162.707 59.7739C161.641 59.7739 160.641 59.6006 159.707 59.2539C158.774 58.9072 157.947 58.4672 157.227 57.9339C156.534 57.4006 155.987 56.8672 155.587 56.3339C155.214 55.7739 155.027 55.3072 155.027 54.9339L156.267 54.4139V64.9339C156.267 65.6273 156.041 66.2006 155.587 66.6539C155.134 67.1339 154.561 67.3739 153.867 67.3739C153.174 67.3739 152.601 67.1473 152.147 66.6939C151.694 66.2406 151.467 65.6539 151.467 64.9339V40.4139C151.467 39.7206 151.694 39.1472 152.147 38.6939C152.601 38.2139 153.174 37.9739 153.867 37.9739C154.561 37.9739 155.134 38.2139 155.587 38.6939C156.041 39.1472 156.267 39.7206 156.267 40.4139V42.3739L155.587 42.0139C155.587 41.6672 155.774 41.2539 156.147 40.7739C156.521 40.2672 157.027 39.7739 157.667 39.2939C158.307 38.7872 159.041 38.3739 159.867 38.0539C160.721 37.7339 161.614 37.5739 162.547 37.5739ZM161.947 41.9739C160.774 41.9739 159.747 42.2672 158.867 42.8539C157.987 43.4406 157.294 44.2406 156.787 45.2539C156.307 46.2406 156.067 47.3739 156.067 48.6539C156.067 49.9072 156.307 51.0539 156.787 52.0939C157.294 53.1072 157.987 53.9072 158.867 54.4939C159.747 55.0806 160.774 55.3739 161.947 55.3739C163.121 55.3739 164.134 55.0806 164.987 54.4939C165.867 53.9072 166.547 53.1072 167.027 52.0939C167.534 51.0539 167.787 49.9072 167.787 48.6539C167.787 47.3739 167.534 46.2406 167.027 45.2539C166.547 44.2406 165.867 43.4406 164.987 42.8539C164.134 42.2672 163.121 41.9739 161.947 41.9739ZM187.664 37.5739C189.531 37.5739 191.198 38.0539 192.664 39.0139C194.158 39.9472 195.331 41.2406 196.184 42.8939C197.064 44.5472 197.504 46.4672 197.504 48.6539C197.504 50.8406 197.064 52.7739 196.184 54.4539C195.331 56.1072 194.171 57.4139 192.704 58.3739C191.264 59.3072 189.638 59.7739 187.824 59.7739C186.758 59.7739 185.758 59.6006 184.824 59.2539C183.891 58.9072 183.064 58.4672 182.344 57.9339C181.651 57.4006 181.104 56.8672 180.704 56.3339C180.331 55.7739 180.144 55.3072 180.144 54.9339L181.384 54.4139V64.9339C181.384 65.6273 181.158 66.2006 180.704 66.6539C180.251 67.1339 179.678 67.3739 178.984 67.3739C178.291 67.3739 177.718 67.1473 177.264 66.6939C176.811 66.2406 176.584 65.6539 176.584 64.9339V40.4139C176.584 39.7206 176.811 39.1472 177.264 38.6939C177.718 38.2139 178.291 37.9739 178.984 37.9739C179.678 37.9739 180.251 38.2139 180.704 38.6939C181.158 39.1472 181.384 39.7206 181.384 40.4139V42.3739L180.704 42.0139C180.704 41.6672 180.891 41.2539 181.264 40.7739C181.638 40.2672 182.144 39.7739 182.784 39.2939C183.424 38.7872 184.158 38.3739 184.984 38.0539C185.838 37.7339 186.731 37.5739 187.664 37.5739ZM187.064 41.9739C185.891 41.9739 184.864 42.2672 183.984 42.8539C183.104 43.4406 182.411 44.2406 181.904 45.2539C181.424 46.2406 181.184 47.3739 181.184 48.6539C181.184 49.9072 181.424 51.0539 181.904 52.0939C182.411 53.1072 183.104 53.9072 183.984 54.4939C184.864 55.0806 185.891 55.3739 187.064 55.3739C188.238 55.3739 189.251 55.0806 190.104 54.4939C190.984 53.9072 191.664 53.1072 192.144 52.0939C192.651 51.0539 192.904 49.9072 192.904 48.6539C192.904 47.3739 192.651 46.2406 192.144 45.2539C191.664 44.2406 190.984 43.4406 190.104 42.8539C189.251 42.2672 188.238 41.9739 187.064 41.9739Z" fill="#63A5D6"/>
<path d="M60 46.9304C60 47.9966 60.8643 48.8609 61.9304 48.8609H219.07C220.136 48.8609 221 47.9966 221 46.9304V46.9304C221 45.8643 220.136 45 219.07 45H61.9304C60.8643 45 60 45.8643 60 46.9304V46.9304Z" fill="#2A6794"/>
<path d="M106.771 75.04L104.421 80.76C104.394 80.84 104.347 80.9033 104.281 80.95C104.214 80.9967 104.144 81.02 104.071 81.02C103.944 81.02 103.851 80.9867 103.791 80.92C103.731 80.8533 103.701 80.7733 103.701 80.68C103.694 80.6333 103.701 80.5833 103.721 80.53L106.311 74.23C106.344 74.1367 106.394 74.07 106.461 74.03C106.534 73.9833 106.614 73.9633 106.701 73.97C106.787 73.97 106.864 73.9933 106.931 74.04C107.004 74.0867 107.054 74.15 107.081 74.23L109.661 80.47C109.681 80.5233 109.691 80.5767 109.691 80.63C109.691 80.75 109.651 80.8467 109.571 80.92C109.491 80.9867 109.401 81.02 109.301 81.02C109.221 81.02 109.147 80.9967 109.081 80.95C109.014 80.9033 108.964 80.8367 108.931 80.75L106.551 75.03L106.771 75.04ZM104.921 79.13L105.261 78.35H108.231L108.381 79.13H104.921ZM113.216 75.7C113.67 75.7 114.026 75.7933 114.286 75.98C114.546 76.1667 114.73 76.4167 114.836 76.73C114.95 77.0433 115.006 77.3933 115.006 77.78V80.59C115.006 80.7033 114.966 80.8 114.886 80.88C114.813 80.96 114.72 81 114.606 81C114.493 81 114.396 80.96 114.316 80.88C114.243 80.8 114.206 80.7033 114.206 80.59V77.8C114.206 77.5467 114.166 77.32 114.086 77.12C114.013 76.9133 113.886 76.75 113.706 76.63C113.533 76.5033 113.293 76.44 112.986 76.44C112.706 76.44 112.45 76.5033 112.216 76.63C111.983 76.75 111.796 76.9133 111.656 77.12C111.516 77.32 111.446 77.5467 111.446 77.8V80.59C111.446 80.7033 111.406 80.8 111.326 80.88C111.253 80.96 111.16 81 111.046 81C110.933 81 110.836 80.96 110.756 80.88C110.683 80.8 110.646 80.7033 110.646 80.59V76.23C110.646 76.1167 110.683 76.0233 110.756 75.95C110.836 75.87 110.933 75.83 111.046 75.83C111.166 75.83 111.263 75.87 111.336 75.95C111.41 76.0233 111.446 76.1167 111.446 76.23V76.94L111.246 77.16C111.28 76.9867 111.356 76.8133 111.476 76.64C111.596 76.46 111.746 76.3 111.926 76.16C112.106 76.02 112.306 75.91 112.526 75.83C112.746 75.7433 112.976 75.7 113.216 75.7ZM123.5 75.78C123.613 75.78 123.707 75.82 123.78 75.9C123.86 75.9733 123.9 76.0667 123.9 76.18V80.59C123.9 80.7033 123.86 80.8 123.78 80.88C123.707 80.96 123.613 81 123.5 81C123.38 81 123.283 80.96 123.21 80.88C123.137 80.8 123.1 80.7033 123.1 80.59V79.64L123.29 79.62C123.29 79.7667 123.24 79.9267 123.14 80.1C123.04 80.2733 122.903 80.4367 122.73 80.59C122.557 80.7367 122.35 80.86 122.11 80.96C121.877 81.0533 121.623 81.1 121.35 81.1C120.897 81.1 120.49 80.9833 120.13 80.75C119.77 80.51 119.483 80.1867 119.27 79.78C119.063 79.3733 118.96 78.91 118.96 78.39C118.96 77.8633 119.063 77.4 119.27 77C119.483 76.5933 119.77 76.2767 120.13 76.05C120.49 75.8167 120.89 75.7 121.33 75.7C121.617 75.7 121.883 75.7467 122.13 75.84C122.377 75.9333 122.59 76.06 122.77 76.22C122.957 76.38 123.1 76.5567 123.2 76.75C123.307 76.9433 123.36 77.1367 123.36 77.33L123.1 77.27V76.18C123.1 76.0667 123.137 75.9733 123.21 75.9C123.283 75.82 123.38 75.78 123.5 75.78ZM121.44 80.36C121.773 80.36 122.067 80.2733 122.32 80.1C122.58 79.9267 122.78 79.6933 122.92 79.4C123.067 79.1 123.14 78.7633 123.14 78.39C123.14 78.0233 123.067 77.6933 122.92 77.4C122.78 77.1 122.58 76.8667 122.32 76.7C122.067 76.5267 121.773 76.44 121.44 76.44C121.113 76.44 120.82 76.5233 120.56 76.69C120.307 76.8567 120.107 77.0867 119.96 77.38C119.813 77.6733 119.74 78.01 119.74 78.39C119.74 78.7633 119.81 79.1 119.95 79.4C120.097 79.6933 120.297 79.9267 120.55 80.1C120.81 80.2733 121.107 80.36 121.44 80.36ZM127.933 75.75C128.386 75.75 128.793 75.8633 129.153 76.09C129.513 76.3167 129.796 76.63 130.003 77.03C130.216 77.43 130.323 77.89 130.323 78.41C130.323 78.9233 130.216 79.3833 130.003 79.79C129.796 80.19 129.513 80.5067 129.153 80.74C128.799 80.9667 128.399 81.08 127.953 81.08C127.706 81.08 127.473 81.0433 127.253 80.97C127.039 80.89 126.843 80.79 126.663 80.67C126.489 80.5433 126.343 80.4033 126.223 80.25C126.103 80.09 126.016 79.9333 125.963 79.78L126.183 79.64V82.59C126.183 82.7033 126.146 82.8 126.073 82.88C125.999 82.96 125.903 83 125.783 83C125.669 83 125.573 82.96 125.493 82.88C125.419 82.8067 125.383 82.71 125.383 82.59V76.2C125.383 76.0867 125.419 75.9933 125.493 75.92C125.573 75.84 125.669 75.8 125.783 75.8C125.903 75.8 125.999 75.84 126.073 75.92C126.146 75.9933 126.183 76.0867 126.183 76.2V77.09L126.033 77.01C126.079 76.8433 126.159 76.6833 126.273 76.53C126.393 76.3767 126.536 76.2433 126.703 76.13C126.876 76.01 127.066 75.9167 127.273 75.85C127.486 75.7833 127.706 75.75 127.933 75.75ZM127.843 76.49C127.509 76.49 127.213 76.5733 126.953 76.74C126.699 76.9067 126.499 77.1333 126.353 77.42C126.213 77.7067 126.143 78.0367 126.143 78.41C126.143 78.7767 126.213 79.1067 126.353 79.4C126.499 79.6933 126.699 79.9233 126.953 80.09C127.213 80.2567 127.509 80.34 127.843 80.34C128.176 80.34 128.469 80.2567 128.723 80.09C128.976 79.9233 129.176 79.6933 129.323 79.4C129.469 79.1067 129.543 78.7767 129.543 78.41C129.543 78.0367 129.469 77.7067 129.323 77.42C129.176 77.1333 128.976 76.9067 128.723 76.74C128.469 76.5733 128.176 76.49 127.843 76.49ZM134.075 75.75C134.528 75.75 134.935 75.8633 135.295 76.09C135.655 76.3167 135.938 76.63 136.145 77.03C136.358 77.43 136.465 77.89 136.465 78.41C136.465 78.9233 136.358 79.3833 136.145 79.79C135.938 80.19 135.655 80.5067 135.295 80.74C134.942 80.9667 134.542 81.08 134.095 81.08C133.848 81.08 133.615 81.0433 133.395 80.97C133.182 80.89 132.985 80.79 132.805 80.67C132.632 80.5433 132.485 80.4033 132.365 80.25C132.245 80.09 132.158 79.9333 132.105 79.78L132.325 79.64V82.59C132.325 82.7033 132.288 82.8 132.215 82.88C132.142 82.96 132.045 83 131.925 83C131.812 83 131.715 82.96 131.635 82.88C131.562 82.8067 131.525 82.71 131.525 82.59V76.2C131.525 76.0867 131.562 75.9933 131.635 75.92C131.715 75.84 131.812 75.8 131.925 75.8C132.045 75.8 132.142 75.84 132.215 75.92C132.288 75.9933 132.325 76.0867 132.325 76.2V77.09L132.175 77.01C132.222 76.8433 132.302 76.6833 132.415 76.53C132.535 76.3767 132.678 76.2433 132.845 76.13C133.018 76.01 133.208 75.9167 133.415 75.85C133.628 75.7833 133.848 75.75 134.075 75.75ZM133.985 76.49C133.652 76.49 133.355 76.5733 133.095 76.74C132.842 76.9067 132.642 77.1333 132.495 77.42C132.355 77.7067 132.285 78.0367 132.285 78.41C132.285 78.7767 132.355 79.1067 132.495 79.4C132.642 79.6933 132.842 79.9233 133.095 80.09C133.355 80.2567 133.652 80.34 133.985 80.34C134.318 80.34 134.612 80.2567 134.865 80.09C135.118 79.9233 135.318 79.6933 135.465 79.4C135.612 79.1067 135.685 78.7767 135.685 78.41C135.685 78.0367 135.612 77.7067 135.465 77.42C135.318 77.1333 135.118 76.9067 134.865 76.74C134.612 76.5733 134.318 76.49 133.985 76.49ZM138.548 80.59C138.548 80.7033 138.508 80.8 138.428 80.88C138.348 80.96 138.251 81 138.138 81C138.024 81 137.931 80.96 137.858 80.88C137.784 80.8 137.748 80.7033 137.748 80.59V74C137.748 73.8867 137.784 73.7933 137.858 73.72C137.938 73.64 138.034 73.6 138.148 73.6C138.268 73.6 138.364 73.64 138.438 73.72C138.511 73.7933 138.548 73.8867 138.548 74V80.59ZM140.869 80.59C140.869 80.7033 140.829 80.8 140.749 80.88C140.676 80.96 140.583 81 140.469 81C140.349 81 140.253 80.96 140.179 80.88C140.106 80.8 140.069 80.7033 140.069 80.59V76.15C140.069 76.0367 140.106 75.9433 140.179 75.87C140.259 75.79 140.356 75.75 140.469 75.75C140.583 75.75 140.676 75.79 140.749 75.87C140.829 75.9433 140.869 76.0367 140.869 76.15V80.59ZM140.469 75.08C140.303 75.08 140.179 75.0467 140.099 74.98C140.019 74.9133 139.979 74.81 139.979 74.67V74.53C139.979 74.39 140.023 74.2867 140.109 74.22C140.196 74.1533 140.319 74.12 140.479 74.12C140.639 74.12 140.759 74.1533 140.839 74.22C140.919 74.2867 140.959 74.39 140.959 74.53V74.67C140.959 74.81 140.916 74.9133 140.829 74.98C140.749 75.0467 140.629 75.08 140.469 75.08ZM144.606 75.7C144.946 75.7 145.253 75.7367 145.526 75.81C145.8 75.8833 146.016 75.9833 146.176 76.11C146.336 76.2367 146.416 76.38 146.416 76.54C146.416 76.6267 146.386 76.71 146.326 76.79C146.266 76.87 146.186 76.91 146.086 76.91C145.993 76.91 145.916 76.8933 145.856 76.86C145.803 76.8267 145.75 76.7833 145.696 76.73C145.65 76.6767 145.583 76.63 145.496 76.59C145.416 76.5433 145.3 76.5067 145.146 76.48C144.993 76.4533 144.84 76.44 144.686 76.44C144.32 76.44 143.996 76.5267 143.716 76.7C143.443 76.8733 143.226 77.1067 143.066 77.4C142.906 77.6933 142.826 78.0267 142.826 78.4C142.826 78.7733 142.903 79.1067 143.056 79.4C143.21 79.6933 143.423 79.9267 143.696 80.1C143.97 80.2733 144.286 80.36 144.646 80.36C144.88 80.36 145.066 80.34 145.206 80.3C145.346 80.26 145.463 80.2133 145.556 80.16C145.676 80.0933 145.766 80.0267 145.826 79.96C145.893 79.8933 145.98 79.86 146.086 79.86C146.2 79.86 146.286 79.8967 146.346 79.97C146.413 80.0433 146.446 80.1333 146.446 80.24C146.446 80.36 146.363 80.4867 146.196 80.62C146.03 80.7533 145.803 80.8667 145.516 80.96C145.236 81.0533 144.916 81.1 144.556 81.1C144.05 81.1 143.606 80.9833 143.226 80.75C142.846 80.51 142.55 80.1867 142.336 79.78C142.13 79.3667 142.026 78.9067 142.026 78.4C142.026 77.8933 142.133 77.4367 142.346 77.03C142.566 76.6233 142.87 76.3 143.256 76.06C143.643 75.82 144.093 75.7 144.606 75.7ZM151.752 75.78C151.865 75.78 151.959 75.82 152.032 75.9C152.112 75.9733 152.152 76.0667 152.152 76.18V80.59C152.152 80.7033 152.112 80.8 152.032 80.88C151.959 80.96 151.865 81 151.752 81C151.632 81 151.535 80.96 151.462 80.88C151.389 80.8 151.352 80.7033 151.352 80.59V79.64L151.542 79.62C151.542 79.7667 151.492 79.9267 151.392 80.1C151.292 80.2733 151.155 80.4367 150.982 80.59C150.809 80.7367 150.602 80.86 150.362 80.96C150.129 81.0533 149.875 81.1 149.602 81.1C149.149 81.1 148.742 80.9833 148.382 80.75C148.022 80.51 147.735 80.1867 147.522 79.78C147.315 79.3733 147.212 78.91 147.212 78.39C147.212 77.8633 147.315 77.4 147.522 77C147.735 76.5933 148.022 76.2767 148.382 76.05C148.742 75.8167 149.142 75.7 149.582 75.7C149.869 75.7 150.135 75.7467 150.382 75.84C150.629 75.9333 150.842 76.06 151.022 76.22C151.209 76.38 151.352 76.5567 151.452 76.75C151.559 76.9433 151.612 77.1367 151.612 77.33L151.352 77.27V76.18C151.352 76.0667 151.389 75.9733 151.462 75.9C151.535 75.82 151.632 75.78 151.752 75.78ZM149.692 80.36C150.025 80.36 150.319 80.2733 150.572 80.1C150.832 79.9267 151.032 79.6933 151.172 79.4C151.319 79.1 151.392 78.7633 151.392 78.39C151.392 78.0233 151.319 77.6933 151.172 77.4C151.032 77.1 150.832 76.8667 150.572 76.7C150.319 76.5267 150.025 76.44 149.692 76.44C149.365 76.44 149.072 76.5233 148.812 76.69C148.559 76.8567 148.359 77.0867 148.212 77.38C148.065 77.6733 147.992 78.01 147.992 78.39C147.992 78.7633 148.062 79.1 148.202 79.4C148.349 79.6933 148.549 79.9267 148.802 80.1C149.062 80.2733 149.359 80.36 149.692 80.36ZM153.435 75.86H155.785C155.891 75.86 155.978 75.8967 156.045 75.97C156.118 76.0433 156.155 76.13 156.155 76.23C156.155 76.3367 156.118 76.4267 156.045 76.5C155.978 76.5667 155.891 76.6 155.785 76.6H153.435C153.335 76.6 153.248 76.5633 153.175 76.49C153.101 76.4167 153.065 76.3267 153.065 76.22C153.065 76.12 153.101 76.0367 153.175 75.97C153.248 75.8967 153.335 75.86 153.435 75.86ZM154.485 74.5C154.598 74.5 154.691 74.54 154.765 74.62C154.838 74.6933 154.875 74.7867 154.875 74.9V79.73C154.875 79.89 154.898 80.01 154.945 80.09C154.991 80.17 155.051 80.2267 155.125 80.26C155.205 80.2867 155.281 80.3 155.355 80.3C155.421 80.3 155.478 80.29 155.525 80.27C155.578 80.2433 155.638 80.23 155.705 80.23C155.771 80.23 155.831 80.2633 155.885 80.33C155.945 80.39 155.975 80.47 155.975 80.57C155.975 80.69 155.905 80.7933 155.765 80.88C155.625 80.96 155.468 81 155.295 81C155.201 81 155.085 80.9933 154.945 80.98C154.811 80.9667 154.678 80.9233 154.545 80.85C154.411 80.7767 154.298 80.6567 154.205 80.49C154.118 80.3167 154.075 80.0767 154.075 79.77V74.9C154.075 74.7867 154.115 74.6933 154.195 74.62C154.275 74.54 154.371 74.5 154.485 74.5ZM158.037 80.59C158.037 80.7033 157.997 80.8 157.917 80.88C157.844 80.96 157.751 81 157.637 81C157.517 81 157.421 80.96 157.347 80.88C157.274 80.8 157.237 80.7033 157.237 80.59V76.15C157.237 76.0367 157.274 75.9433 157.347 75.87C157.427 75.79 157.524 75.75 157.637 75.75C157.751 75.75 157.844 75.79 157.917 75.87C157.997 75.9433 158.037 76.0367 158.037 76.15V80.59ZM157.637 75.08C157.471 75.08 157.347 75.0467 157.267 74.98C157.187 74.9133 157.147 74.81 157.147 74.67V74.53C157.147 74.39 157.191 74.2867 157.277 74.22C157.364 74.1533 157.487 74.12 157.647 74.12C157.807 74.12 157.927 74.1533 158.007 74.22C158.087 74.2867 158.127 74.39 158.127 74.53V74.67C158.127 74.81 158.084 74.9133 157.997 74.98C157.917 75.0467 157.797 75.08 157.637 75.08ZM164.384 78.4C164.384 78.92 164.268 79.3833 164.034 79.79C163.808 80.1967 163.498 80.5167 163.104 80.75C162.718 80.9833 162.281 81.1 161.794 81.1C161.308 81.1 160.868 80.9833 160.474 80.75C160.081 80.5167 159.768 80.1967 159.534 79.79C159.308 79.3833 159.194 78.92 159.194 78.4C159.194 77.88 159.308 77.4167 159.534 77.01C159.768 76.6033 160.081 76.2833 160.474 76.05C160.868 75.8167 161.308 75.7 161.794 75.7C162.281 75.7 162.718 75.8167 163.104 76.05C163.498 76.2833 163.808 76.6033 164.034 77.01C164.268 77.4167 164.384 77.88 164.384 78.4ZM163.584 78.4C163.584 78.0133 163.504 77.6733 163.344 77.38C163.191 77.0867 162.978 76.8567 162.704 76.69C162.438 76.5233 162.134 76.44 161.794 76.44C161.454 76.44 161.148 76.5233 160.874 76.69C160.608 76.8567 160.394 77.0867 160.234 77.38C160.074 77.6733 159.994 78.0133 159.994 78.4C159.994 78.78 160.074 79.1167 160.234 79.41C160.394 79.7033 160.608 79.9367 160.874 80.11C161.148 80.2767 161.454 80.36 161.794 80.36C162.134 80.36 162.438 80.2767 162.704 80.11C162.978 79.9367 163.191 79.7033 163.344 79.41C163.504 79.1167 163.584 78.78 163.584 78.4ZM168.158 75.7C168.611 75.7 168.968 75.7933 169.228 75.98C169.488 76.1667 169.671 76.4167 169.778 76.73C169.891 77.0433 169.948 77.3933 169.948 77.78V80.59C169.948 80.7033 169.908 80.8 169.828 80.88C169.754 80.96 169.661 81 169.548 81C169.434 81 169.338 80.96 169.258 80.88C169.184 80.8 169.148 80.7033 169.148 80.59V77.8C169.148 77.5467 169.108 77.32 169.028 77.12C168.954 76.9133 168.828 76.75 168.648 76.63C168.474 76.5033 168.234 76.44 167.928 76.44C167.648 76.44 167.391 76.5033 167.158 76.63C166.924 76.75 166.738 76.9133 166.598 77.12C166.458 77.32 166.388 77.5467 166.388 77.8V80.59C166.388 80.7033 166.348 80.8 166.268 80.88C166.194 80.96 166.101 81 165.988 81C165.874 81 165.778 80.96 165.698 80.88C165.624 80.8 165.588 80.7033 165.588 80.59V76.23C165.588 76.1167 165.624 76.0233 165.698 75.95C165.778 75.87 165.874 75.83 165.988 75.83C166.108 75.83 166.204 75.87 166.278 75.95C166.351 76.0233 166.388 76.1167 166.388 76.23V76.94L166.188 77.16C166.221 76.9867 166.298 76.8133 166.418 76.64C166.538 76.46 166.688 76.3 166.868 76.16C167.048 76.02 167.248 75.91 167.468 75.83C167.688 75.7433 167.918 75.7 168.158 75.7ZM176.341 73.62C176.455 73.62 176.571 73.6333 176.691 73.66C176.818 73.6867 176.925 73.7333 177.011 73.8C177.105 73.8667 177.151 73.9567 177.151 74.07C177.151 74.1767 177.118 74.2667 177.051 74.34C176.985 74.4067 176.905 74.44 176.811 74.44C176.751 74.44 176.668 74.4233 176.561 74.39C176.455 74.35 176.345 74.33 176.231 74.33C176.078 74.33 175.951 74.3633 175.851 74.43C175.758 74.4967 175.688 74.5867 175.641 74.7C175.601 74.8067 175.581 74.9267 175.581 75.06V80.59C175.581 80.7033 175.541 80.8 175.461 80.88C175.388 80.96 175.295 81 175.181 81C175.061 81 174.965 80.96 174.891 80.88C174.818 80.8 174.781 80.7033 174.781 80.59V75.07C174.781 74.6233 174.918 74.27 175.191 74.01C175.471 73.75 175.855 73.62 176.341 73.62ZM176.621 75.91C176.728 75.91 176.818 75.9467 176.891 76.02C176.965 76.0867 177.001 76.1733 177.001 76.28C177.001 76.3867 176.965 76.4767 176.891 76.55C176.818 76.6167 176.728 76.65 176.621 76.65H174.111C174.005 76.65 173.915 76.6133 173.841 76.54C173.768 76.4667 173.731 76.38 173.731 76.28C173.731 76.1667 173.768 76.0767 173.841 76.01C173.915 75.9433 174.005 75.91 174.111 75.91H176.621ZM182.597 78.4C182.597 78.92 182.481 79.3833 182.247 79.79C182.021 80.1967 181.711 80.5167 181.317 80.75C180.931 80.9833 180.494 81.1 180.007 81.1C179.521 81.1 179.081 80.9833 178.687 80.75C178.294 80.5167 177.981 80.1967 177.747 79.79C177.521 79.3833 177.407 78.92 177.407 78.4C177.407 77.88 177.521 77.4167 177.747 77.01C177.981 76.6033 178.294 76.2833 178.687 76.05C179.081 75.8167 179.521 75.7 180.007 75.7C180.494 75.7 180.931 75.8167 181.317 76.05C181.711 76.2833 182.021 76.6033 182.247 77.01C182.481 77.4167 182.597 77.88 182.597 78.4ZM181.797 78.4C181.797 78.0133 181.717 77.6733 181.557 77.38C181.404 77.0867 181.191 76.8567 180.917 76.69C180.651 76.5233 180.347 76.44 180.007 76.44C179.667 76.44 179.361 76.5233 179.087 76.69C178.821 76.8567 178.607 77.0867 178.447 77.38C178.287 77.6733 178.207 78.0133 178.207 78.4C178.207 78.78 178.287 79.1167 178.447 79.41C178.607 79.7033 178.821 79.9367 179.087 80.11C179.361 80.2767 179.667 80.36 180.007 80.36C180.347 80.36 180.651 80.2767 180.917 80.11C181.191 79.9367 181.404 79.7033 181.557 79.41C181.717 79.1167 181.797 78.78 181.797 78.4ZM184.201 81C184.087 81 183.991 80.96 183.911 80.88C183.837 80.8 183.801 80.7033 183.801 80.59V76.23C183.801 76.1167 183.837 76.0233 183.911 75.95C183.991 75.87 184.087 75.83 184.201 75.83C184.321 75.83 184.417 75.87 184.491 75.95C184.564 76.0233 184.601 76.1167 184.601 76.23V77.55L184.481 77.34C184.521 77.1333 184.591 76.9333 184.691 76.74C184.797 76.54 184.931 76.3633 185.091 76.21C185.251 76.05 185.434 75.9267 185.641 75.84C185.847 75.7467 186.074 75.7 186.321 75.7C186.467 75.7 186.601 75.7367 186.721 75.81C186.847 75.8767 186.911 75.9733 186.911 76.1C186.911 76.24 186.874 76.3433 186.801 76.41C186.727 76.4767 186.644 76.51 186.551 76.51C186.464 76.51 186.381 76.4933 186.301 76.46C186.221 76.42 186.121 76.4 186.001 76.4C185.834 76.4 185.667 76.4467 185.501 76.54C185.341 76.6267 185.191 76.7533 185.051 76.92C184.917 77.0867 184.807 77.2767 184.721 77.49C184.641 77.6967 184.601 77.92 184.601 78.16V80.59C184.601 80.7033 184.561 80.8 184.481 80.88C184.407 80.96 184.314 81 184.201 81ZM192.958 81.1C192.425 81.1 191.958 80.9867 191.558 80.76C191.158 80.5333 190.845 80.2233 190.618 79.83C190.398 79.43 190.288 78.97 190.288 78.45C190.288 77.87 190.401 77.3767 190.628 76.97C190.861 76.5567 191.161 76.2433 191.528 76.03C191.901 75.81 192.295 75.7 192.708 75.7C193.015 75.7 193.311 75.7567 193.598 75.87C193.885 75.9833 194.138 76.15 194.358 76.37C194.578 76.5833 194.755 76.8433 194.888 77.15C195.021 77.45 195.091 77.7867 195.098 78.16C195.098 78.2667 195.058 78.3567 194.978 78.43C194.898 78.5033 194.805 78.54 194.698 78.54H190.748L190.568 77.85H194.418L194.258 77.99V77.77C194.231 77.4967 194.138 77.2633 193.978 77.07C193.825 76.87 193.635 76.7167 193.408 76.61C193.188 76.5033 192.955 76.45 192.708 76.45C192.508 76.45 192.308 76.4867 192.108 76.56C191.915 76.6267 191.738 76.74 191.578 76.9C191.425 77.0533 191.298 77.2533 191.198 77.5C191.105 77.7467 191.058 78.0433 191.058 78.39C191.058 78.7767 191.135 79.1167 191.288 79.41C191.448 79.7033 191.668 79.9367 191.948 80.11C192.228 80.2767 192.555 80.36 192.928 80.36C193.161 80.36 193.365 80.33 193.538 80.27C193.711 80.21 193.861 80.1367 193.988 80.05C194.115 79.9567 194.221 79.8633 194.308 79.77C194.395 79.71 194.478 79.68 194.558 79.68C194.658 79.68 194.738 79.7133 194.798 79.78C194.865 79.8467 194.898 79.9267 194.898 80.02C194.898 80.1333 194.845 80.2333 194.738 80.32C194.551 80.5267 194.298 80.71 193.978 80.87C193.658 81.0233 193.318 81.1 192.958 81.1ZM196.252 75.74C196.332 75.74 196.408 75.7633 196.482 75.81C196.555 75.85 196.608 75.91 196.642 75.99L198.302 79.89L198.142 79.97L199.832 76C199.905 75.82 200.028 75.7333 200.202 75.74C200.302 75.74 200.388 75.7733 200.462 75.84C200.535 75.9067 200.572 75.99 200.572 76.09C200.572 76.13 200.565 76.17 200.552 76.21C200.545 76.2433 200.535 76.2733 200.522 76.3L198.592 80.74C198.518 80.9067 198.402 80.9933 198.242 81C198.155 81.0067 198.072 80.99 197.992 80.95C197.918 80.9033 197.865 80.8333 197.832 80.74L195.902 76.31C195.888 76.2833 195.875 76.2533 195.862 76.22C195.855 76.1867 195.852 76.1467 195.852 76.1C195.852 76.0133 195.885 75.9333 195.952 75.86C196.025 75.78 196.125 75.74 196.252 75.74ZM203.993 81.1C203.46 81.1 202.993 80.9867 202.593 80.76C202.193 80.5333 201.88 80.2233 201.653 79.83C201.433 79.43 201.323 78.97 201.323 78.45C201.323 77.87 201.437 77.3767 201.663 76.97C201.897 76.5567 202.197 76.2433 202.563 76.03C202.937 75.81 203.33 75.7 203.743 75.7C204.05 75.7 204.347 75.7567 204.633 75.87C204.92 75.9833 205.173 76.15 205.393 76.37C205.613 76.5833 205.79 76.8433 205.923 77.15C206.057 77.45 206.127 77.7867 206.133 78.16C206.133 78.2667 206.093 78.3567 206.013 78.43C205.933 78.5033 205.84 78.54 205.733 78.54H201.783L201.603 77.85H205.453L205.293 77.99V77.77C205.267 77.4967 205.173 77.2633 205.013 77.07C204.86 76.87 204.67 76.7167 204.443 76.61C204.223 76.5033 203.99 76.45 203.743 76.45C203.543 76.45 203.343 76.4867 203.143 76.56C202.95 76.6267 202.773 76.74 202.613 76.9C202.46 77.0533 202.333 77.2533 202.233 77.5C202.14 77.7467 202.093 78.0433 202.093 78.39C202.093 78.7767 202.17 79.1167 202.323 79.41C202.483 79.7033 202.703 79.9367 202.983 80.11C203.263 80.2767 203.59 80.36 203.963 80.36C204.197 80.36 204.4 80.33 204.573 80.27C204.747 80.21 204.897 80.1367 205.023 80.05C205.15 79.9567 205.257 79.8633 205.343 79.77C205.43 79.71 205.513 79.68 205.593 79.68C205.693 79.68 205.773 79.7133 205.833 79.78C205.9 79.8467 205.933 79.9267 205.933 80.02C205.933 80.1333 205.88 80.2333 205.773 80.32C205.587 80.5267 205.333 80.71 205.013 80.87C204.693 81.0233 204.353 81.1 203.993 81.1ZM209.906 75.7C210.359 75.7 210.716 75.7933 210.976 75.98C211.236 76.1667 211.419 76.4167 211.526 76.73C211.639 77.0433 211.696 77.3933 211.696 77.78V80.59C211.696 80.7033 211.656 80.8 211.576 80.88C211.502 80.96 211.409 81 211.296 81C211.182 81 211.086 80.96 211.006 80.88C210.932 80.8 210.896 80.7033 210.896 80.59V77.8C210.896 77.5467 210.856 77.32 210.776 77.12C210.702 76.9133 210.576 76.75 210.396 76.63C210.222 76.5033 209.982 76.44 209.676 76.44C209.396 76.44 209.139 76.5033 208.906 76.63C208.672 76.75 208.486 76.9133 208.346 77.12C208.206 77.32 208.136 77.5467 208.136 77.8V80.59C208.136 80.7033 208.096 80.8 208.016 80.88C207.942 80.96 207.849 81 207.736 81C207.622 81 207.526 80.96 207.446 80.88C207.372 80.8 207.336 80.7033 207.336 80.59V76.23C207.336 76.1167 207.372 76.0233 207.446 75.95C207.526 75.87 207.622 75.83 207.736 75.83C207.856 75.83 207.952 75.87 208.026 75.95C208.099 76.0233 208.136 76.1167 208.136 76.23V76.94L207.936 77.16C207.969 76.9867 208.046 76.8133 208.166 76.64C208.286 76.46 208.436 76.3 208.616 76.16C208.796 76.02 208.996 75.91 209.216 75.83C209.436 75.7433 209.666 75.7 209.906 75.7ZM212.976 75.86H215.326C215.432 75.86 215.519 75.8967 215.586 75.97C215.659 76.0433 215.696 76.13 215.696 76.23C215.696 76.3367 215.659 76.4267 215.586 76.5C215.519 76.5667 215.432 76.6 215.326 76.6H212.976C212.876 76.6 212.789 76.5633 212.716 76.49C212.642 76.4167 212.606 76.3267 212.606 76.22C212.606 76.12 212.642 76.0367 212.716 75.97C212.789 75.8967 212.876 75.86 212.976 75.86ZM214.026 74.5C214.139 74.5 214.232 74.54 214.306 74.62C214.379 74.6933 214.416 74.7867 214.416 74.9V79.73C214.416 79.89 214.439 80.01 214.486 80.09C214.532 80.17 214.592 80.2267 214.666 80.26C214.746 80.2867 214.822 80.3 214.896 80.3C214.962 80.3 215.019 80.29 215.066 80.27C215.119 80.2433 215.179 80.23 215.246 80.23C215.312 80.23 215.372 80.2633 215.426 80.33C215.486 80.39 215.516 80.47 215.516 80.57C215.516 80.69 215.446 80.7933 215.306 80.88C215.166 80.96 215.009 81 214.836 81C214.742 81 214.626 80.9933 214.486 80.98C214.352 80.9667 214.219 80.9233 214.086 80.85C213.952 80.7767 213.839 80.6567 213.746 80.49C213.659 80.3167 213.616 80.0767 213.616 79.77V74.9C213.616 74.7867 213.656 74.6933 213.736 74.62C213.816 74.54 213.912 74.5 214.026 74.5ZM216.714 80.18C216.654 80.0933 216.627 80.0033 216.634 79.91C216.64 79.81 216.697 79.7233 216.804 79.65C216.87 79.6033 216.947 79.5833 217.034 79.59C217.127 79.5967 217.21 79.64 217.284 79.72C217.47 79.94 217.684 80.1167 217.924 80.25C218.164 80.3767 218.457 80.44 218.804 80.44C218.964 80.4333 219.124 80.4067 219.284 80.36C219.444 80.3133 219.577 80.2333 219.684 80.12C219.797 80 219.854 79.8433 219.854 79.65C219.854 79.4633 219.797 79.3167 219.684 79.21C219.57 79.0967 219.424 79.0067 219.244 78.94C219.064 78.8667 218.867 78.8033 218.654 78.75C218.434 78.69 218.217 78.6233 218.004 78.55C217.79 78.47 217.597 78.3733 217.424 78.26C217.257 78.14 217.12 77.9933 217.014 77.82C216.914 77.64 216.864 77.4233 216.864 77.17C216.864 76.87 216.944 76.61 217.104 76.39C217.27 76.17 217.49 76 217.764 75.88C218.044 75.76 218.347 75.7 218.674 75.7C218.86 75.7 219.054 75.7233 219.254 75.77C219.46 75.81 219.66 75.8833 219.854 75.99C220.047 76.09 220.217 76.23 220.364 76.41C220.424 76.4767 220.457 76.56 220.464 76.66C220.47 76.76 220.427 76.85 220.334 76.93C220.26 76.9833 220.177 77.0067 220.084 77C219.997 76.9933 219.924 76.96 219.864 76.9C219.724 76.7333 219.547 76.6067 219.334 76.52C219.127 76.4267 218.897 76.38 218.644 76.38C218.484 76.38 218.327 76.4033 218.174 76.45C218.02 76.4967 217.89 76.5767 217.784 76.69C217.684 76.7967 217.634 76.9467 217.634 77.14C217.64 77.32 217.7 77.4667 217.814 77.58C217.927 77.6933 218.08 77.7867 218.274 77.86C218.467 77.9267 218.68 77.9933 218.914 78.06C219.127 78.1133 219.33 78.1767 219.524 78.25C219.724 78.3167 219.904 78.4067 220.064 78.52C220.224 78.6333 220.35 78.78 220.444 78.96C220.537 79.1333 220.584 79.3533 220.584 79.62C220.584 79.9267 220.497 80.1933 220.324 80.42C220.15 80.64 219.92 80.81 219.634 80.93C219.354 81.0433 219.05 81.1 218.724 81.1C218.357 81.1 217.994 81.03 217.634 80.89C217.28 80.75 216.974 80.5133 216.714 80.18ZM158.692 88.75C159.146 88.75 159.512 88.8667 159.792 89.1C160.079 89.3267 160.269 89.65 160.362 90.07H160.212L160.282 89.89C160.362 89.7033 160.499 89.5233 160.692 89.35C160.886 89.1767 161.109 89.0333 161.362 88.92C161.616 88.8067 161.879 88.75 162.152 88.75C162.592 88.75 162.939 88.8467 163.192 89.04C163.446 89.2267 163.626 89.48 163.732 89.8C163.846 90.1133 163.902 90.4667 163.902 90.86V93.59C163.902 93.7033 163.862 93.8 163.782 93.88C163.709 93.96 163.616 94 163.502 94C163.382 94 163.286 93.96 163.212 93.88C163.139 93.8 163.102 93.7033 163.102 93.59V90.88C163.102 90.62 163.062 90.3867 162.982 90.18C162.909 89.9667 162.786 89.8 162.612 89.68C162.446 89.5533 162.216 89.49 161.922 89.49C161.649 89.49 161.399 89.5533 161.172 89.68C160.946 89.8 160.766 89.9667 160.632 90.18C160.499 90.3867 160.432 90.62 160.432 90.88V93.59C160.432 93.7033 160.396 93.8 160.322 93.88C160.249 93.96 160.152 94 160.032 94C159.919 94 159.822 93.96 159.742 93.88C159.669 93.8 159.632 93.7033 159.632 93.59V90.85C159.632 90.5967 159.596 90.37 159.522 90.17C159.456 89.9633 159.339 89.8 159.172 89.68C159.006 89.5533 158.776 89.49 158.482 89.49C158.216 89.49 157.972 89.5533 157.752 89.68C157.532 89.8 157.356 89.9633 157.222 90.17C157.089 90.37 157.022 90.5967 157.022 90.85V93.59C157.022 93.7033 156.982 93.8 156.902 93.88C156.829 93.96 156.736 94 156.622 94C156.509 94 156.412 93.96 156.332 93.88C156.259 93.8 156.222 93.7033 156.222 93.59V89.23C156.222 89.1167 156.259 89.0233 156.332 88.95C156.412 88.87 156.509 88.83 156.622 88.83C156.742 88.83 156.839 88.87 156.912 88.95C156.986 89.0233 157.022 89.1167 157.022 89.23V89.99L156.802 90.23C156.829 90.0567 156.896 89.8833 157.002 89.71C157.116 89.5367 157.259 89.3767 157.432 89.23C157.606 89.0833 157.799 88.9667 158.012 88.88C158.226 88.7933 158.452 88.75 158.692 88.75ZM169.643 88.78C169.756 88.78 169.849 88.82 169.923 88.9C170.003 88.9733 170.043 89.0667 170.043 89.18V93.59C170.043 93.7033 170.003 93.8 169.923 93.88C169.849 93.96 169.756 94 169.643 94C169.523 94 169.426 93.96 169.353 93.88C169.279 93.8 169.243 93.7033 169.243 93.59V92.64L169.433 92.62C169.433 92.7667 169.383 92.9267 169.283 93.1C169.183 93.2733 169.046 93.4367 168.873 93.59C168.699 93.7367 168.493 93.86 168.253 93.96C168.019 94.0533 167.766 94.1 167.493 94.1C167.039 94.1 166.633 93.9833 166.273 93.75C165.913 93.51 165.626 93.1867 165.413 92.78C165.206 92.3733 165.103 91.91 165.103 91.39C165.103 90.8633 165.206 90.4 165.413 90C165.626 89.5933 165.913 89.2767 166.273 89.05C166.633 88.8167 167.033 88.7 167.473 88.7C167.759 88.7 168.026 88.7467 168.273 88.84C168.519 88.9333 168.733 89.06 168.913 89.22C169.099 89.38 169.243 89.5567 169.343 89.75C169.449 89.9433 169.503 90.1367 169.503 90.33L169.243 90.27V89.18C169.243 89.0667 169.279 88.9733 169.353 88.9C169.426 88.82 169.523 88.78 169.643 88.78ZM167.583 93.36C167.916 93.36 168.209 93.2733 168.463 93.1C168.723 92.9267 168.923 92.6933 169.063 92.4C169.209 92.1 169.283 91.7633 169.283 91.39C169.283 91.0233 169.209 90.6933 169.063 90.4C168.923 90.1 168.723 89.8667 168.463 89.7C168.209 89.5267 167.916 89.44 167.583 89.44C167.256 89.44 166.963 89.5233 166.703 89.69C166.449 89.8567 166.249 90.0867 166.103 90.38C165.956 90.6733 165.883 91.01 165.883 91.39C165.883 91.7633 165.953 92.1 166.093 92.4C166.239 92.6933 166.439 92.9267 166.693 93.1C166.953 93.2733 167.249 93.36 167.583 93.36ZM174.095 88.7C174.548 88.7 174.905 88.7933 175.165 88.98C175.425 89.1667 175.608 89.4167 175.715 89.73C175.828 90.0433 175.885 90.3933 175.885 90.78V93.59C175.885 93.7033 175.845 93.8 175.765 93.88C175.692 93.96 175.598 94 175.485 94C175.372 94 175.275 93.96 175.195 93.88C175.122 93.8 175.085 93.7033 175.085 93.59V90.8C175.085 90.5467 175.045 90.32 174.965 90.12C174.892 89.9133 174.765 89.75 174.585 89.63C174.412 89.5033 174.172 89.44 173.865 89.44C173.585 89.44 173.328 89.5033 173.095 89.63C172.862 89.75 172.675 89.9133 172.535 90.12C172.395 90.32 172.325 90.5467 172.325 90.8V93.59C172.325 93.7033 172.285 93.8 172.205 93.88C172.132 93.96 172.038 94 171.925 94C171.812 94 171.715 93.96 171.635 93.88C171.562 93.8 171.525 93.7033 171.525 93.59V89.23C171.525 89.1167 171.562 89.0233 171.635 88.95C171.715 88.87 171.812 88.83 171.925 88.83C172.045 88.83 172.142 88.87 172.215 88.95C172.288 89.0233 172.325 89.1167 172.325 89.23V89.94L172.125 90.16C172.158 89.9867 172.235 89.8133 172.355 89.64C172.475 89.46 172.625 89.3 172.805 89.16C172.985 89.02 173.185 88.91 173.405 88.83C173.625 88.7433 173.855 88.7 174.095 88.7ZM181.625 88.78C181.738 88.78 181.832 88.82 181.905 88.9C181.985 88.9733 182.025 89.0667 182.025 89.18V93.59C182.025 93.7033 181.985 93.8 181.905 93.88C181.832 93.96 181.738 94 181.625 94C181.505 94 181.408 93.96 181.335 93.88C181.262 93.8 181.225 93.7033 181.225 93.59V92.64L181.415 92.62C181.415 92.7667 181.365 92.9267 181.265 93.1C181.165 93.2733 181.028 93.4367 180.855 93.59C180.682 93.7367 180.475 93.86 180.235 93.96C180.002 94.0533 179.748 94.1 179.475 94.1C179.022 94.1 178.615 93.9833 178.255 93.75C177.895 93.51 177.608 93.1867 177.395 92.78C177.188 92.3733 177.085 91.91 177.085 91.39C177.085 90.8633 177.188 90.4 177.395 90C177.608 89.5933 177.895 89.2767 178.255 89.05C178.615 88.8167 179.015 88.7 179.455 88.7C179.742 88.7 180.008 88.7467 180.255 88.84C180.502 88.9333 180.715 89.06 180.895 89.22C181.082 89.38 181.225 89.5567 181.325 89.75C181.432 89.9433 181.485 90.1367 181.485 90.33L181.225 90.27V89.18C181.225 89.0667 181.262 88.9733 181.335 88.9C181.408 88.82 181.505 88.78 181.625 88.78ZM179.565 93.36C179.898 93.36 180.192 93.2733 180.445 93.1C180.705 92.9267 180.905 92.6933 181.045 92.4C181.192 92.1 181.265 91.7633 181.265 91.39C181.265 91.0233 181.192 90.6933 181.045 90.4C180.905 90.1 180.705 89.8667 180.445 89.7C180.192 89.5267 179.898 89.44 179.565 89.44C179.238 89.44 178.945 89.5233 178.685 89.69C178.432 89.8567 178.232 90.0867 178.085 90.38C177.938 90.6733 177.865 91.01 177.865 91.39C177.865 91.7633 177.935 92.1 178.075 92.4C178.222 92.6933 178.422 92.9267 178.675 93.1C178.935 93.2733 179.232 93.36 179.565 93.36ZM185.678 88.7C185.964 88.7 186.231 88.75 186.478 88.85C186.724 88.9433 186.938 89.0667 187.118 89.22C187.304 89.3733 187.448 89.5333 187.548 89.7C187.654 89.8667 187.708 90.0233 187.708 90.17L187.518 90.05V89.18C187.518 89.0667 187.554 88.9733 187.628 88.9C187.701 88.82 187.798 88.78 187.918 88.78C188.031 88.78 188.124 88.82 188.198 88.9C188.278 88.9733 188.318 89.0667 188.318 89.18V93.56C188.318 94.1067 188.201 94.56 187.968 94.92C187.741 95.28 187.434 95.55 187.048 95.73C186.661 95.91 186.228 96 185.748 96C185.548 96 185.328 95.9733 185.088 95.92C184.848 95.8667 184.634 95.8 184.448 95.72C184.261 95.6467 184.141 95.57 184.088 95.49C183.988 95.4233 183.924 95.3467 183.898 95.26C183.878 95.18 183.894 95.1033 183.948 95.03C184.008 94.9367 184.084 94.89 184.178 94.89C184.278 94.89 184.401 94.92 184.548 94.98C184.608 95 184.701 95.0333 184.828 95.08C184.961 95.1267 185.108 95.1667 185.268 95.2C185.434 95.24 185.598 95.26 185.758 95.26C186.324 95.26 186.758 95.11 187.058 94.81C187.364 94.5167 187.518 94.1267 187.518 93.64V92.71L187.628 92.76C187.588 92.9467 187.504 93.12 187.378 93.28C187.258 93.44 187.108 93.5833 186.928 93.71C186.754 93.83 186.561 93.9267 186.348 94C186.134 94.0667 185.918 94.1 185.698 94.1C185.231 94.1 184.811 93.9833 184.438 93.75C184.064 93.5167 183.768 93.1967 183.548 92.79C183.334 92.3833 183.228 91.92 183.228 91.4C183.228 90.8733 183.334 90.4067 183.548 90C183.768 89.5933 184.061 89.2767 184.428 89.05C184.801 88.8167 185.218 88.7 185.678 88.7ZM185.778 89.44C185.438 89.44 185.131 89.5267 184.858 89.7C184.591 89.8667 184.381 90.0967 184.228 90.39C184.081 90.6833 184.008 91.02 184.008 91.4C184.008 91.7667 184.081 92.1 184.228 92.4C184.381 92.6933 184.591 92.9267 184.858 93.1C185.131 93.2733 185.438 93.36 185.778 93.36C186.124 93.36 186.431 93.2767 186.698 93.11C186.964 92.9367 187.174 92.7033 187.328 92.41C187.481 92.1167 187.558 91.78 187.558 91.4C187.558 91.0133 187.481 90.6733 187.328 90.38C187.174 90.0867 186.964 89.8567 186.698 89.69C186.431 89.5233 186.124 89.44 185.778 89.44ZM191.991 94.1C191.458 94.1 190.991 93.9867 190.591 93.76C190.191 93.5333 189.878 93.2233 189.651 92.83C189.431 92.43 189.321 91.97 189.321 91.45C189.321 90.87 189.435 90.3767 189.661 89.97C189.895 89.5567 190.195 89.2433 190.561 89.03C190.935 88.81 191.328 88.7 191.741 88.7C192.048 88.7 192.345 88.7567 192.631 88.87C192.918 88.9833 193.171 89.15 193.391 89.37C193.611 89.5833 193.788 89.8433 193.921 90.15C194.055 90.45 194.125 90.7867 194.131 91.16C194.131 91.2667 194.091 91.3567 194.011 91.43C193.931 91.5033 193.838 91.54 193.731 91.54H189.781L189.601 90.85H193.451L193.291 90.99V90.77C193.265 90.4967 193.171 90.2633 193.011 90.07C192.858 89.87 192.668 89.7167 192.441 89.61C192.221 89.5033 191.988 89.45 191.741 89.45C191.541 89.45 191.341 89.4867 191.141 89.56C190.948 89.6267 190.771 89.74 190.611 89.9C190.458 90.0533 190.331 90.2533 190.231 90.5C190.138 90.7467 190.091 91.0433 190.091 91.39C190.091 91.7767 190.168 92.1167 190.321 92.41C190.481 92.7033 190.701 92.9367 190.981 93.11C191.261 93.2767 191.588 93.36 191.961 93.36C192.195 93.36 192.398 93.33 192.571 93.27C192.745 93.21 192.895 93.1367 193.021 93.05C193.148 92.9567 193.255 92.8633 193.341 92.77C193.428 92.71 193.511 92.68 193.591 92.68C193.691 92.68 193.771 92.7133 193.831 92.78C193.898 92.8467 193.931 92.9267 193.931 93.02C193.931 93.1333 193.878 93.2333 193.771 93.32C193.585 93.5267 193.331 93.71 193.011 93.87C192.691 94.0233 192.351 94.1 191.991 94.1ZM197.804 88.75C198.257 88.75 198.624 88.8667 198.904 89.1C199.19 89.3267 199.38 89.65 199.474 90.07H199.324L199.394 89.89C199.474 89.7033 199.61 89.5233 199.804 89.35C199.997 89.1767 200.22 89.0333 200.474 88.92C200.727 88.8067 200.99 88.75 201.264 88.75C201.704 88.75 202.05 88.8467 202.304 89.04C202.557 89.2267 202.737 89.48 202.844 89.8C202.957 90.1133 203.014 90.4667 203.014 90.86V93.59C203.014 93.7033 202.974 93.8 202.894 93.88C202.82 93.96 202.727 94 202.614 94C202.494 94 202.397 93.96 202.324 93.88C202.25 93.8 202.214 93.7033 202.214 93.59V90.88C202.214 90.62 202.174 90.3867 202.094 90.18C202.02 89.9667 201.897 89.8 201.724 89.68C201.557 89.5533 201.327 89.49 201.034 89.49C200.76 89.49 200.51 89.5533 200.284 89.68C200.057 89.8 199.877 89.9667 199.744 90.18C199.61 90.3867 199.544 90.62 199.544 90.88V93.59C199.544 93.7033 199.507 93.8 199.434 93.88C199.36 93.96 199.264 94 199.144 94C199.03 94 198.934 93.96 198.854 93.88C198.78 93.8 198.744 93.7033 198.744 93.59V90.85C198.744 90.5967 198.707 90.37 198.634 90.17C198.567 89.9633 198.45 89.8 198.284 89.68C198.117 89.5533 197.887 89.49 197.594 89.49C197.327 89.49 197.084 89.5533 196.864 89.68C196.644 89.8 196.467 89.9633 196.334 90.17C196.2 90.37 196.134 90.5967 196.134 90.85V93.59C196.134 93.7033 196.094 93.8 196.014 93.88C195.94 93.96 195.847 94 195.734 94C195.62 94 195.524 93.96 195.444 93.88C195.37 93.8 195.334 93.7033 195.334 93.59V89.23C195.334 89.1167 195.37 89.0233 195.444 88.95C195.524 88.87 195.62 88.83 195.734 88.83C195.854 88.83 195.95 88.87 196.024 88.95C196.097 89.0233 196.134 89.1167 196.134 89.23V89.99L195.914 90.23C195.94 90.0567 196.007 89.8833 196.114 89.71C196.227 89.5367 196.37 89.3767 196.544 89.23C196.717 89.0833 196.91 88.9667 197.124 88.88C197.337 88.7933 197.564 88.75 197.804 88.75ZM206.884 94.1C206.351 94.1 205.884 93.9867 205.484 93.76C205.084 93.5333 204.771 93.2233 204.544 92.83C204.324 92.43 204.214 91.97 204.214 91.45C204.214 90.87 204.327 90.3767 204.554 89.97C204.787 89.5567 205.087 89.2433 205.454 89.03C205.827 88.81 206.221 88.7 206.634 88.7C206.941 88.7 207.237 88.7567 207.524 88.87C207.811 88.9833 208.064 89.15 208.284 89.37C208.504 89.5833 208.681 89.8433 208.814 90.15C208.947 90.45 209.017 90.7867 209.024 91.16C209.024 91.2667 208.984 91.3567 208.904 91.43C208.824 91.5033 208.731 91.54 208.624 91.54H204.674L204.494 90.85H208.344L208.184 90.99V90.77C208.157 90.4967 208.064 90.2633 207.904 90.07C207.751 89.87 207.561 89.7167 207.334 89.61C207.114 89.5033 206.881 89.45 206.634 89.45C206.434 89.45 206.234 89.4867 206.034 89.56C205.841 89.6267 205.664 89.74 205.504 89.9C205.351 90.0533 205.224 90.2533 205.124 90.5C205.031 90.7467 204.984 91.0433 204.984 91.39C204.984 91.7767 205.061 92.1167 205.214 92.41C205.374 92.7033 205.594 92.9367 205.874 93.11C206.154 93.2767 206.481 93.36 206.854 93.36C207.087 93.36 207.291 93.33 207.464 93.27C207.637 93.21 207.787 93.1367 207.914 93.05C208.041 92.9567 208.147 92.8633 208.234 92.77C208.321 92.71 208.404 92.68 208.484 92.68C208.584 92.68 208.664 92.7133 208.724 92.78C208.791 92.8467 208.824 92.9267 208.824 93.02C208.824 93.1333 208.771 93.2333 208.664 93.32C208.477 93.5267 208.224 93.71 207.904 93.87C207.584 94.0233 207.244 94.1 206.884 94.1ZM212.796 88.7C213.25 88.7 213.606 88.7933 213.866 88.98C214.126 89.1667 214.31 89.4167 214.416 89.73C214.53 90.0433 214.586 90.3933 214.586 90.78V93.59C214.586 93.7033 214.546 93.8 214.466 93.88C214.393 93.96 214.3 94 214.186 94C214.073 94 213.976 93.96 213.896 93.88C213.823 93.8 213.786 93.7033 213.786 93.59V90.8C213.786 90.5467 213.746 90.32 213.666 90.12C213.593 89.9133 213.466 89.75 213.286 89.63C213.113 89.5033 212.873 89.44 212.566 89.44C212.286 89.44 212.03 89.5033 211.796 89.63C211.563 89.75 211.376 89.9133 211.236 90.12C211.096 90.32 211.026 90.5467 211.026 90.8V93.59C211.026 93.7033 210.986 93.8 210.906 93.88C210.833 93.96 210.74 94 210.626 94C210.513 94 210.416 93.96 210.336 93.88C210.263 93.8 210.226 93.7033 210.226 93.59V89.23C210.226 89.1167 210.263 89.0233 210.336 88.95C210.416 88.87 210.513 88.83 210.626 88.83C210.746 88.83 210.843 88.87 210.916 88.95C210.99 89.0233 211.026 89.1167 211.026 89.23V89.94L210.826 90.16C210.86 89.9867 210.936 89.8133 211.056 89.64C211.176 89.46 211.326 89.3 211.506 89.16C211.686 89.02 211.886 88.91 212.106 88.83C212.326 88.7433 212.556 88.7 212.796 88.7ZM215.866 88.86H218.216C218.323 88.86 218.41 88.8967 218.476 88.97C218.55 89.0433 218.586 89.13 218.586 89.23C218.586 89.3367 218.55 89.4267 218.476 89.5C218.41 89.5667 218.323 89.6 218.216 89.6H215.866C215.766 89.6 215.68 89.5633 215.606 89.49C215.533 89.4167 215.496 89.3267 215.496 89.22C215.496 89.12 215.533 89.0367 215.606 88.97C215.68 88.8967 215.766 88.86 215.866 88.86ZM216.916 87.5C217.03 87.5 217.123 87.54 217.196 87.62C217.27 87.6933 217.306 87.7867 217.306 87.9V92.73C217.306 92.89 217.33 93.01 217.376 93.09C217.423 93.17 217.483 93.2267 217.556 93.26C217.636 93.2867 217.713 93.3 217.786 93.3C217.853 93.3 217.91 93.29 217.956 93.27C218.01 93.2433 218.07 93.23 218.136 93.23C218.203 93.23 218.263 93.2633 218.316 93.33C218.376 93.39 218.406 93.47 218.406 93.57C218.406 93.69 218.336 93.7933 218.196 93.88C218.056 93.96 217.9 94 217.726 94C217.633 94 217.516 93.9933 217.376 93.98C217.243 93.9667 217.11 93.9233 216.976 93.85C216.843 93.7767 216.73 93.6567 216.636 93.49C216.55 93.3167 216.506 93.0767 216.506 92.77V87.9C216.506 87.7867 216.546 87.6933 216.626 87.62C216.706 87.54 216.803 87.5 216.916 87.5ZM219.939 93.99C219.799 93.99 219.689 93.95 219.609 93.87C219.536 93.79 219.499 93.68 219.499 93.54V93.34C219.499 93.1933 219.536 93.08 219.609 93C219.689 92.92 219.799 92.88 219.939 92.88H220.019C220.166 92.88 220.276 92.92 220.349 93C220.422 93.08 220.459 93.1933 220.459 93.34V93.54C220.459 93.68 220.422 93.79 220.349 93.87C220.276 93.95 220.166 93.99 220.019 93.99H219.939Z" fill="#212832"/>
<circle cx="217.5" cy="63.5" r="3.5" fill="#D96868"/>
<circle cx="208.5" cy="63.5" r="3.5" fill="#4BAC9B"/>
<circle cx="199.5" cy="63.5" r="3.5" fill="#2A6794"/>
</svg>
