<svg width="212" height="85" viewBox="0 0 212 85" fill="none" xmlns="http://www.w3.org/2000/svg">
<path d="M13.7773 24.2C12.844 24.2 12.004 24.0867 11.2573 23.86C10.5107 23.62 9.79734 23.2067 9.11734 22.62C8.94401 22.4733 8.81068 22.3067 8.71734 22.12C8.62401 21.9333 8.57734 21.7467 8.57734 21.56C8.57734 21.2533 8.68401 20.9867 8.89734 20.76C9.12401 20.52 9.40401 20.4 9.73734 20.4C9.99068 20.4 10.2173 20.48 10.4173 20.64C10.924 21.0533 11.424 21.3667 11.9173 21.58C12.424 21.7933 13.044 21.9 13.7773 21.9C14.2707 21.9 14.724 21.8267 15.1373 21.68C15.5507 21.52 15.884 21.3133 16.1373 21.06C16.3907 20.7933 16.5173 20.4933 16.5173 20.16C16.5173 19.76 16.3973 19.42 16.1573 19.14C15.9173 18.86 15.5507 18.6267 15.0573 18.44C14.564 18.24 13.9373 18.0867 13.1773 17.98C12.4573 17.8733 11.824 17.7133 11.2773 17.5C10.7307 17.2733 10.2707 16.9933 9.89734 16.66C9.53734 16.3133 9.26401 15.9133 9.07734 15.46C8.89068 14.9933 8.79734 14.4733 8.79734 13.9C8.79734 13.0333 9.01734 12.2933 9.45734 11.68C9.91068 11.0667 10.5173 10.6 11.2773 10.28C12.0373 9.96 12.8773 9.8 13.7973 9.8C14.664 9.8 15.464 9.93333 16.1973 10.2C16.944 10.4533 17.5507 10.78 18.0173 11.18C18.404 11.4867 18.5973 11.84 18.5973 12.24C18.5973 12.5333 18.484 12.8 18.2573 13.04C18.0307 13.28 17.764 13.4 17.4573 13.4C17.2573 13.4 17.0773 13.34 16.9173 13.22C16.704 13.0333 16.4173 12.86 16.0573 12.7C15.6973 12.5267 15.3173 12.3867 14.9173 12.28C14.5173 12.16 14.144 12.1 13.7973 12.1C13.224 12.1 12.7373 12.1733 12.3373 12.32C11.9507 12.4667 11.6573 12.6667 11.4573 12.92C11.2573 13.1733 11.1573 13.4667 11.1573 13.8C11.1573 14.2 11.2707 14.5333 11.4973 14.8C11.7373 15.0533 12.0773 15.26 12.5173 15.42C12.9573 15.5667 13.484 15.7 14.0973 15.82C14.8973 15.9667 15.5973 16.14 16.1973 16.34C16.8107 16.54 17.3173 16.8 17.7173 17.12C18.1173 17.4267 18.4173 17.82 18.6173 18.3C18.8173 18.7667 18.9173 19.34 18.9173 20.02C18.9173 20.8867 18.6773 21.6333 18.1973 22.26C17.7173 22.8867 17.084 23.3667 16.2973 23.7C15.524 24.0333 14.684 24.2 13.7773 24.2ZM31.3909 18.66C31.3909 19.7533 31.1443 20.72 30.6509 21.56C30.1709 22.3867 29.5176 23.0333 28.6909 23.5C27.8776 23.9667 26.9643 24.2 25.9509 24.2C24.9376 24.2 24.0176 23.9667 23.1909 23.5C22.3776 23.0333 21.7243 22.3867 21.2309 21.56C20.7509 20.72 20.5109 19.7533 20.5109 18.66C20.5109 17.5667 20.7509 16.6067 21.2309 15.78C21.7243 14.94 22.3776 14.2867 23.1909 13.82C24.0176 13.34 24.9376 13.1 25.9509 13.1C26.9643 13.1 27.8776 13.34 28.6909 13.82C29.5176 14.2867 30.1709 14.94 30.6509 15.78C31.1443 16.6067 31.3909 17.5667 31.3909 18.66ZM28.9909 18.66C28.9909 17.98 28.8509 17.3933 28.5709 16.9C28.3043 16.3933 27.9376 16 27.4709 15.72C27.0176 15.44 26.5109 15.3 25.9509 15.3C25.3909 15.3 24.8776 15.44 24.4109 15.72C23.9576 16 23.5909 16.3933 23.3109 16.9C23.0443 17.3933 22.9109 17.98 22.9109 18.66C22.9109 19.3267 23.0443 19.9133 23.3109 20.42C23.5909 20.9133 23.9576 21.3 24.4109 21.58C24.8776 21.86 25.3909 22 25.9509 22C26.5109 22 27.0176 21.86 27.4709 21.58C27.9376 21.3 28.3043 20.9133 28.5709 20.42C28.8509 19.9133 28.9909 19.3267 28.9909 18.66ZM36.0914 22.78C36.0914 23.1267 35.9714 23.42 35.7314 23.66C35.5047 23.8867 35.2181 24 34.8714 24C34.5381 24 34.2581 23.8867 34.0314 23.66C33.8047 23.42 33.6914 23.1267 33.6914 22.78V10.42C33.6914 10.0733 33.8047 9.78667 34.0314 9.56C34.2714 9.32 34.5647 9.2 34.9114 9.2C35.2581 9.2 35.5381 9.32 35.7514 9.56C35.9781 9.78667 36.0914 10.0733 36.0914 10.42V22.78ZM49.0667 18.66C49.0667 19.7533 48.8201 20.72 48.3267 21.56C47.8467 22.3867 47.1934 23.0333 46.3667 23.5C45.5534 23.9667 44.6401 24.2 43.6267 24.2C42.6134 24.2 41.6934 23.9667 40.8667 23.5C40.0534 23.0333 39.4001 22.3867 38.9067 21.56C38.4267 20.72 38.1867 19.7533 38.1867 18.66C38.1867 17.5667 38.4267 16.6067 38.9067 15.78C39.4001 14.94 40.0534 14.2867 40.8667 13.82C41.6934 13.34 42.6134 13.1 43.6267 13.1C44.6401 13.1 45.5534 13.34 46.3667 13.82C47.1934 14.2867 47.8467 14.94 48.3267 15.78C48.8201 16.6067 49.0667 17.5667 49.0667 18.66ZM46.6667 18.66C46.6667 17.98 46.5267 17.3933 46.2467 16.9C45.9801 16.3933 45.6134 16 45.1467 15.72C44.6934 15.44 44.1867 15.3 43.6267 15.3C43.0667 15.3 42.5534 15.44 42.0867 15.72C41.6334 16 41.2667 16.3933 40.9867 16.9C40.7201 17.3933 40.5867 17.98 40.5867 18.66C40.5867 19.3267 40.7201 19.9133 40.9867 20.42C41.2667 20.9133 41.6334 21.3 42.0867 21.58C42.5534 21.86 43.0667 22 43.6267 22C44.1867 22 44.6934 21.86 45.1467 21.58C45.6134 21.3 45.9801 20.9133 46.2467 20.42C46.5267 19.9133 46.6667 19.3267 46.6667 18.66ZM61.5327 13.1C62.2927 13.1 62.9527 13.18 63.5127 13.34C64.086 13.5 64.526 13.7267 64.8327 14.02C65.1527 14.3 65.3127 14.64 65.3127 15.04C65.3127 15.3067 65.2327 15.56 65.0727 15.8C64.9127 16.0267 64.6793 16.14 64.3727 16.14C64.1593 16.14 63.9793 16.1133 63.8327 16.06C63.6993 15.9933 63.5793 15.9133 63.4727 15.82C63.366 15.7267 63.2393 15.64 63.0927 15.56C62.9593 15.48 62.7527 15.42 62.4727 15.38C62.206 15.3267 62.006 15.3 61.8727 15.3C61.1927 15.3 60.6127 15.4467 60.1327 15.74C59.666 16.0333 59.306 16.4333 59.0527 16.94C58.7993 17.4333 58.6727 18.0067 58.6727 18.66C58.6727 19.3 58.7993 19.8733 59.0527 20.38C59.3193 20.8733 59.6793 21.2667 60.1327 21.56C60.5993 21.8533 61.1327 22 61.7327 22C62.066 22 62.3527 21.98 62.5927 21.94C62.8327 21.9 63.0327 21.84 63.1927 21.76C63.3793 21.6533 63.546 21.54 63.6927 21.42C63.8393 21.3 64.0593 21.24 64.3527 21.24C64.6993 21.24 64.966 21.3533 65.1527 21.58C65.3393 21.7933 65.4327 22.06 65.4327 22.38C65.4327 22.7133 65.246 23.02 64.8727 23.3C64.4993 23.5667 64.006 23.7867 63.3927 23.96C62.7927 24.12 62.1393 24.2 61.4327 24.2C60.3793 24.2 59.466 23.96 58.6927 23.48C57.9193 22.9867 57.3193 22.32 56.8927 21.48C56.4793 20.64 56.2727 19.7 56.2727 18.66C56.2727 17.5667 56.4927 16.6067 56.9327 15.78C57.386 14.94 58.006 14.2867 58.7927 13.82C59.5927 13.34 60.506 13.1 61.5327 13.1ZM68.3633 24C68.0166 24 67.7299 23.8867 67.5033 23.66C67.2766 23.42 67.1633 23.1267 67.1633 22.78V14.52C67.1633 14.1733 67.2766 13.8867 67.5033 13.66C67.7299 13.42 68.0166 13.3 68.3633 13.3C68.7099 13.3 68.9966 13.42 69.2233 13.66C69.4499 13.8867 69.5633 14.1733 69.5633 14.52V16.4L69.4233 15.06C69.5699 14.74 69.7566 14.46 69.9833 14.22C70.2233 13.9667 70.4899 13.76 70.7833 13.6C71.0766 13.4267 71.3899 13.3 71.7233 13.22C72.0566 13.14 72.3899 13.1 72.7233 13.1C73.1233 13.1 73.4566 13.2133 73.7233 13.44C74.0033 13.6667 74.1433 13.9333 74.1433 14.24C74.1433 14.68 74.0299 15 73.8033 15.2C73.5766 15.3867 73.3299 15.48 73.0633 15.48C72.8099 15.48 72.5766 15.4333 72.3633 15.34C72.1633 15.2467 71.9299 15.2 71.6633 15.2C71.4233 15.2 71.1766 15.26 70.9233 15.38C70.6833 15.4867 70.4566 15.66 70.2433 15.9C70.0433 16.14 69.8766 16.44 69.7433 16.8C69.6233 17.1467 69.5633 17.56 69.5633 18.04V22.78C69.5633 23.1267 69.4499 23.42 69.2233 23.66C68.9966 23.8867 68.7099 24 68.3633 24ZM80.4259 24.2C79.2926 24.2 78.3059 23.9667 77.4659 23.5C76.6393 23.02 75.9993 22.3733 75.5459 21.56C75.1059 20.7467 74.8859 19.8267 74.8859 18.8C74.8859 17.6 75.1259 16.58 75.6059 15.74C76.0993 14.8867 76.7393 14.2333 77.5259 13.78C78.3126 13.3267 79.1459 13.1 80.0259 13.1C80.7059 13.1 81.3459 13.24 81.9459 13.52C82.5593 13.8 83.0993 14.1867 83.5659 14.68C84.0326 15.16 84.3993 15.72 84.6659 16.36C84.9459 17 85.0859 17.68 85.0859 18.4C85.0726 18.72 84.9459 18.98 84.7059 19.18C84.4659 19.38 84.1859 19.48 83.8659 19.48H76.2259L75.6259 17.48H82.9659L82.5259 17.88V17.34C82.4993 16.9533 82.3593 16.6067 82.1059 16.3C81.8659 15.9933 81.5593 15.7533 81.1859 15.58C80.8259 15.3933 80.4393 15.3 80.0259 15.3C79.6259 15.3 79.2526 15.3533 78.9059 15.46C78.5593 15.5667 78.2593 15.7467 78.0059 16C77.7526 16.2533 77.5526 16.5933 77.4059 17.02C77.2593 17.4467 77.1859 17.9867 77.1859 18.64C77.1859 19.36 77.3326 19.9733 77.6259 20.48C77.9326 20.9733 78.3193 21.3533 78.7859 21.62C79.2659 21.8733 79.7726 22 80.3059 22C80.7993 22 81.1926 21.96 81.4859 21.88C81.7793 21.8 82.0126 21.7067 82.1859 21.6C82.3726 21.48 82.5393 21.38 82.6859 21.3C82.9259 21.18 83.1526 21.12 83.3659 21.12C83.6593 21.12 83.8993 21.22 84.0859 21.42C84.2859 21.62 84.3859 21.8533 84.3859 22.12C84.3859 22.48 84.1993 22.8067 83.8259 23.1C83.4793 23.3933 82.9926 23.6533 82.3659 23.88C81.7393 24.0933 81.0926 24.2 80.4259 24.2ZM96.0209 13.1C96.3676 13.1 96.6543 13.2133 96.8809 13.44C97.1076 13.6667 97.2209 13.96 97.2209 14.32V22.78C97.2209 23.1267 97.1076 23.42 96.8809 23.66C96.6543 23.8867 96.3676 24 96.0209 24C95.6743 24 95.3876 23.8867 95.1609 23.66C94.9343 23.42 94.8209 23.1267 94.8209 22.78V21.8L95.2609 21.98C95.2609 22.1533 95.1676 22.3667 94.9809 22.62C94.7943 22.86 94.5409 23.1 94.2209 23.34C93.9009 23.58 93.5209 23.7867 93.0809 23.96C92.6543 24.12 92.1876 24.2 91.6809 24.2C90.7609 24.2 89.9276 23.9667 89.1809 23.5C88.4343 23.02 87.8409 22.3667 87.4009 21.54C86.9743 20.7 86.7609 19.74 86.7609 18.66C86.7609 17.5667 86.9743 16.6067 87.4009 15.78C87.8409 14.94 88.4276 14.2867 89.1609 13.82C89.8943 13.34 90.7076 13.1 91.6009 13.1C92.1743 13.1 92.7009 13.1867 93.1809 13.36C93.6609 13.5333 94.0743 13.7533 94.4209 14.02C94.7809 14.2867 95.0543 14.56 95.2409 14.84C95.4409 15.1067 95.5409 15.3333 95.5409 15.52L94.8209 15.78V14.32C94.8209 13.9733 94.9343 13.6867 95.1609 13.46C95.3876 13.22 95.6743 13.1 96.0209 13.1ZM91.9809 22C92.5676 22 93.0809 21.8533 93.5209 21.56C93.9609 21.2667 94.3009 20.8667 94.5409 20.36C94.7943 19.8533 94.9209 19.2867 94.9209 18.66C94.9209 18.02 94.7943 17.4467 94.5409 16.94C94.3009 16.4333 93.9609 16.0333 93.5209 15.74C93.0809 15.4467 92.5676 15.3 91.9809 15.3C91.4076 15.3 90.9009 15.4467 90.4609 15.74C90.0209 16.0333 89.6743 16.4333 89.4209 16.94C89.1809 17.4467 89.0609 18.02 89.0609 18.66C89.0609 19.2867 89.1809 19.8533 89.4209 20.36C89.6743 20.8667 90.0209 21.2667 90.4609 21.56C90.9009 21.8533 91.4076 22 91.9809 22ZM113.365 13.3C113.712 13.3 113.998 13.42 114.225 13.66C114.452 13.8867 114.565 14.1733 114.565 14.52V19.6C114.565 21.0133 114.172 22.1333 113.385 22.96C112.598 23.7867 111.465 24.2 109.985 24.2C108.505 24.2 107.372 23.7867 106.585 22.96C105.812 22.1333 105.425 21.0133 105.425 19.6V14.52C105.425 14.1733 105.538 13.8867 105.765 13.66C105.992 13.42 106.278 13.3 106.625 13.3C106.972 13.3 107.258 13.42 107.485 13.66C107.712 13.8867 107.825 14.1733 107.825 14.52V19.6C107.825 20.4133 108.005 21.02 108.365 21.42C108.725 21.8067 109.265 22 109.985 22C110.718 22 111.265 21.8067 111.625 21.42C111.985 21.02 112.165 20.4133 112.165 19.6V14.52C112.165 14.1733 112.278 13.8867 112.505 13.66C112.732 13.42 113.018 13.3 113.365 13.3ZM122.883 13.1C123.87 13.1 124.617 13.3067 125.123 13.72C125.643 14.1333 125.997 14.6867 126.183 15.38C126.383 16.06 126.483 16.82 126.483 17.66V22.78C126.483 23.1267 126.37 23.42 126.143 23.66C125.917 23.8867 125.63 24 125.283 24C124.937 24 124.65 23.8867 124.423 23.66C124.197 23.42 124.083 23.1267 124.083 22.78V17.66C124.083 17.22 124.023 16.8267 123.903 16.48C123.797 16.12 123.597 15.8333 123.303 15.62C123.01 15.4067 122.59 15.3 122.043 15.3C121.51 15.3 121.057 15.4067 120.683 15.62C120.323 15.8333 120.043 16.12 119.843 16.48C119.657 16.8267 119.563 17.22 119.563 17.66V22.78C119.563 23.1267 119.45 23.42 119.223 23.66C118.997 23.8867 118.71 24 118.363 24C118.017 24 117.73 23.8867 117.503 23.66C117.277 23.42 117.163 23.1267 117.163 22.78V14.52C117.163 14.1733 117.277 13.8867 117.503 13.66C117.73 13.42 118.017 13.3 118.363 13.3C118.71 13.3 118.997 13.42 119.223 13.66C119.45 13.8867 119.563 14.1733 119.563 14.52V15.38L119.263 15.32C119.383 15.0933 119.557 14.8533 119.783 14.6C120.01 14.3333 120.277 14.0867 120.583 13.86C120.89 13.6333 121.237 13.4533 121.623 13.32C122.01 13.1733 122.43 13.1 122.883 13.1ZM204.832 23.84C204.832 24.28 204.706 24.72 204.452 25.16C204.212 25.6133 203.892 25.9867 203.492 26.28C203.106 26.5867 202.692 26.74 202.252 26.74C202.106 26.74 201.946 26.68 201.772 26.56C201.612 26.44 201.532 26.2333 201.532 25.94C201.532 25.6333 201.626 25.4467 201.812 25.38C202.012 25.3267 202.179 25.2667 202.312 25.2C202.486 25.1067 202.619 24.9933 202.712 24.86C202.819 24.74 202.872 24.5867 202.872 24.4C202.872 24.2533 202.799 24.12 202.652 24C202.519 23.8933 202.339 23.84 202.112 23.84C202.032 23.84 201.939 23.8533 201.832 23.88C201.726 23.8933 201.632 23.9267 201.552 23.98C201.419 23.9133 201.299 23.8333 201.192 23.74C201.099 23.6333 201.052 23.4667 201.052 23.24C201.052 22.8267 201.239 22.4733 201.612 22.18C201.999 21.8733 202.446 21.72 202.952 21.72C203.526 21.72 203.979 21.9133 204.312 22.3C204.659 22.6867 204.832 23.2 204.832 23.84ZM55.8295 47.78C55.8295 48.1267 55.7162 48.42 55.4895 48.66C55.2629 48.8867 54.9762 49 54.6295 49C54.2829 49 53.9962 48.8867 53.7695 48.66C53.5429 48.42 53.4295 48.1267 53.4295 47.78V39.52C53.4295 39.1733 53.5429 38.8867 53.7695 38.66C53.9962 38.42 54.2829 38.3 54.6295 38.3C54.9762 38.3 55.2629 38.42 55.4895 38.66C55.7162 38.8867 55.8295 39.1733 55.8295 39.52V47.78ZM54.6095 37C54.1562 37 53.8362 36.9267 53.6495 36.78C53.4629 36.6333 53.3695 36.3733 53.3695 36V35.62C53.3695 35.2333 53.4695 34.9733 53.6695 34.84C53.8829 34.6933 54.2029 34.62 54.6295 34.62C55.0962 34.62 55.4229 34.6933 55.6095 34.84C55.7962 34.9867 55.8895 35.2467 55.8895 35.62V36C55.8895 36.3867 55.7895 36.6533 55.5895 36.8C55.3895 36.9333 55.0629 37 54.6095 37ZM64.0161 38.1C65.0028 38.1 65.7494 38.3067 66.2561 38.72C66.7761 39.1333 67.1294 39.6867 67.3161 40.38C67.5161 41.06 67.6161 41.82 67.6161 42.66V47.78C67.6161 48.1267 67.5028 48.42 67.2761 48.66C67.0494 48.8867 66.7628 49 66.4161 49C66.0694 49 65.7828 48.8867 65.5561 48.66C65.3294 48.42 65.2161 48.1267 65.2161 47.78V42.66C65.2161 42.22 65.1561 41.8267 65.0361 41.48C64.9294 41.12 64.7294 40.8333 64.4361 40.62C64.1428 40.4067 63.7228 40.3 63.1761 40.3C62.6428 40.3 62.1894 40.4067 61.8161 40.62C61.4561 40.8333 61.1761 41.12 60.9761 41.48C60.7894 41.8267 60.6961 42.22 60.6961 42.66V47.78C60.6961 48.1267 60.5828 48.42 60.3561 48.66C60.1294 48.8867 59.8428 49 59.4961 49C59.1494 49 58.8628 48.8867 58.6361 48.66C58.4094 48.42 58.2961 48.1267 58.2961 47.78V39.52C58.2961 39.1733 58.4094 38.8867 58.6361 38.66C58.8628 38.42 59.1494 38.3 59.4961 38.3C59.8428 38.3 60.1294 38.42 60.3561 38.66C60.5828 38.8867 60.6961 39.1733 60.6961 39.52V40.38L60.3961 40.32C60.5161 40.0933 60.6894 39.8533 60.9161 39.6C61.1428 39.3333 61.4094 39.0867 61.7161 38.86C62.0228 38.6333 62.3694 38.4533 62.7561 38.32C63.1428 38.1733 63.5628 38.1 64.0161 38.1ZM70.5925 38.3C70.8458 38.3 71.0792 38.3667 71.2925 38.5C71.5058 38.62 71.6658 38.8067 71.7725 39.06L74.7125 45.78L74.2725 45.98L77.2725 39.08C77.4992 38.5467 77.8525 38.2933 78.3325 38.32C78.6658 38.32 78.9325 38.4267 79.1325 38.64C79.3458 38.84 79.4525 39.0933 79.4525 39.4C79.4525 39.4933 79.4325 39.5933 79.3925 39.7C79.3658 39.8067 79.3325 39.9067 79.2925 40L75.5525 48.24C75.3392 48.72 74.9992 48.9733 74.5325 49C74.2792 49.04 74.0325 48.9933 73.7925 48.86C73.5658 48.7267 73.3925 48.52 73.2725 48.24L69.5525 40C69.5258 39.9333 69.4925 39.8467 69.4525 39.74C69.4258 39.6333 69.4125 39.5067 69.4125 39.36C69.4125 39.12 69.5192 38.8867 69.7325 38.66C69.9458 38.42 70.2325 38.3 70.5925 38.3ZM83.603 47.78C83.603 48.1267 83.4896 48.42 83.263 48.66C83.0363 48.8867 82.7496 49 82.403 49C82.0563 49 81.7696 48.8867 81.543 48.66C81.3163 48.42 81.203 48.1267 81.203 47.78V39.52C81.203 39.1733 81.3163 38.8867 81.543 38.66C81.7696 38.42 82.0563 38.3 82.403 38.3C82.7496 38.3 83.0363 38.42 83.263 38.66C83.4896 38.8867 83.603 39.1733 83.603 39.52V47.78ZM82.383 37C81.9296 37 81.6096 36.9267 81.423 36.78C81.2363 36.6333 81.143 36.3733 81.143 36V35.62C81.143 35.2333 81.243 34.9733 81.443 34.84C81.6563 34.6933 81.9763 34.62 82.403 34.62C82.8696 34.62 83.1963 34.6933 83.383 34.84C83.5696 34.9867 83.663 35.2467 83.663 35.62V36C83.663 36.3867 83.563 36.6533 83.363 36.8C83.163 36.9333 82.8363 37 82.383 37ZM86.1895 38.5H90.9295C91.2495 38.5 91.5162 38.6067 91.7295 38.82C91.9429 39.0333 92.0495 39.3 92.0495 39.62C92.0495 39.9267 91.9429 40.1867 91.7295 40.4C91.5162 40.6 91.2495 40.7 90.9295 40.7H86.1895C85.8695 40.7 85.6029 40.5933 85.3895 40.38C85.1762 40.1667 85.0695 39.9 85.0695 39.58C85.0695 39.2733 85.1762 39.02 85.3895 38.82C85.6029 38.6067 85.8695 38.5 86.1895 38.5ZM88.3295 36C88.6762 36 88.9562 36.12 89.1695 36.36C89.3962 36.5867 89.5095 36.8733 89.5095 37.22V46.12C89.5095 46.3067 89.5429 46.46 89.6095 46.58C89.6895 46.7 89.7895 46.7867 89.9095 46.84C90.0429 46.8933 90.1829 46.92 90.3295 46.92C90.4895 46.92 90.6362 46.8933 90.7695 46.84C90.9029 46.7733 91.0562 46.74 91.2295 46.74C91.4162 46.74 91.5829 46.8267 91.7295 47C91.8895 47.1733 91.9695 47.4133 91.9695 47.72C91.9695 48.0933 91.7629 48.4 91.3495 48.64C90.9495 48.88 90.5162 49 90.0495 49C89.7695 49 89.4562 48.98 89.1095 48.94C88.7762 48.8867 88.4562 48.7733 88.1495 48.6C87.8562 48.4133 87.6095 48.1333 87.4095 47.76C87.2095 47.3867 87.1095 46.8733 87.1095 46.22V37.22C87.1095 36.8733 87.2229 36.5867 87.4495 36.36C87.6895 36.12 87.9829 36 88.3295 36ZM103.013 38.1C103.36 38.1 103.646 38.2133 103.873 38.44C104.1 38.6667 104.213 38.96 104.213 39.32V47.78C104.213 48.1267 104.1 48.42 103.873 48.66C103.646 48.8867 103.36 49 103.013 49C102.666 49 102.38 48.8867 102.153 48.66C101.926 48.42 101.813 48.1267 101.813 47.78V46.8L102.253 46.98C102.253 47.1533 102.16 47.3667 101.973 47.62C101.786 47.86 101.533 48.1 101.213 48.34C100.893 48.58 100.513 48.7867 100.073 48.96C99.6465 49.12 99.1798 49.2 98.6731 49.2C97.7531 49.2 96.9198 48.9667 96.1731 48.5C95.4265 48.02 94.8331 47.3667 94.3931 46.54C93.9665 45.7 93.7531 44.74 93.7531 43.66C93.7531 42.5667 93.9665 41.6067 94.3931 40.78C94.8331 39.94 95.4198 39.2867 96.1531 38.82C96.8865 38.34 97.6998 38.1 98.5931 38.1C99.1665 38.1 99.6931 38.1867 100.173 38.36C100.653 38.5333 101.066 38.7533 101.413 39.02C101.773 39.2867 102.046 39.56 102.233 39.84C102.433 40.1067 102.533 40.3333 102.533 40.52L101.813 40.78V39.32C101.813 38.9733 101.926 38.6867 102.153 38.46C102.38 38.22 102.666 38.1 103.013 38.1ZM98.9731 47C99.5598 47 100.073 46.8533 100.513 46.56C100.953 46.2667 101.293 45.8667 101.533 45.36C101.786 44.8533 101.913 44.2867 101.913 43.66C101.913 43.02 101.786 42.4467 101.533 41.94C101.293 41.4333 100.953 41.0333 100.513 40.74C100.073 40.4467 99.5598 40.3 98.9731 40.3C98.3998 40.3 97.8931 40.4467 97.4531 40.74C97.0131 41.0333 96.6665 41.4333 96.4131 41.94C96.1731 42.4467 96.0531 43.02 96.0531 43.66C96.0531 44.2867 96.1731 44.8533 96.4131 45.36C96.6665 45.8667 97.0131 46.2667 97.4531 46.56C97.8931 46.8533 98.3998 47 98.9731 47ZM152.232 63.3C152.579 63.3 152.866 63.42 153.092 63.66C153.319 63.8867 153.432 64.1733 153.432 64.52V73.02C153.432 74.2467 153.199 75.22 152.732 75.94C152.279 76.6733 151.666 77.2 150.892 77.52C150.119 77.84 149.252 78 148.292 78C147.866 78 147.412 77.9667 146.932 77.9C146.452 77.8333 146.059 77.7333 145.752 77.6C145.352 77.4267 145.072 77.2067 144.912 76.94C144.766 76.6867 144.739 76.4133 144.832 76.12C144.952 75.7333 145.146 75.4667 145.412 75.32C145.679 75.1867 145.959 75.1733 146.252 75.28C146.466 75.3467 146.746 75.4467 147.092 75.58C147.439 75.7267 147.839 75.8 148.292 75.8C148.906 75.8 149.412 75.7133 149.812 75.54C150.226 75.38 150.532 75.1 150.732 74.7C150.946 74.3133 151.052 73.78 151.052 73.1V71.76L151.472 72.24C151.246 72.68 150.959 73.0467 150.612 73.34C150.279 73.62 149.879 73.8333 149.412 73.98C148.946 74.1267 148.412 74.2 147.812 74.2C147.106 74.2 146.486 74.04 145.952 73.72C145.432 73.3867 145.026 72.9333 144.732 72.36C144.439 71.7733 144.292 71.1067 144.292 70.36V64.52C144.292 64.1733 144.406 63.8867 144.632 63.66C144.859 63.42 145.146 63.3 145.492 63.3C145.839 63.3 146.126 63.42 146.352 63.66C146.579 63.8867 146.692 64.1733 146.692 64.52V69.64C146.692 70.5067 146.879 71.12 147.252 71.48C147.639 71.8267 148.172 72 148.852 72C149.319 72 149.712 71.9133 150.032 71.74C150.352 71.5533 150.599 71.2867 150.772 70.94C150.946 70.58 151.032 70.1467 151.032 69.64V64.52C151.032 64.1733 151.146 63.8867 151.372 63.66C151.599 63.42 151.886 63.3 152.232 63.3ZM164.236 72.78C164.236 73.1267 164.116 73.42 163.876 73.66C163.649 73.8867 163.363 74 163.016 74C162.683 74 162.403 73.8867 162.176 73.66C161.949 73.42 161.836 73.1267 161.836 72.78V60.42C161.836 60.0733 161.949 59.7867 162.176 59.56C162.416 59.32 162.709 59.2 163.056 59.2C163.403 59.2 163.683 59.32 163.896 59.56C164.123 59.7867 164.236 60.0733 164.236 60.42V72.78ZM169.287 72.78C169.287 73.1267 169.173 73.42 168.947 73.66C168.72 73.8867 168.433 74 168.087 74C167.74 74 167.453 73.8867 167.227 73.66C167 73.42 166.887 73.1267 166.887 72.78V64.52C166.887 64.1733 167 63.8867 167.227 63.66C167.453 63.42 167.74 63.3 168.087 63.3C168.433 63.3 168.72 63.42 168.947 63.66C169.173 63.8867 169.287 64.1733 169.287 64.52V72.78ZM168.067 62C167.613 62 167.293 61.9267 167.107 61.78C166.92 61.6333 166.827 61.3733 166.827 61V60.62C166.827 60.2333 166.927 59.9733 167.127 59.84C167.34 59.6933 167.66 59.62 168.087 59.62C168.553 59.62 168.88 59.6933 169.067 59.84C169.253 59.9867 169.347 60.2467 169.347 60.62V61C169.347 61.3867 169.247 61.6533 169.047 61.8C168.847 61.9333 168.52 62 168.067 62ZM171.133 72.34C171 72.1533 170.94 71.9133 170.953 71.62C170.966 71.3267 171.14 71.0733 171.473 70.86C171.686 70.7267 171.913 70.6733 172.153 70.7C172.393 70.7133 172.626 70.8333 172.853 71.06C173.24 71.4467 173.646 71.7467 174.073 71.96C174.5 72.1733 175.033 72.28 175.673 72.28C175.873 72.2667 176.093 72.24 176.333 72.2C176.573 72.1467 176.78 72.04 176.953 71.88C177.14 71.7067 177.233 71.4467 177.233 71.1C177.233 70.8067 177.133 70.5733 176.933 70.4C176.733 70.2267 176.466 70.08 176.133 69.96C175.813 69.84 175.453 69.7267 175.053 69.62C174.64 69.5 174.213 69.3667 173.773 69.22C173.346 69.0733 172.953 68.8867 172.593 68.66C172.233 68.42 171.94 68.1067 171.713 67.72C171.486 67.3333 171.373 66.8467 171.373 66.26C171.373 65.5933 171.56 65.0267 171.933 64.56C172.306 64.0933 172.786 63.7333 173.373 63.48C173.973 63.2267 174.6 63.1 175.253 63.1C175.666 63.1 176.1 63.1533 176.553 63.26C177.006 63.3533 177.44 63.5133 177.853 63.74C178.266 63.9533 178.613 64.24 178.893 64.6C179.04 64.8 179.126 65.04 179.153 65.32C179.18 65.6 179.053 65.8533 178.773 66.08C178.573 66.24 178.34 66.3133 178.073 66.3C177.806 66.2733 177.586 66.18 177.413 66.02C177.186 65.7267 176.88 65.4933 176.493 65.32C176.12 65.1467 175.686 65.06 175.193 65.06C174.993 65.06 174.773 65.0867 174.533 65.14C174.306 65.18 174.106 65.28 173.933 65.44C173.76 65.5867 173.673 65.8267 173.673 66.16C173.673 66.4667 173.773 66.7133 173.973 66.9C174.173 67.0733 174.44 67.22 174.773 67.34C175.12 67.4467 175.486 67.5533 175.873 67.66C176.273 67.7667 176.68 67.8933 177.093 68.04C177.506 68.1867 177.886 68.38 178.233 68.62C178.58 68.86 178.86 69.1733 179.073 69.56C179.286 69.9333 179.393 70.4133 179.393 71C179.393 71.68 179.193 72.26 178.793 72.74C178.393 73.22 177.893 73.5867 177.293 73.84C176.693 74.08 176.08 74.2 175.453 74.2C174.666 74.2 173.88 74.0667 173.093 73.8C172.306 73.52 171.653 73.0333 171.133 72.34ZM181.522 63.5H186.262C186.582 63.5 186.848 63.6067 187.062 63.82C187.275 64.0333 187.382 64.3 187.382 64.62C187.382 64.9267 187.275 65.1867 187.062 65.4C186.848 65.6 186.582 65.7 186.262 65.7H181.522C181.202 65.7 180.935 65.5933 180.722 65.38C180.508 65.1667 180.402 64.9 180.402 64.58C180.402 64.2733 180.508 64.02 180.722 63.82C180.935 63.6067 181.202 63.5 181.522 63.5ZM183.662 61C184.008 61 184.288 61.12 184.502 61.36C184.728 61.5867 184.842 61.8733 184.842 62.22V71.12C184.842 71.3067 184.875 71.46 184.942 71.58C185.022 71.7 185.122 71.7867 185.242 71.84C185.375 71.8933 185.515 71.92 185.662 71.92C185.822 71.92 185.968 71.8933 186.102 71.84C186.235 71.7733 186.388 71.74 186.562 71.74C186.748 71.74 186.915 71.8267 187.062 72C187.222 72.1733 187.302 72.4133 187.302 72.72C187.302 73.0933 187.095 73.4 186.682 73.64C186.282 73.88 185.848 74 185.382 74C185.102 74 184.788 73.98 184.442 73.94C184.108 73.8867 183.788 73.7733 183.482 73.6C183.188 73.4133 182.942 73.1333 182.742 72.76C182.542 72.3867 182.442 71.8733 182.442 71.22V62.22C182.442 61.8733 182.555 61.5867 182.782 61.36C183.022 61.12 183.315 61 183.662 61ZM199.868 68.66C199.868 69.7533 199.621 70.72 199.128 71.56C198.648 72.3867 197.994 73.0333 197.168 73.5C196.354 73.9667 195.441 74.2 194.428 74.2C193.414 74.2 192.494 73.9667 191.668 73.5C190.854 73.0333 190.201 72.3867 189.708 71.56C189.228 70.72 188.988 69.7533 188.988 68.66C188.988 67.5667 189.228 66.6067 189.708 65.78C190.201 64.94 190.854 64.2867 191.668 63.82C192.494 63.34 193.414 63.1 194.428 63.1C195.441 63.1 196.354 63.34 197.168 63.82C197.994 64.2867 198.648 64.94 199.128 65.78C199.621 66.6067 199.868 67.5667 199.868 68.66ZM197.468 68.66C197.468 67.98 197.328 67.3933 197.048 66.9C196.781 66.3933 196.414 66 195.948 65.72C195.494 65.44 194.988 65.3 194.428 65.3C193.868 65.3 193.354 65.44 192.888 65.72C192.434 66 192.068 66.3933 191.788 66.9C191.521 67.3933 191.388 67.98 191.388 68.66C191.388 69.3267 191.521 69.9133 191.788 70.42C192.068 70.9133 192.434 71.3 192.888 71.58C193.354 71.86 193.868 72 194.428 72C194.988 72 195.494 71.86 195.948 71.58C196.414 71.3 196.781 70.9133 197.048 70.42C197.328 69.9133 197.468 69.3267 197.468 68.66ZM203.348 69.58C202.895 69.58 202.648 69.3267 202.608 68.82L202.028 61.46C202.001 61.0467 202.108 60.7 202.348 60.42C202.601 60.14 202.928 60 203.328 60C203.728 60 204.055 60.14 204.308 60.42C204.561 60.7 204.668 61.0467 204.628 61.46L204.068 68.82C204.028 69.3267 203.788 69.58 203.348 69.58ZM203.208 74C202.821 74 202.521 73.9 202.308 73.7C202.108 73.4867 202.008 73.1867 202.008 72.8V72.46C202.008 72.0733 202.108 71.78 202.308 71.58C202.521 71.3667 202.821 71.26 203.208 71.26H203.468C203.855 71.26 204.148 71.3667 204.348 71.58C204.561 71.78 204.668 72.0733 204.668 72.46V72.8C204.668 73.1867 204.561 73.4867 204.348 73.7C204.148 73.9 203.855 74 203.468 74H203.208Z" fill="#212832"/>
<path d="M139.723 24.2C138.589 24.2 137.603 23.9667 136.763 23.5C135.936 23.02 135.296 22.3733 134.843 21.56C134.403 20.7467 134.183 19.8267 134.183 18.8C134.183 17.6 134.423 16.58 134.903 15.74C135.396 14.8867 136.036 14.2333 136.823 13.78C137.609 13.3267 138.443 13.1 139.323 13.1C140.003 13.1 140.643 13.24 141.243 13.52C141.856 13.8 142.396 14.1867 142.863 14.68C143.329 15.16 143.696 15.72 143.963 16.36C144.243 17 144.383 17.68 144.383 18.4C144.369 18.72 144.243 18.98 144.003 19.18C143.763 19.38 143.483 19.48 143.163 19.48H135.523L134.923 17.48H142.263L141.823 17.88V17.34C141.796 16.9533 141.656 16.6067 141.403 16.3C141.163 15.9933 140.856 15.7533 140.483 15.58C140.123 15.3933 139.736 15.3 139.323 15.3C138.923 15.3 138.549 15.3533 138.203 15.46C137.856 15.5667 137.556 15.7467 137.303 16C137.049 16.2533 136.849 16.5933 136.703 17.02C136.556 17.4467 136.483 17.9867 136.483 18.64C136.483 19.36 136.629 19.9733 136.923 20.48C137.229 20.9733 137.616 21.3533 138.083 21.62C138.563 21.8733 139.069 22 139.603 22C140.096 22 140.489 21.96 140.783 21.88C141.076 21.8 141.309 21.7067 141.483 21.6C141.669 21.48 141.836 21.38 141.983 21.3C142.223 21.18 142.449 21.12 142.663 21.12C142.956 21.12 143.196 21.22 143.383 21.42C143.583 21.62 143.683 21.8533 143.683 22.12C143.683 22.48 143.496 22.8067 143.123 23.1C142.776 23.3933 142.289 23.6533 141.663 23.88C141.036 24.0933 140.389 24.2 139.723 24.2ZM146.862 13.3C147.115 13.3 147.349 13.3667 147.562 13.5C147.775 13.62 147.935 13.8067 148.042 14.06L150.982 20.78L150.542 20.98L153.542 14.08C153.769 13.5467 154.122 13.2933 154.602 13.32C154.935 13.32 155.202 13.4267 155.402 13.64C155.615 13.84 155.722 14.0933 155.722 14.4C155.722 14.4933 155.702 14.5933 155.662 14.7C155.635 14.8067 155.602 14.9067 155.562 15L151.822 23.24C151.609 23.72 151.269 23.9733 150.802 24C150.549 24.04 150.302 23.9933 150.062 23.86C149.835 23.7267 149.662 23.52 149.542 23.24L145.822 15C145.795 14.9333 145.762 14.8467 145.722 14.74C145.695 14.6333 145.682 14.5067 145.682 14.36C145.682 14.12 145.789 13.8867 146.002 13.66C146.215 13.42 146.502 13.3 146.862 13.3ZM162.555 24.2C161.422 24.2 160.435 23.9667 159.595 23.5C158.768 23.02 158.128 22.3733 157.675 21.56C157.235 20.7467 157.015 19.8267 157.015 18.8C157.015 17.6 157.255 16.58 157.735 15.74C158.228 14.8867 158.868 14.2333 159.655 13.78C160.442 13.3267 161.275 13.1 162.155 13.1C162.835 13.1 163.475 13.24 164.075 13.52C164.688 13.8 165.228 14.1867 165.695 14.68C166.162 15.16 166.528 15.72 166.795 16.36C167.075 17 167.215 17.68 167.215 18.4C167.202 18.72 167.075 18.98 166.835 19.18C166.595 19.38 166.315 19.48 165.995 19.48H158.355L157.755 17.48H165.095L164.655 17.88V17.34C164.628 16.9533 164.488 16.6067 164.235 16.3C163.995 15.9933 163.688 15.7533 163.315 15.58C162.955 15.3933 162.568 15.3 162.155 15.3C161.755 15.3 161.382 15.3533 161.035 15.46C160.688 15.5667 160.388 15.7467 160.135 16C159.882 16.2533 159.682 16.5933 159.535 17.02C159.388 17.4467 159.315 17.9867 159.315 18.64C159.315 19.36 159.462 19.9733 159.755 20.48C160.062 20.9733 160.448 21.3533 160.915 21.62C161.395 21.8733 161.902 22 162.435 22C162.928 22 163.322 21.96 163.615 21.88C163.908 21.8 164.142 21.7067 164.315 21.6C164.502 21.48 164.668 21.38 164.815 21.3C165.055 21.18 165.282 21.12 165.495 21.12C165.788 21.12 166.028 21.22 166.215 21.42C166.415 21.62 166.515 21.8533 166.515 22.12C166.515 22.48 166.328 22.8067 165.955 23.1C165.608 23.3933 165.122 23.6533 164.495 23.88C163.868 24.0933 163.222 24.2 162.555 24.2ZM175.032 13.1C176.018 13.1 176.765 13.3067 177.272 13.72C177.792 14.1333 178.145 14.6867 178.332 15.38C178.532 16.06 178.632 16.82 178.632 17.66V22.78C178.632 23.1267 178.518 23.42 178.292 23.66C178.065 23.8867 177.778 24 177.432 24C177.085 24 176.798 23.8867 176.572 23.66C176.345 23.42 176.232 23.1267 176.232 22.78V17.66C176.232 17.22 176.172 16.8267 176.052 16.48C175.945 16.12 175.745 15.8333 175.452 15.62C175.158 15.4067 174.738 15.3 174.192 15.3C173.658 15.3 173.205 15.4067 172.832 15.62C172.472 15.8333 172.192 16.12 171.992 16.48C171.805 16.8267 171.712 17.22 171.712 17.66V22.78C171.712 23.1267 171.598 23.42 171.372 23.66C171.145 23.8867 170.858 24 170.512 24C170.165 24 169.878 23.8867 169.652 23.66C169.425 23.42 169.312 23.1267 169.312 22.78V14.52C169.312 14.1733 169.425 13.8867 169.652 13.66C169.878 13.42 170.165 13.3 170.512 13.3C170.858 13.3 171.145 13.42 171.372 13.66C171.598 13.8867 171.712 14.1733 171.712 14.52V15.38L171.412 15.32C171.532 15.0933 171.705 14.8533 171.932 14.6C172.158 14.3333 172.425 14.0867 172.732 13.86C173.038 13.6333 173.385 13.4533 173.772 13.32C174.158 13.1733 174.578 13.1 175.032 13.1ZM181.346 13.5H186.086C186.406 13.5 186.672 13.6067 186.886 13.82C187.099 14.0333 187.206 14.3 187.206 14.62C187.206 14.9267 187.099 15.1867 186.886 15.4C186.672 15.6 186.406 15.7 186.086 15.7H181.346C181.026 15.7 180.759 15.5933 180.546 15.38C180.332 15.1667 180.226 14.9 180.226 14.58C180.226 14.2733 180.332 14.02 180.546 13.82C180.759 13.6067 181.026 13.5 181.346 13.5ZM183.486 11C183.832 11 184.112 11.12 184.326 11.36C184.552 11.5867 184.666 11.8733 184.666 12.22V21.12C184.666 21.3067 184.699 21.46 184.766 21.58C184.846 21.7 184.946 21.7867 185.066 21.84C185.199 21.8933 185.339 21.92 185.486 21.92C185.646 21.92 185.792 21.8933 185.926 21.84C186.059 21.7733 186.212 21.74 186.386 21.74C186.572 21.74 186.739 21.8267 186.886 22C187.046 22.1733 187.126 22.4133 187.126 22.72C187.126 23.0933 186.919 23.4 186.506 23.64C186.106 23.88 185.672 24 185.206 24C184.926 24 184.612 23.98 184.266 23.94C183.932 23.8867 183.612 23.7733 183.306 23.6C183.012 23.4133 182.766 23.1333 182.566 22.76C182.366 22.3867 182.266 21.8733 182.266 21.22V12.22C182.266 11.8733 182.379 11.5867 182.606 11.36C182.846 11.12 183.139 11 183.486 11ZM199.692 18.66C199.692 19.7533 199.445 20.72 198.952 21.56C198.472 22.3867 197.818 23.0333 196.992 23.5C196.178 23.9667 195.265 24.2 194.252 24.2C193.238 24.2 192.318 23.9667 191.492 23.5C190.678 23.0333 190.025 22.3867 189.532 21.56C189.052 20.72 188.812 19.7533 188.812 18.66C188.812 17.5667 189.052 16.6067 189.532 15.78C190.025 14.94 190.678 14.2867 191.492 13.82C192.318 13.34 193.238 13.1 194.252 13.1C195.265 13.1 196.178 13.34 196.992 13.82C197.818 14.2867 198.472 14.94 198.952 15.78C199.445 16.6067 199.692 17.5667 199.692 18.66ZM197.292 18.66C197.292 17.98 197.152 17.3933 196.872 16.9C196.605 16.3933 196.238 16 195.772 15.72C195.318 15.44 194.812 15.3 194.252 15.3C193.692 15.3 193.178 15.44 192.712 15.72C192.258 16 191.892 16.3933 191.612 16.9C191.345 17.3933 191.212 17.98 191.212 18.66C191.212 19.3267 191.345 19.9133 191.612 20.42C191.892 20.9133 192.258 21.3 192.712 21.58C193.178 21.86 193.692 22 194.252 22C194.812 22 195.318 21.86 195.772 21.58C196.238 21.3 196.605 20.9133 196.872 20.42C197.152 19.9133 197.292 19.3267 197.292 18.66ZM117.957 38.1C118.891 38.1 119.724 38.34 120.457 38.82C121.204 39.2867 121.791 39.9333 122.217 40.76C122.657 41.5867 122.877 42.5467 122.877 43.64C122.877 44.7333 122.657 45.7 122.217 46.54C121.791 47.3667 121.211 48.02 120.477 48.5C119.757 48.9667 118.944 49.2 118.037 49.2C117.504 49.2 117.004 49.1133 116.537 48.94C116.071 48.7667 115.657 48.5467 115.297 48.28C114.951 48.0133 114.677 47.7467 114.477 47.48C114.291 47.2 114.197 46.9667 114.197 46.78L114.817 46.52V51.78C114.817 52.1267 114.704 52.4133 114.477 52.64C114.251 52.88 113.964 53 113.617 53C113.271 53 112.984 52.8867 112.757 52.66C112.531 52.4333 112.417 52.14 112.417 51.78V39.52C112.417 39.1733 112.531 38.8867 112.757 38.66C112.984 38.42 113.271 38.3 113.617 38.3C113.964 38.3 114.251 38.42 114.477 38.66C114.704 38.8867 114.817 39.1733 114.817 39.52V40.5L114.477 40.32C114.477 40.1467 114.571 39.94 114.757 39.7C114.944 39.4467 115.197 39.2 115.517 38.96C115.837 38.7067 116.204 38.5 116.617 38.34C117.044 38.18 117.491 38.1 117.957 38.1ZM117.657 40.3C117.071 40.3 116.557 40.4467 116.117 40.74C115.677 41.0333 115.331 41.4333 115.077 41.94C114.837 42.4333 114.717 43 114.717 43.64C114.717 44.2667 114.837 44.84 115.077 45.36C115.331 45.8667 115.677 46.2667 116.117 46.56C116.557 46.8533 117.071 47 117.657 47C118.244 47 118.751 46.8533 119.177 46.56C119.617 46.2667 119.957 45.8667 120.197 45.36C120.451 44.84 120.577 44.2667 120.577 43.64C120.577 43 120.451 42.4333 120.197 41.94C119.957 41.4333 119.617 41.0333 119.177 40.74C118.751 40.4467 118.244 40.3 117.657 40.3ZM130.016 49.2C128.882 49.2 127.896 48.9667 127.056 48.5C126.229 48.02 125.589 47.3733 125.136 46.56C124.696 45.7467 124.476 44.8267 124.476 43.8C124.476 42.6 124.716 41.58 125.196 40.74C125.689 39.8867 126.329 39.2333 127.116 38.78C127.902 38.3267 128.736 38.1 129.616 38.1C130.296 38.1 130.936 38.24 131.536 38.52C132.149 38.8 132.689 39.1867 133.156 39.68C133.622 40.16 133.989 40.72 134.256 41.36C134.536 42 134.676 42.68 134.676 43.4C134.662 43.72 134.536 43.98 134.296 44.18C134.056 44.38 133.776 44.48 133.456 44.48H125.816L125.216 42.48H132.556L132.116 42.88V42.34C132.089 41.9533 131.949 41.6067 131.696 41.3C131.456 40.9933 131.149 40.7533 130.776 40.58C130.416 40.3933 130.029 40.3 129.616 40.3C129.216 40.3 128.842 40.3533 128.496 40.46C128.149 40.5667 127.849 40.7467 127.596 41C127.342 41.2533 127.142 41.5933 126.996 42.02C126.849 42.4467 126.776 42.9867 126.776 43.64C126.776 44.36 126.922 44.9733 127.216 45.48C127.522 45.9733 127.909 46.3533 128.376 46.62C128.856 46.8733 129.362 47 129.896 47C130.389 47 130.782 46.96 131.076 46.88C131.369 46.8 131.602 46.7067 131.776 46.6C131.962 46.48 132.129 46.38 132.276 46.3C132.516 46.18 132.742 46.12 132.956 46.12C133.249 46.12 133.489 46.22 133.676 46.42C133.876 46.62 133.976 46.8533 133.976 47.12C133.976 47.48 133.789 47.8067 133.416 48.1C133.069 48.3933 132.582 48.6533 131.956 48.88C131.329 49.0933 130.682 49.2 130.016 49.2ZM137.973 49C137.626 49 137.339 48.8867 137.113 48.66C136.886 48.42 136.773 48.1267 136.773 47.78V39.52C136.773 39.1733 136.886 38.8867 137.113 38.66C137.339 38.42 137.626 38.3 137.973 38.3C138.319 38.3 138.606 38.42 138.833 38.66C139.059 38.8867 139.173 39.1733 139.173 39.52V41.4L139.033 40.06C139.179 39.74 139.366 39.46 139.593 39.22C139.833 38.9667 140.099 38.76 140.393 38.6C140.686 38.4267 140.999 38.3 141.333 38.22C141.666 38.14 141.999 38.1 142.333 38.1C142.733 38.1 143.066 38.2133 143.333 38.44C143.613 38.6667 143.753 38.9333 143.753 39.24C143.753 39.68 143.639 40 143.413 40.2C143.186 40.3867 142.939 40.48 142.673 40.48C142.419 40.48 142.186 40.4333 141.973 40.34C141.773 40.2467 141.539 40.2 141.273 40.2C141.033 40.2 140.786 40.26 140.533 40.38C140.293 40.4867 140.066 40.66 139.853 40.9C139.653 41.14 139.486 41.44 139.353 41.8C139.233 42.1467 139.173 42.56 139.173 43.04V47.78C139.173 48.1267 139.059 48.42 138.833 48.66C138.606 48.8867 138.319 49 137.973 49ZM144.825 47.34C144.691 47.1533 144.631 46.9133 144.645 46.62C144.658 46.3267 144.831 46.0733 145.165 45.86C145.378 45.7267 145.605 45.6733 145.845 45.7C146.085 45.7133 146.318 45.8333 146.545 46.06C146.931 46.4467 147.338 46.7467 147.765 46.96C148.191 47.1733 148.725 47.28 149.365 47.28C149.565 47.2667 149.785 47.24 150.025 47.2C150.265 47.1467 150.471 47.04 150.645 46.88C150.831 46.7067 150.925 46.4467 150.925 46.1C150.925 45.8067 150.825 45.5733 150.625 45.4C150.425 45.2267 150.158 45.08 149.825 44.96C149.505 44.84 149.145 44.7267 148.745 44.62C148.331 44.5 147.905 44.3667 147.465 44.22C147.038 44.0733 146.645 43.8867 146.285 43.66C145.925 43.42 145.631 43.1067 145.405 42.72C145.178 42.3333 145.065 41.8467 145.065 41.26C145.065 40.5933 145.251 40.0267 145.625 39.56C145.998 39.0933 146.478 38.7333 147.065 38.48C147.665 38.2267 148.291 38.1 148.945 38.1C149.358 38.1 149.791 38.1533 150.245 38.26C150.698 38.3533 151.131 38.5133 151.545 38.74C151.958 38.9533 152.305 39.24 152.585 39.6C152.731 39.8 152.818 40.04 152.845 40.32C152.871 40.6 152.745 40.8533 152.465 41.08C152.265 41.24 152.031 41.3133 151.765 41.3C151.498 41.2733 151.278 41.18 151.105 41.02C150.878 40.7267 150.571 40.4933 150.185 40.32C149.811 40.1467 149.378 40.06 148.885 40.06C148.685 40.06 148.465 40.0867 148.225 40.14C147.998 40.18 147.798 40.28 147.625 40.44C147.451 40.5867 147.365 40.8267 147.365 41.16C147.365 41.4667 147.465 41.7133 147.665 41.9C147.865 42.0733 148.131 42.22 148.465 42.34C148.811 42.4467 149.178 42.5533 149.565 42.66C149.965 42.7667 150.371 42.8933 150.785 43.04C151.198 43.1867 151.578 43.38 151.925 43.62C152.271 43.86 152.551 44.1733 152.765 44.56C152.978 44.9333 153.085 45.4133 153.085 46C153.085 46.68 152.885 47.26 152.485 47.74C152.085 48.22 151.585 48.5867 150.985 48.84C150.385 49.08 149.771 49.2 149.145 49.2C148.358 49.2 147.571 49.0667 146.785 48.8C145.998 48.52 145.345 48.0333 144.825 47.34ZM165.473 43.66C165.473 44.7533 165.226 45.72 164.733 46.56C164.253 47.3867 163.6 48.0333 162.773 48.5C161.96 48.9667 161.046 49.2 160.033 49.2C159.02 49.2 158.1 48.9667 157.273 48.5C156.46 48.0333 155.806 47.3867 155.313 46.56C154.833 45.72 154.593 44.7533 154.593 43.66C154.593 42.5667 154.833 41.6067 155.313 40.78C155.806 39.94 156.46 39.2867 157.273 38.82C158.1 38.34 159.02 38.1 160.033 38.1C161.046 38.1 161.96 38.34 162.773 38.82C163.6 39.2867 164.253 39.94 164.733 40.78C165.226 41.6067 165.473 42.5667 165.473 43.66ZM163.073 43.66C163.073 42.98 162.933 42.3933 162.653 41.9C162.386 41.3933 162.02 41 161.553 40.72C161.1 40.44 160.593 40.3 160.033 40.3C159.473 40.3 158.96 40.44 158.493 40.72C158.04 41 157.673 41.3933 157.393 41.9C157.126 42.3933 156.993 42.98 156.993 43.66C156.993 44.3267 157.126 44.9133 157.393 45.42C157.673 45.9133 158.04 46.3 158.493 46.58C158.96 46.86 159.473 47 160.033 47C160.593 47 161.1 46.86 161.553 46.58C162.02 46.3 162.386 45.9133 162.653 45.42C162.933 44.9133 163.073 44.3267 163.073 43.66ZM173.293 38.1C174.28 38.1 175.027 38.3067 175.533 38.72C176.053 39.1333 176.407 39.6867 176.593 40.38C176.793 41.06 176.893 41.82 176.893 42.66V47.78C176.893 48.1267 176.78 48.42 176.553 48.66C176.327 48.8867 176.04 49 175.693 49C175.347 49 175.06 48.8867 174.833 48.66C174.607 48.42 174.493 48.1267 174.493 47.78V42.66C174.493 42.22 174.433 41.8267 174.313 41.48C174.207 41.12 174.007 40.8333 173.713 40.62C173.42 40.4067 173 40.3 172.453 40.3C171.92 40.3 171.467 40.4067 171.093 40.62C170.733 40.8333 170.453 41.12 170.253 41.48C170.067 41.8267 169.973 42.22 169.973 42.66V47.78C169.973 48.1267 169.86 48.42 169.633 48.66C169.407 48.8867 169.12 49 168.773 49C168.427 49 168.14 48.8867 167.913 48.66C167.687 48.42 167.573 48.1267 167.573 47.78V39.52C167.573 39.1733 167.687 38.8867 167.913 38.66C168.14 38.42 168.427 38.3 168.773 38.3C169.12 38.3 169.407 38.42 169.633 38.66C169.86 38.8867 169.973 39.1733 169.973 39.52V40.38L169.673 40.32C169.793 40.0933 169.967 39.8533 170.193 39.6C170.42 39.3333 170.687 39.0867 170.993 38.86C171.3 38.6333 171.647 38.4533 172.033 38.32C172.42 38.1733 172.84 38.1 173.293 38.1ZM188.248 38.1C188.594 38.1 188.881 38.2133 189.108 38.44C189.334 38.6667 189.448 38.96 189.448 39.32V47.78C189.448 48.1267 189.334 48.42 189.108 48.66C188.881 48.8867 188.594 49 188.248 49C187.901 49 187.614 48.8867 187.388 48.66C187.161 48.42 187.048 48.1267 187.048 47.78V46.8L187.488 46.98C187.488 47.1533 187.394 47.3667 187.208 47.62C187.021 47.86 186.768 48.1 186.448 48.34C186.128 48.58 185.748 48.7867 185.308 48.96C184.881 49.12 184.414 49.2 183.908 49.2C182.988 49.2 182.154 48.9667 181.408 48.5C180.661 48.02 180.068 47.3667 179.628 46.54C179.201 45.7 178.988 44.74 178.988 43.66C178.988 42.5667 179.201 41.6067 179.628 40.78C180.068 39.94 180.654 39.2867 181.388 38.82C182.121 38.34 182.934 38.1 183.828 38.1C184.401 38.1 184.928 38.1867 185.408 38.36C185.888 38.5333 186.301 38.7533 186.648 39.02C187.008 39.2867 187.281 39.56 187.468 39.84C187.668 40.1067 187.768 40.3333 187.768 40.52L187.048 40.78V39.32C187.048 38.9733 187.161 38.6867 187.388 38.46C187.614 38.22 187.901 38.1 188.248 38.1ZM184.208 47C184.794 47 185.308 46.8533 185.748 46.56C186.188 46.2667 186.528 45.8667 186.768 45.36C187.021 44.8533 187.148 44.2867 187.148 43.66C187.148 43.02 187.021 42.4467 186.768 41.94C186.528 41.4333 186.188 41.0333 185.748 40.74C185.308 40.4467 184.794 40.3 184.208 40.3C183.634 40.3 183.128 40.4467 182.688 40.74C182.248 41.0333 181.901 41.4333 181.648 41.94C181.408 42.4467 181.288 43.02 181.288 43.66C181.288 44.2867 181.408 44.8533 181.648 45.36C181.901 45.8667 182.248 46.2667 182.688 46.56C183.128 46.8533 183.634 47 184.208 47ZM191.426 47.34C191.293 47.1533 191.233 46.9133 191.246 46.62C191.259 46.3267 191.433 46.0733 191.766 45.86C191.979 45.7267 192.206 45.6733 192.446 45.7C192.686 45.7133 192.919 45.8333 193.146 46.06C193.533 46.4467 193.939 46.7467 194.366 46.96C194.793 47.1733 195.326 47.28 195.966 47.28C196.166 47.2667 196.386 47.24 196.626 47.2C196.866 47.1467 197.073 47.04 197.246 46.88C197.433 46.7067 197.526 46.4467 197.526 46.1C197.526 45.8067 197.426 45.5733 197.226 45.4C197.026 45.2267 196.759 45.08 196.426 44.96C196.106 44.84 195.746 44.7267 195.346 44.62C194.933 44.5 194.506 44.3667 194.066 44.22C193.639 44.0733 193.246 43.8867 192.886 43.66C192.526 43.42 192.233 43.1067 192.006 42.72C191.779 42.3333 191.666 41.8467 191.666 41.26C191.666 40.5933 191.853 40.0267 192.226 39.56C192.599 39.0933 193.079 38.7333 193.666 38.48C194.266 38.2267 194.893 38.1 195.546 38.1C195.959 38.1 196.393 38.1533 196.846 38.26C197.299 38.3533 197.733 38.5133 198.146 38.74C198.559 38.9533 198.906 39.24 199.186 39.6C199.333 39.8 199.419 40.04 199.446 40.32C199.473 40.6 199.346 40.8533 199.066 41.08C198.866 41.24 198.633 41.3133 198.366 41.3C198.099 41.2733 197.879 41.18 197.706 41.02C197.479 40.7267 197.173 40.4933 196.786 40.32C196.413 40.1467 195.979 40.06 195.486 40.06C195.286 40.06 195.066 40.0867 194.826 40.14C194.599 40.18 194.399 40.28 194.226 40.44C194.053 40.5867 193.966 40.8267 193.966 41.16C193.966 41.4667 194.066 41.7133 194.266 41.9C194.466 42.0733 194.733 42.22 195.066 42.34C195.413 42.4467 195.779 42.5533 196.166 42.66C196.566 42.7667 196.973 42.8933 197.386 43.04C197.799 43.1867 198.179 43.38 198.526 43.62C198.873 43.86 199.153 44.1733 199.366 44.56C199.579 44.9333 199.686 45.4133 199.686 46C199.686 46.68 199.486 47.26 199.086 47.74C198.686 48.22 198.186 48.5867 197.586 48.84C196.986 49.08 196.373 49.2 195.746 49.2C194.959 49.2 194.173 49.0667 193.386 48.8C192.599 48.52 191.946 48.0333 191.426 47.34Z" fill="#2A6794"/>
<line x1="211" y1="85" x2="211" stroke="#212832" stroke-width="2"/>
</svg>
